# MagicaVoxel @ Ephtracy

# group
o 

# material
mtllib pc-glass.mtl
usemtl palette

# normals
vn 0 0 1
vn 0 0 -1
vn 1 0 0
vn -1 0 0
vn 0 -1 0
vn 0 1 0

# texcoords
vt 0.173828 0.5
vt 0.623047 0.5
vt 0.748047 0.5
vt 0.935547 0.5
vt 0.958984 0.5
vt 0.962891 0.5

# verts
v 0.1 1.2 5.4
v -1.49012e-08 1.2 5.4
v 0.1 1.3 5.4
v -1.49012e-08 1.3 5.4
v 0.1 1.4 5.4
v -1.49012e-08 1.4 5.4
v 0.1 1.7 5.4
v -1.49012e-08 1.7 5.4
v 0.1 1.2 4.5
v -1.49012e-08 1.2 4.5
v 0.1 1.3 4.5
v -1.49012e-08 1.3 4.5
v 0.1 1.4 4.5
v -1.49012e-08 1.4 4.5
v 0.1 1.5 4.5
v -1.49012e-08 1.5 4.5
v 0.1 1.6 4.5
v -1.49012e-08 1.6 4.5
v 0.1 1.7 4.5
v -1.49012e-08 1.7 4.5
v 0.1 1.2 5.4
v 0.1 1.3 5.4
v 0.1 1.4 5.4
v 0.1 1.7 5.4
v 0.1 1.2 5.3
v 0.1 1.3 5.3
v 0.1 1.4 5.3
v 0.1 1.5 5.3
v 0.1 1.4 5
v 0.1 1.5 5
v 0.1 1.6 5
v 0.1 1.7 5
v 0.1 1.4 4.9
v 0.1 1.5 4.9
v 0.1 1.6 4.9
v 0.1 1.7 4.9
v 0.1 1.4 4.8
v 0.1 1.5 4.8
v 0.1 1.6 4.8
v 0.1 1.7 4.8
v 0.1 1.4 4.7
v 0.1 1.5 4.7
v 0.1 1.6 4.7
v 0.1 1.7 4.7
v 0.1 1.2 4.6
v 0.1 1.3 4.6
v 0.1 1.4 4.6
v 0.1 1.5 4.6
v 0.1 1.6 4.6
v 0.1 1.7 4.6
v 0.1 1.2 4.5
v 0.1 1.3 4.5
v 0.1 1.4 4.5
v 0.1 1.5 4.5
v 0.1 1.6 4.5
v 0.1 1.7 4.5
v -1.49012e-08 1.2 5.4
v -1.49012e-08 1.3 5.4
v -1.49012e-08 1.4 5.4
v -1.49012e-08 1.7 5.4
v -1.49012e-08 1.2 5.3
v -1.49012e-08 1.3 5.3
v -1.49012e-08 1.4 5.3
v -1.49012e-08 1.5 5.3
v -1.49012e-08 1.4 5
v -1.49012e-08 1.5 5
v -1.49012e-08 1.6 5
v -1.49012e-08 1.7 5
v -1.49012e-08 1.4 4.9
v -1.49012e-08 1.5 4.9
v -1.49012e-08 1.6 4.9
v -1.49012e-08 1.7 4.9
v -1.49012e-08 1.4 4.8
v -1.49012e-08 1.5 4.8
v -1.49012e-08 1.6 4.8
v -1.49012e-08 1.7 4.8
v -1.49012e-08 1.4 4.7
v -1.49012e-08 1.5 4.7
v -1.49012e-08 1.6 4.7
v -1.49012e-08 1.7 4.7
v -1.49012e-08 1.2 4.6
v -1.49012e-08 1.3 4.6
v -1.49012e-08 1.4 4.6
v -1.49012e-08 1.5 4.6
v -1.49012e-08 1.6 4.6
v -1.49012e-08 1.7 4.6
v -1.49012e-08 1.2 4.5
v -1.49012e-08 1.3 4.5
v -1.49012e-08 1.4 4.5
v -1.49012e-08 1.5 4.5
v -1.49012e-08 1.6 4.5
v -1.49012e-08 1.7 4.5
v 0.1 1.2 5.4
v 0.1 1.2 5.3
v 0.1 1.2 4.6
v 0.1 1.2 4.5
v -1.49012e-08 1.2 5.4
v -1.49012e-08 1.2 5.3
v -1.49012e-08 1.2 4.6
v -1.49012e-08 1.2 4.5
v 0.1 1.7 5.4
v 0.1 1.7 5
v 0.1 1.7 4.9
v 0.1 1.7 4.8
v 0.1 1.7 4.7
v 0.1 1.7 4.6
v 0.1 1.7 4.5
v -1.49012e-08 1.7 5.4
v -1.49012e-08 1.7 5
v -1.49012e-08 1.7 4.9
v -1.49012e-08 1.7 4.8
v -1.49012e-08 1.7 4.7
v -1.49012e-08 1.7 4.6
v -1.49012e-08 1.7 4.5

# faces
f 3/4/1 2/4/1 1/4/1
f 4/4/1 2/4/1 3/4/1
f 5/5/1 4/5/1 3/5/1
f 6/5/1 4/5/1 5/5/1
f 7/3/1 6/3/1 5/3/1
f 8/3/1 6/3/1 7/3/1
f 9/1/2 10/1/2 11/1/2
f 11/1/2 10/1/2 12/1/2
f 11/2/2 12/2/2 13/2/2
f 13/2/2 12/2/2 14/2/2
f 13/5/2 14/5/2 15/5/2
f 15/5/2 14/5/2 16/5/2
f 15/3/2 16/3/2 17/3/2
f 17/3/2 16/3/2 18/3/2
f 17/5/2 18/5/2 19/5/2
f 19/5/2 18/5/2 20/5/2
f 25/4/3 22/4/3 21/4/3
f 26/5/3 23/5/3 22/5/3
f 26/4/3 22/4/3 25/4/3
f 27/3/3 24/3/3 23/3/3
f 27/5/3 23/5/3 26/5/3
f 28/3/3 24/3/3 27/3/3
f 29/2/3 27/2/3 26/2/3
f 29/2/3 28/2/3 27/2/3
f 30/3/3 24/3/3 28/3/3
f 30/2/3 28/2/3 29/2/3
f 31/3/3 24/3/3 30/3/3
f 32/3/3 24/3/3 31/3/3
f 33/2/3 29/2/3 26/2/3
f 33/5/3 30/5/3 29/5/3
f 34/3/3 31/3/3 30/3/3
f 34/5/3 30/5/3 33/5/3
f 35/5/3 32/5/3 31/5/3
f 35/3/3 31/3/3 34/3/3
f 36/5/3 32/5/3 35/5/3
f 37/2/3 34/2/3 33/2/3
f 37/2/3 33/2/3 26/2/3
f 38/3/3 36/3/3 35/3/3
f 38/2/3 34/2/3 37/2/3
f 38/3/3 35/3/3 34/3/3
f 39/3/3 36/3/3 38/3/3
f 40/3/3 36/3/3 39/3/3
f 41/2/3 37/2/3 26/2/3
f 41/5/3 38/5/3 37/5/3
f 42/3/3 39/3/3 38/3/3
f 42/5/3 38/5/3 41/5/3
f 43/5/3 40/5/3 39/5/3
f 43/3/3 39/3/3 42/3/3
f 44/5/3 40/5/3 43/5/3
f 45/6/3 26/6/3 25/6/3
f 46/2/3 41/2/3 26/2/3
f 46/6/3 26/6/3 45/6/3
f 47/3/3 42/3/3 41/3/3
f 47/2/3 41/2/3 46/2/3
f 47/3/3 43/3/3 42/3/3
f 47/3/3 44/3/3 43/3/3
f 48/3/3 44/3/3 47/3/3
f 49/3/3 44/3/3 48/3/3
f 50/3/3 44/3/3 49/3/3
f 51/1/3 46/1/3 45/1/3
f 52/2/3 47/2/3 46/2/3
f 52/1/3 46/1/3 51/1/3
f 53/5/3 48/5/3 47/5/3
f 53/2/3 47/2/3 52/2/3
f 54/3/3 49/3/3 48/3/3
f 54/5/3 48/5/3 53/5/3
f 55/5/3 50/5/3 49/5/3
f 55/3/3 49/3/3 54/3/3
f 56/5/3 50/5/3 55/5/3
f 57/4/4 58/4/4 61/4/4
f 58/5/4 59/5/4 62/5/4
f 61/4/4 58/4/4 62/4/4
f 59/3/4 60/3/4 63/3/4
f 62/5/4 59/5/4 63/5/4
f 63/3/4 60/3/4 64/3/4
f 62/2/4 63/2/4 65/2/4
f 63/2/4 64/2/4 65/2/4
f 64/3/4 60/3/4 66/3/4
f 65/2/4 64/2/4 66/2/4
f 66/3/4 60/3/4 67/3/4
f 67/3/4 60/3/4 68/3/4
f 62/2/4 65/2/4 69/2/4
f 65/5/4 66/5/4 69/5/4
f 66/3/4 67/3/4 70/3/4
f 69/5/4 66/5/4 70/5/4
f 67/5/4 68/5/4 71/5/4
f 70/3/4 67/3/4 71/3/4
f 71/5/4 68/5/4 72/5/4
f 69/2/4 70/2/4 73/2/4
f 62/2/4 69/2/4 73/2/4
f 71/3/4 72/3/4 74/3/4
f 73/2/4 70/2/4 74/2/4
f 70/3/4 71/3/4 74/3/4
f 74/3/4 72/3/4 75/3/4
f 75/3/4 72/3/4 76/3/4
f 62/2/4 73/2/4 77/2/4
f 73/5/4 74/5/4 77/5/4
f 74/3/4 75/3/4 78/3/4
f 77/5/4 74/5/4 78/5/4
f 75/5/4 76/5/4 79/5/4
f 78/3/4 75/3/4 79/3/4
f 79/5/4 76/5/4 80/5/4
f 61/6/4 62/6/4 81/6/4
f 62/2/4 77/2/4 82/2/4
f 81/6/4 62/6/4 82/6/4
f 77/3/4 78/3/4 83/3/4
f 82/2/4 77/2/4 83/2/4
f 78/3/4 79/3/4 83/3/4
f 79/3/4 80/3/4 83/3/4
f 83/3/4 80/3/4 84/3/4
f 84/3/4 80/3/4 85/3/4
f 85/3/4 80/3/4 86/3/4
f 81/1/4 82/1/4 87/1/4
f 82/2/4 83/2/4 88/2/4
f 87/1/4 82/1/4 88/1/4
f 83/5/4 84/5/4 89/5/4
f 88/2/4 83/2/4 89/2/4
f 84/3/4 85/3/4 90/3/4
f 89/5/4 84/5/4 90/5/4
f 85/5/4 86/5/4 91/5/4
f 90/3/4 85/3/4 91/3/4
f 91/5/4 86/5/4 92/5/4
f 97/4/5 94/4/5 93/4/5
f 98/6/5 95/6/5 94/6/5
f 98/4/5 94/4/5 97/4/5
f 99/1/5 96/1/5 95/1/5
f 99/6/5 95/6/5 98/6/5
f 100/1/5 96/1/5 99/1/5
f 101/3/6 102/3/6 108/3/6
f 102/5/6 103/5/6 109/5/6
f 108/3/6 102/3/6 109/3/6
f 103/3/6 104/3/6 110/3/6
f 109/5/6 103/5/6 110/5/6
f 104/5/6 105/5/6 111/5/6
f 110/3/6 104/3/6 111/3/6
f 105/3/6 106/3/6 112/3/6
f 111/5/6 105/5/6 112/5/6
f 106/5/6 107/5/6 113/5/6
f 112/3/6 106/3/6 113/3/6
f 113/5/6 107/5/6 114/5/6
