# MagicaVoxel @ Ephtracy

# group
o 

# material
mtllib toilet.mtl
usemtl palette

# normals
vn -1 0 0
vn 1 0 0
vn 0 0 1
vn 0 0 -1
vn 0 -1 0
vn 0 1 0

# texcoords
vt 0.716797 0.5
vt 0.744141 0.5
vt 0.748047 0.5
vt 0.958984 0.5
vt 0.962891 0.5
vt 0.966797 0.5

# verts
v 6.5 0.5 -3.2
v 6.5 0.5 -3.8
v 6.5 0.6 -3.2
v 6.5 0.6 -3.8
v 6.6 0.4 -3.2
v 6.6 0.4 -3.8
v 6.6 0.5 -3.1
v 6.6 0.5 -3.2
v 6.6 0.5 -3.8
v 6.6 0.5 -3.9
v 6.6 0.6 -3.1
v 6.6 0.6 -3.2
v 6.6 0.6 -3.8
v 6.6 0.6 -3.9
v 6.7 0.1 -3.3
v 6.7 0.1 -3.7
v 6.7 0.4 -3.3
v 6.7 0.4 -3.7
v 7.1 0.4 -3.1
v 7.1 0.4 -3.2
v 7.1 0.4 -3.8
v 7.1 0.4 -3.9
v 7.1 0.5 -3.1
v 7.1 0.5 -3.2
v 7.1 0.5 -3.3
v 7.1 0.5 -3.4
v 7.1 0.5 -3.5
v 7.1 0.5 -3.6
v 7.1 0.5 -3.7
v 7.1 0.5 -3.8
v 7.1 0.5 -3.9
v 7.1 0.6 -3.1
v 7.1 0.6 -3.2
v 7.1 0.6 -3.3
v 7.1 0.6 -3.7
v 7.1 0.6 -3.8
v 7.1 0.6 -3.9
v 7.1 0.7 -3.1
v 7.1 0.7 -3.2
v 7.1 0.7 -3.8
v 7.1 0.7 -3.9
v 7.2 0.6 -3.2
v 7.2 0.6 -3.8
v 7.2 0.7 -3.1
v 7.2 0.7 -3.2
v 7.2 0.7 -3.8
v 7.2 0.7 -3.9
v 7.2 1.2 -3.2
v 7.2 1.2 -3.8
v 7.2 1.3 -3.1
v 7.2 1.3 -3.9
v 7.3 1.3 -3.4
v 7.3 1.3 -3.6
v 7.3 1.4 -3.4
v 7.3 1.4 -3.6
v 6.7 0.5 -3.3
v 6.7 0.5 -3.5
v 6.7 0.5 -3.6
v 6.7 0.5 -3.7
v 6.7 0.6 -3.3
v 6.7 0.6 -3.7
v 7.2 0.4 -3.1
v 7.2 0.4 -3.2
v 7.2 0.4 -3.8
v 7.2 0.4 -3.9
v 7.2 0.5 -3.1
v 7.2 0.5 -3.2
v 7.2 0.5 -3.8
v 7.2 0.5 -3.9
v 7.2 0.6 -3.1
v 7.2 0.6 -3.2
v 7.2 0.6 -3.8
v 7.2 0.6 -3.9
v 7.3 0.1 -3.3
v 7.3 0.1 -3.6
v 7.3 0.1 -3.7
v 7.3 0.4 -3.3
v 7.3 0.4 -3.6
v 7.3 0.4 -3.7
v 7.4 0.4 -3.2
v 7.4 0.4 -3.8
v 7.4 0.5 -3.2
v 7.4 0.5 -3.8
v 7.4 0.6 -3.2
v 7.4 0.6 -3.8
v 7.5 1.3 -3.4
v 7.5 1.3 -3.6
v 7.5 1.4 -3.4
v 7.5 1.4 -3.6
v 7.6 0.6 -3.1
v 7.6 0.6 -3.9
v 7.6 0.7 -3.2
v 7.6 0.7 -3.8
v 7.6 1.3 -3.1
v 7.6 1.3 -3.2
v 7.6 1.3 -3.8
v 7.6 1.3 -3.9
v 6.6 0.5 -3.1
v 6.6 0.6 -3.1
v 7.1 0.4 -3.1
v 7.1 0.5 -3.1
v 7.1 0.6 -3.1
v 7.1 0.7 -3.1
v 7.2 0.4 -3.1
v 7.2 0.5 -3.1
v 7.2 0.6 -3.1
v 7.2 0.7 -3.1
v 7.2 1.3 -3.1
v 7.3 0.7 -3.1
v 7.3 1.2 -3.1
v 7.3 1.3 -3.1
v 7.5 0.6 -3.1
v 7.5 1.2 -3.1
v 7.6 0.6 -3.1
v 7.6 1.3 -3.1
v 6.5 0.5 -3.2
v 6.5 0.6 -3.2
v 6.6 0.4 -3.2
v 6.6 0.5 -3.2
v 6.6 0.6 -3.2
v 7.1 0.4 -3.2
v 7.1 0.5 -3.2
v 7.2 0.4 -3.2
v 7.2 0.5 -3.2
v 7.2 0.6 -3.2
v 7.4 0.4 -3.2
v 7.4 0.5 -3.2
v 7.4 0.6 -3.2
v 6.7 0.1 -3.3
v 6.7 0.4 -3.3
v 7.1 0.4 -3.3
v 7.3 0.1 -3.3
v 7.3 0.4 -3.3
v 7.3 1.3 -3.4
v 7.3 1.4 -3.4
v 7.5 1.3 -3.4
v 7.5 1.4 -3.4
v 6.7 0.5 -3.7
v 6.7 0.6 -3.7
v 6.8 0.5 -3.7
v 6.9 0.5 -3.7
v 7 0.5 -3.7
v 7.1 0.5 -3.7
v 7.1 0.6 -3.7
v 7.1 0.6 -3.8
v 7.1 0.7 -3.8
v 7.2 0.6 -3.8
v 7.2 0.7 -3.8
v 7.1 0.6 -3.2
v 7.1 0.7 -3.2
v 7.2 0.6 -3.2
v 7.2 0.7 -3.2
v 6.7 0.5 -3.3
v 6.7 0.6 -3.3
v 6.8 0.5 -3.3
v 6.9 0.5 -3.3
v 7 0.5 -3.3
v 7.1 0.5 -3.3
v 7.1 0.6 -3.3
v 7.3 1.3 -3.6
v 7.3 1.4 -3.6
v 7.5 1.3 -3.6
v 7.5 1.4 -3.6
v 6.7 0.1 -3.7
v 6.7 0.4 -3.7
v 7.1 0.4 -3.7
v 7.2 0.1 -3.7
v 7.2 0.4 -3.7
v 7.3 0.1 -3.7
v 7.3 0.4 -3.7
v 6.5 0.5 -3.8
v 6.5 0.6 -3.8
v 6.6 0.4 -3.8
v 6.6 0.5 -3.8
v 6.6 0.6 -3.8
v 7.1 0.4 -3.8
v 7.1 0.5 -3.8
v 7.2 0.4 -3.8
v 7.2 0.5 -3.8
v 7.2 0.6 -3.8
v 7.3 0.6 -3.8
v 7.4 0.4 -3.8
v 7.4 0.5 -3.8
v 7.4 0.6 -3.8
v 6.6 0.5 -3.9
v 6.6 0.6 -3.9
v 7.1 0.4 -3.9
v 7.1 0.5 -3.9
v 7.1 0.6 -3.9
v 7.1 0.7 -3.9
v 7.2 0.4 -3.9
v 7.2 0.5 -3.9
v 7.2 0.6 -3.9
v 7.2 0.7 -3.9
v 7.2 1.3 -3.9
v 7.3 0.6 -3.9
v 7.3 1.2 -3.9
v 7.3 1.3 -3.9
v 7.5 0.6 -3.9
v 7.5 1.2 -3.9
v 7.6 0.6 -3.9
v 7.6 1.3 -3.9
v 6.7 0.1 -3.3
v 7.3 0.1 -3.3
v 7.2 0.1 -3.6
v 7.3 0.1 -3.6
v 6.7 0.1 -3.7
v 7.2 0.1 -3.7
v 7.3 0.1 -3.7
v 7.1 0.4 -3.1
v 7.2 0.4 -3.1
v 6.6 0.4 -3.2
v 7.1 0.4 -3.2
v 7.2 0.4 -3.2
v 7.4 0.4 -3.2
v 6.7 0.4 -3.3
v 7.1 0.4 -3.3
v 7.3 0.4 -3.3
v 7.3 0.4 -3.6
v 6.7 0.4 -3.7
v 7.1 0.4 -3.7
v 7.2 0.4 -3.7
v 7.3 0.4 -3.7
v 6.6 0.4 -3.8
v 7.1 0.4 -3.8
v 7.2 0.4 -3.8
v 7.4 0.4 -3.8
v 7.1 0.4 -3.9
v 7.2 0.4 -3.9
v 6.6 0.5 -3.1
v 7.1 0.5 -3.1
v 6.5 0.5 -3.2
v 6.6 0.5 -3.2
v 7.1 0.5 -3.2
v 6.5 0.5 -3.8
v 6.6 0.5 -3.8
v 7.1 0.5 -3.8
v 6.6 0.5 -3.9
v 7.1 0.5 -3.9
v 7.2 0.6 -3.1
v 7.5 0.6 -3.1
v 7.6 0.6 -3.1
v 7.2 0.6 -3.2
v 7.4 0.6 -3.2
v 7.2 0.6 -3.8
v 7.3 0.6 -3.8
v 7.4 0.6 -3.8
v 7.2 0.6 -3.9
v 7.3 0.6 -3.9
v 7.5 0.6 -3.9
v 7.6 0.6 -3.9
v 6.7 0.5 -3.3
v 6.8 0.5 -3.3
v 6.9 0.5 -3.3
v 7 0.5 -3.3
v 7.1 0.5 -3.3
v 6.8 0.5 -3.4
v 6.9 0.5 -3.4
v 7 0.5 -3.4
v 7.1 0.5 -3.4
v 6.7 0.5 -3.5
v 6.8 0.5 -3.5
v 6.9 0.5 -3.5
v 7 0.5 -3.5
v 7.1 0.5 -3.5
v 6.7 0.5 -3.6
v 6.8 0.5 -3.6
v 7 0.5 -3.6
v 7.1 0.5 -3.6
v 6.7 0.5 -3.7
v 6.8 0.5 -3.7
v 6.9 0.5 -3.7
v 7 0.5 -3.7
v 7.1 0.5 -3.7
v 6.6 0.6 -3.1
v 7.1 0.6 -3.1
v 6.5 0.6 -3.2
v 6.6 0.6 -3.2
v 7.1 0.6 -3.2
v 7.2 0.6 -3.2
v 6.7 0.6 -3.3
v 7.1 0.6 -3.3
v 6.7 0.6 -3.7
v 7.1 0.6 -3.7
v 6.5 0.6 -3.8
v 6.6 0.6 -3.8
v 7.1 0.6 -3.8
v 7.2 0.6 -3.8
v 6.6 0.6 -3.9
v 7.1 0.6 -3.9
v 7.1 0.7 -3.1
v 7.2 0.7 -3.1
v 7.1 0.7 -3.2
v 7.2 0.7 -3.2
v 7.1 0.7 -3.8
v 7.2 0.7 -3.8
v 7.1 0.7 -3.9
v 7.2 0.7 -3.9
v 7.2 1.3 -3.1
v 7.3 1.3 -3.1
v 7.6 1.3 -3.1
v 7.3 1.3 -3.2
v 7.6 1.3 -3.2
v 7.3 1.3 -3.4
v 7.5 1.3 -3.4
v 7.3 1.3 -3.6
v 7.5 1.3 -3.6
v 7.3 1.3 -3.8
v 7.6 1.3 -3.8
v 7.2 1.3 -3.9
v 7.3 1.3 -3.9
v 7.6 1.3 -3.9
v 7.3 1.4 -3.4
v 7.5 1.4 -3.4
v 7.3 1.4 -3.6
v 7.5 1.4 -3.6

# faces
f 3/5/1 2/5/1 1/5/1
f 4/5/1 2/5/1 3/5/1
f 8/4/1 6/4/1 5/4/1
f 9/4/1 6/4/1 8/4/1
f 11/5/1 8/5/1 7/5/1
f 12/5/1 8/5/1 11/5/1
f 13/5/1 10/5/1 9/5/1
f 14/5/1 10/5/1 13/5/1
f 17/4/1 16/4/1 15/4/1
f 18/4/1 16/4/1 17/4/1
f 23/6/1 20/6/1 19/6/1
f 24/6/1 20/6/1 23/6/1
f 30/6/1 22/6/1 21/6/1
f 31/6/1 22/6/1 30/6/1
f 34/5/1 29/5/1 28/5/1
f 34/5/1 26/5/1 25/5/1
f 34/5/1 27/5/1 26/5/1
f 34/5/1 28/5/1 27/5/1
f 35/5/1 29/5/1 34/5/1
f 38/5/1 33/5/1 32/5/1
f 39/5/1 33/5/1 38/5/1
f 40/5/1 37/5/1 36/5/1
f 41/5/1 37/5/1 40/5/1
f 45/5/1 43/5/1 42/5/1
f 46/5/1 43/5/1 45/5/1
f 48/5/1 45/5/1 44/5/1
f 48/4/1 46/4/1 45/4/1
f 49/5/1 47/5/1 46/5/1
f 49/4/1 46/4/1 48/4/1
f 50/5/1 48/5/1 44/5/1
f 50/5/1 49/5/1 48/5/1
f 51/5/1 47/5/1 49/5/1
f 51/5/1 49/5/1 50/5/1
f 54/5/1 53/5/1 52/5/1
f 55/5/1 53/5/1 54/5/1
f 56/4/2 57/4/2 60/4/2
f 58/4/2 59/4/2 60/4/2
f 57/4/2 58/4/2 60/4/2
f 60/4/2 59/4/2 61/4/2
f 62/6/2 63/6/2 66/6/2
f 66/6/2 63/6/2 67/6/2
f 64/6/2 65/6/2 68/6/2
f 68/6/2 65/6/2 69/6/2
f 66/4/2 67/4/2 70/4/2
f 70/4/2 67/4/2 71/4/2
f 68/4/2 69/4/2 72/4/2
f 72/4/2 69/4/2 73/4/2
f 74/4/2 75/4/2 77/4/2
f 75/6/2 76/6/2 78/6/2
f 77/4/2 75/4/2 78/4/2
f 78/6/2 76/6/2 79/6/2
f 80/6/2 81/6/2 82/6/2
f 82/6/2 81/6/2 83/6/2
f 82/4/2 83/4/2 84/4/2
f 84/4/2 83/4/2 85/4/2
f 86/5/2 87/5/2 88/5/2
f 88/5/2 87/5/2 89/5/2
f 90/6/2 91/6/2 92/6/2
f 92/6/2 91/6/2 93/6/2
f 90/6/2 92/6/2 94/6/2
f 92/4/2 93/4/2 95/4/2
f 94/6/2 92/6/2 95/6/2
f 93/6/2 91/6/2 96/6/2
f 95/4/2 93/4/2 96/4/2
f 96/6/2 91/6/2 97/6/2
f 101/5/3 99/5/3 98/5/3
f 102/5/3 99/5/3 101/5/3
f 104/6/3 101/6/3 100/6/3
f 105/4/3 102/4/3 101/4/3
f 105/6/3 101/6/3 104/6/3
f 106/5/3 103/5/3 102/5/3
f 106/4/3 102/4/3 105/4/3
f 107/5/3 103/5/3 106/5/3
f 109/5/3 108/5/3 107/5/3
f 109/4/3 107/4/3 106/4/3
f 110/5/3 108/5/3 109/5/3
f 111/5/3 108/5/3 110/5/3
f 112/4/3 109/4/3 106/4/3
f 112/4/3 110/4/3 109/4/3
f 113/6/3 111/6/3 110/6/3
f 113/4/3 110/4/3 112/4/3
f 114/6/3 113/6/3 112/6/3
f 115/6/3 111/6/3 113/6/3
f 115/6/3 113/6/3 114/6/3
f 119/5/3 117/5/3 116/5/3
f 120/5/3 117/5/3 119/5/3
f 121/4/3 119/4/3 118/4/3
f 122/4/3 119/4/3 121/4/3
f 126/6/3 124/6/3 123/6/3
f 127/4/3 125/4/3 124/4/3
f 127/6/3 124/6/3 126/6/3
f 128/4/3 125/4/3 127/4/3
f 131/4/3 130/4/3 129/4/3
f 132/4/3 131/4/3 129/4/3
f 133/4/3 131/4/3 132/4/3
f 136/5/3 135/5/3 134/5/3
f 137/5/3 135/5/3 136/5/3
f 140/4/3 139/4/3 138/4/3
f 141/4/3 139/4/3 140/4/3
f 142/4/3 139/4/3 141/4/3
f 143/4/3 139/4/3 142/4/3
f 144/4/3 139/4/3 143/4/3
f 147/5/3 146/5/3 145/5/3
f 148/5/3 146/5/3 147/5/3
f 149/5/4 150/5/4 151/5/4
f 151/5/4 150/5/4 152/5/4
f 153/4/4 154/4/4 155/4/4
f 155/4/4 154/4/4 156/4/4
f 156/4/4 154/4/4 157/4/4
f 157/4/4 154/4/4 158/4/4
f 158/4/4 154/4/4 159/4/4
f 160/5/4 161/5/4 162/5/4
f 162/5/4 161/5/4 163/5/4
f 164/4/4 165/4/4 166/4/4
f 164/4/4 166/4/4 167/4/4
f 167/4/4 166/4/4 168/4/4
f 167/6/4 168/6/4 169/6/4
f 169/6/4 168/6/4 170/6/4
f 171/5/4 172/5/4 174/5/4
f 174/5/4 172/5/4 175/5/4
f 173/4/4 174/4/4 176/4/4
f 176/4/4 174/4/4 177/4/4
f 179/4/4 180/4/4 181/4/4
f 178/6/4 179/6/4 182/6/4
f 179/4/4 181/4/4 183/4/4
f 182/6/4 179/6/4 183/6/4
f 183/4/4 181/4/4 184/4/4
f 185/5/4 186/5/4 188/5/4
f 188/5/4 186/5/4 189/5/4
f 187/6/4 188/6/4 191/6/4
f 188/4/4 189/4/4 192/4/4
f 191/6/4 188/6/4 192/6/4
f 189/5/4 190/5/4 193/5/4
f 192/4/4 189/4/4 193/4/4
f 193/5/4 190/5/4 194/5/4
f 194/5/4 195/5/4 196/5/4
f 193/5/4 194/5/4 196/5/4
f 196/5/4 195/5/4 197/5/4
f 197/5/4 195/5/4 198/5/4
f 196/4/4 197/4/4 199/4/4
f 197/6/4 198/6/4 200/6/4
f 199/4/4 197/4/4 200/4/4
f 199/6/4 200/6/4 201/6/4
f 200/6/4 198/6/4 202/6/4
f 201/6/4 200/6/4 202/6/4
f 205/4/5 204/4/5 203/4/5
f 206/4/5 204/4/5 205/4/5
f 207/4/5 205/4/5 203/4/5
f 208/6/5 206/6/5 205/6/5
f 208/4/5 205/4/5 207/4/5
f 209/6/5 206/6/5 208/6/5
f 213/6/5 211/6/5 210/6/5
f 214/6/5 211/6/5 213/6/5
f 216/4/5 213/4/5 212/4/5
f 217/6/5 215/6/5 214/6/5
f 217/4/5 213/4/5 216/4/5
f 217/6/5 214/6/5 213/6/5
f 218/6/5 215/6/5 217/6/5
f 219/6/5 215/6/5 218/6/5
f 220/4/5 216/4/5 212/4/5
f 223/6/5 215/6/5 219/6/5
f 224/4/5 220/4/5 212/4/5
f 224/4/5 221/4/5 220/4/5
f 225/6/5 222/6/5 221/6/5
f 225/4/5 221/4/5 224/4/5
f 225/6/5 223/6/5 222/6/5
f 226/6/5 223/6/5 225/6/5
f 227/6/5 215/6/5 223/6/5
f 227/6/5 223/6/5 226/6/5
f 228/6/5 226/6/5 225/6/5
f 229/6/5 226/6/5 228/6/5
f 233/5/5 231/5/5 230/5/5
f 234/5/5 231/5/5 233/5/5
f 235/5/5 233/5/5 232/5/5
f 236/5/5 233/5/5 235/5/5
f 238/5/5 237/5/5 236/5/5
f 239/5/5 237/5/5 238/5/5
f 243/4/5 241/4/5 240/4/5
f 244/4/5 241/4/5 243/4/5
f 247/4/5 241/4/5 244/4/5
f 248/5/5 246/5/5 245/5/5
f 249/4/5 247/4/5 246/4/5
f 249/5/5 246/5/5 248/5/5
f 250/6/5 242/6/5 241/6/5
f 250/4/5 247/4/5 249/4/5
f 250/4/5 241/4/5 247/4/5
f 251/6/5 242/6/5 250/6/5
f 252/3/6 253/3/6 257/3/6
f 253/2/6 254/2/6 257/2/6
f 254/1/6 255/1/6 258/1/6
f 257/2/6 254/2/6 258/2/6
f 255/3/6 256/3/6 259/3/6
f 258/1/6 255/1/6 259/1/6
f 259/3/6 256/3/6 260/3/6
f 252/3/6 257/3/6 261/3/6
f 257/1/6 258/1/6 262/1/6
f 261/3/6 257/3/6 262/3/6
f 258/1/6 259/1/6 262/1/6
f 262/1/6 259/1/6 263/1/6
f 259/2/6 260/2/6 264/2/6
f 263/1/6 259/1/6 264/1/6
f 264/2/6 260/2/6 265/2/6
f 261/2/6 262/2/6 266/2/6
f 262/1/6 263/1/6 267/1/6
f 266/2/6 262/2/6 267/2/6
f 263/3/6 264/3/6 268/3/6
f 264/1/6 265/1/6 268/1/6
f 268/1/6 265/1/6 269/1/6
f 266/3/6 267/3/6 270/3/6
f 267/1/6 263/1/6 271/1/6
f 270/3/6 267/3/6 271/3/6
f 263/3/6 268/3/6 272/3/6
f 271/1/6 263/1/6 272/1/6
f 268/2/6 269/2/6 273/2/6
f 272/3/6 268/3/6 273/3/6
f 273/2/6 269/2/6 274/2/6
f 275/5/6 276/5/6 278/5/6
f 278/5/6 276/5/6 279/5/6
f 278/4/6 279/4/6 281/4/6
f 279/5/6 280/5/6 282/5/6
f 281/4/6 279/4/6 282/4/6
f 278/4/6 281/4/6 283/4/6
f 282/5/6 280/5/6 284/5/6
f 277/5/6 278/5/6 285/5/6
f 283/4/6 284/4/6 286/4/6
f 285/5/6 278/5/6 286/5/6
f 278/4/6 283/4/6 286/4/6
f 284/5/6 280/5/6 287/5/6
f 286/4/6 284/4/6 287/4/6
f 287/5/6 280/5/6 288/5/6
f 286/5/6 287/5/6 289/5/6
f 289/5/6 287/5/6 290/5/6
f 291/5/6 292/5/6 293/5/6
f 293/5/6 292/5/6 294/5/6
f 295/5/6 296/5/6 297/5/6
f 297/5/6 296/5/6 298/5/6
f 299/5/6 300/5/6 302/5/6
f 300/6/6 301/6/6 302/6/6
f 302/6/6 301/6/6 303/6/6
f 299/5/6 302/5/6 304/5/6
f 302/4/6 303/4/6 304/4/6
f 304/4/6 303/4/6 305/4/6
f 299/5/6 304/5/6 306/5/6
f 305/4/6 303/4/6 307/4/6
f 299/5/6 306/5/6 308/5/6
f 306/4/6 307/4/6 308/4/6
f 307/4/6 303/4/6 309/4/6
f 308/4/6 307/4/6 309/4/6
f 299/5/6 308/5/6 310/5/6
f 308/6/6 309/6/6 311/6/6
f 310/5/6 308/5/6 311/5/6
f 311/6/6 309/6/6 312/6/6
f 313/5/6 314/5/6 315/5/6
f 315/5/6 314/5/6 316/5/6
