# MagicaVoxel @ Ephtracy

# group
o 

# material
mtllib wall_base_door-door.mtl
usemtl palette

# normals
vn 0 0 -1
vn 0 0 1
vn -1 0 0
vn 1 0 0
vn 0 -1 0
vn 0 1 0

# texcoords
vt 0.224609 0.5
vt 0.251953 0.5
vt 0.310547 0.5
vt 0.689453 0.5
vt 0.724609 0.5
vt 0.748047 0.5
vt 0.916016 0.5
vt 0.994141 0.5

# verts
v 8.4 0.1 -13.1
v 8.7 0.1 -13.1
v 8.4 2.1 -13.1
v 8.7 2.1 -13.1
v 8.4 0.7 -12.6
v 8.5 0.7 -12.6
v 8.6 0.7 -12.6
v 8.7 0.7 -12.6
v 8.4 0.8 -12.6
v 8.5 0.8 -12.6
v 8.6 0.8 -12.6
v 8.7 0.8 -12.6
v 8.4 0.1 -12
v 8.5 0.1 -12
v 8.6 0.1 -12
v 8.7 0.1 -12
v 8.5 0.2 -12
v 8.6 0.2 -12
v 8.5 0.5 -12
v 8.6 0.5 -12
v 8.5 0.6 -12
v 8.6 0.6 -12
v 8.5 0.9 -12
v 8.6 0.9 -12
v 8.5 1 -12
v 8.6 1 -12
v 8.5 1.9 -12
v 8.6 1.9 -12
v 8.4 2 -12
v 8.5 2 -12
v 8.6 2 -12
v 8.7 2 -12
v 8.4 0.1 -13
v 8.5 0.1 -13
v 8.6 0.1 -13
v 8.7 0.1 -13
v 8.4 2 -13
v 8.5 2 -13
v 8.6 2 -13
v 8.7 2 -13
v 8.4 0.7 -12.1
v 8.5 0.7 -12.1
v 8.6 0.7 -12.1
v 8.7 0.7 -12.1
v 8.4 0.8 -12.1
v 8.5 0.8 -12.1
v 8.6 0.8 -12.1
v 8.7 0.8 -12.1
v 8.4 0.1 -11.9
v 8.7 0.1 -11.9
v 8.4 2.1 -11.9
v 8.7 2.1 -11.9
v 8.4 0.1 -13.1
v 8.4 2.1 -13.1
v 8.4 0.1 -13
v 8.4 2 -13
v 8.4 0.7 -12.6
v 8.4 0.8 -12.6
v 8.4 0.7 -12.1
v 8.4 0.8 -12.1
v 8.4 0.1 -12
v 8.4 2 -12
v 8.4 0.1 -11.9
v 8.4 2.1 -11.9
v 8.5 0.1 -13
v 8.5 2 -13
v 8.5 0.1 -12.9
v 8.5 0.2 -12.9
v 8.5 1.9 -12.9
v 8.5 0.6 -12.6
v 8.5 0.7 -12.6
v 8.5 0.8 -12.6
v 8.5 0.8 -12.5
v 8.5 0.9 -12.5
v 8.5 1.3 -12.5
v 8.5 1.4 -12.5
v 8.5 1.5 -12.5
v 8.5 1.6 -12.5
v 8.5 1.7 -12.5
v 8.5 1.2 -12.4
v 8.5 1.3 -12.4
v 8.5 1.4 -12.4
v 8.5 1.2 -12.3
v 8.5 1.3 -12.3
v 8.5 0.5 -12.2
v 8.5 0.6 -12.2
v 8.5 0.7 -12.2
v 8.5 0.8 -12.2
v 8.5 0.9 -12.2
v 8.5 1 -12.2
v 8.5 1.5 -12.2
v 8.5 1.6 -12.2
v 8.5 1.7 -12.2
v 8.5 0.7 -12.1
v 8.5 0.8 -12.1
v 8.5 0.1 -12
v 8.5 0.2 -12
v 8.5 0.5 -12
v 8.5 0.6 -12
v 8.5 0.9 -12
v 8.5 1 -12
v 8.5 1.9 -12
v 8.5 2 -12
v 8.6 0.1 -13
v 8.6 2 -13
v 8.6 0.1 -12.9
v 8.6 0.2 -12.9
v 8.6 1.9 -12.9
v 8.6 0.6 -12.6
v 8.6 0.7 -12.6
v 8.6 0.8 -12.6
v 8.6 0.8 -12.5
v 8.6 0.9 -12.5
v 8.6 1.3 -12.5
v 8.6 1.4 -12.5
v 8.6 1.5 -12.5
v 8.6 1.6 -12.5
v 8.6 1.7 -12.5
v 8.6 1.2 -12.4
v 8.6 1.3 -12.4
v 8.6 1.4 -12.4
v 8.6 1.2 -12.3
v 8.6 1.3 -12.3
v 8.6 0.5 -12.2
v 8.6 0.6 -12.2
v 8.6 0.7 -12.2
v 8.6 0.8 -12.2
v 8.6 0.9 -12.2
v 8.6 1 -12.2
v 8.6 1.5 -12.2
v 8.6 1.6 -12.2
v 8.6 1.7 -12.2
v 8.6 0.7 -12.1
v 8.6 0.8 -12.1
v 8.6 0.1 -12
v 8.6 0.2 -12
v 8.6 0.5 -12
v 8.6 0.6 -12
v 8.6 0.9 -12
v 8.6 1 -12
v 8.6 1.9 -12
v 8.6 2 -12
v 8.7 0.1 -13.1
v 8.7 2.1 -13.1
v 8.7 0.1 -13
v 8.7 2 -13
v 8.7 0.7 -12.6
v 8.7 0.8 -12.6
v 8.7 0.7 -12.1
v 8.7 0.8 -12.1
v 8.7 0.1 -12
v 8.7 2 -12
v 8.7 0.1 -11.9
v 8.7 2.1 -11.9
v 8.4 0.1 -13.1
v 8.4 0.1 -13
v 8.4 0.1 -12
v 8.4 0.1 -11.9
v 8.5 0.1 -13
v 8.5 0.1 -12.9
v 8.5 0.1 -12
v 8.6 0.1 -13
v 8.6 0.1 -12.9
v 8.6 0.1 -12
v 8.7 0.1 -13.1
v 8.7 0.1 -13
v 8.7 0.1 -12
v 8.7 0.1 -11.9
v 8.4 0.7 -12.6
v 8.4 0.7 -12.1
v 8.5 0.7 -12.6
v 8.5 0.7 -12.2
v 8.5 0.7 -12.1
v 8.6 0.7 -12.6
v 8.6 0.7 -12.2
v 8.6 0.7 -12.1
v 8.7 0.7 -12.6
v 8.7 0.7 -12.1
v 8.4 2 -13
v 8.4 2 -12
v 8.5 2 -13
v 8.5 2 -12
v 8.6 2 -13
v 8.6 2 -12
v 8.7 2 -13
v 8.7 2 -12
v 8.4 0.8 -12.6
v 8.4 0.8 -12.1
v 8.5 0.8 -12.6
v 8.5 0.8 -12.5
v 8.5 0.8 -12.2
v 8.5 0.8 -12.1
v 8.6 0.8 -12.6
v 8.6 0.8 -12.5
v 8.6 0.8 -12.2
v 8.6 0.8 -12.1
v 8.7 0.8 -12.6
v 8.7 0.8 -12.1
v 8.4 2.1 -13.1
v 8.4 2.1 -11.9
v 8.7 2.1 -13.1
v 8.7 2.1 -11.9

# faces
f 3/8/1 2/8/1 1/8/1
f 4/8/1 2/8/1 3/8/1
f 9/8/1 6/8/1 5/8/1
f 10/8/1 6/8/1 9/8/1
f 11/8/1 8/8/1 7/8/1
f 12/8/1 8/8/1 11/8/1
f 17/8/1 14/8/1 13/8/1
f 18/8/1 16/8/1 15/8/1
f 19/8/1 17/8/1 13/8/1
f 20/8/1 16/8/1 18/8/1
f 21/8/1 19/8/1 13/8/1
f 22/8/1 16/8/1 20/8/1
f 23/8/1 21/8/1 13/8/1
f 24/8/1 16/8/1 22/8/1
f 25/8/1 23/8/1 13/8/1
f 26/8/1 16/8/1 24/8/1
f 27/8/1 25/8/1 13/8/1
f 28/8/1 16/8/1 26/8/1
f 29/8/1 27/8/1 13/8/1
f 30/8/1 27/8/1 29/8/1
f 31/8/1 16/8/1 28/8/1
f 32/8/1 16/8/1 31/8/1
f 33/8/2 34/8/2 37/8/2
f 37/8/2 34/8/2 38/8/2
f 35/8/2 36/8/2 39/8/2
f 39/8/2 36/8/2 40/8/2
f 41/8/2 42/8/2 45/8/2
f 45/8/2 42/8/2 46/8/2
f 43/8/2 44/8/2 47/8/2
f 47/8/2 44/8/2 48/8/2
f 49/8/2 50/8/2 51/8/2
f 51/8/2 50/8/2 52/8/2
f 55/8/3 54/8/3 53/8/3
f 56/8/3 54/8/3 55/8/3
f 59/8/3 58/8/3 57/8/3
f 60/8/3 58/8/3 59/8/3
f 62/8/3 54/8/3 56/8/3
f 63/8/3 62/8/3 61/8/3
f 64/8/3 54/8/3 62/8/3
f 64/8/3 62/8/3 63/8/3
f 67/3/3 66/3/3 65/3/3
f 68/3/3 66/3/3 67/3/3
f 69/3/3 66/3/3 68/3/3
f 70/1/3 69/1/3 68/1/3
f 71/1/3 69/1/3 70/1/3
f 72/1/3 69/1/3 71/1/3
f 73/1/3 69/1/3 72/1/3
f 74/1/3 69/1/3 73/1/3
f 75/1/3 69/1/3 74/1/3
f 76/1/3 69/1/3 75/1/3
f 77/1/3 69/1/3 76/1/3
f 78/1/3 69/1/3 77/1/3
f 79/1/3 69/1/3 78/1/3
f 80/4/3 75/4/3 74/4/3
f 81/7/3 76/7/3 75/7/3
f 81/4/3 75/4/3 80/4/3
f 82/4/3 77/4/3 76/4/3
f 82/7/3 76/7/3 81/7/3
f 83/4/3 80/4/3 74/4/3
f 83/7/3 81/7/3 80/7/3
f 84/4/3 82/4/3 81/4/3
f 84/7/3 81/7/3 83/7/3
f 85/1/3 70/1/3 68/1/3
f 86/3/3 71/3/3 70/3/3
f 86/1/3 70/1/3 85/1/3
f 87/3/3 71/3/3 86/3/3
f 88/5/3 74/5/3 73/5/3
f 89/4/3 83/4/3 74/4/3
f 89/5/3 74/5/3 88/5/3
f 89/4/3 84/4/3 83/4/3
f 90/4/3 84/4/3 89/4/3
f 91/4/3 82/4/3 84/4/3
f 91/4/3 84/4/3 90/4/3
f 91/4/3 77/4/3 82/4/3
f 91/6/3 78/6/3 77/6/3
f 92/5/3 79/5/3 78/5/3
f 92/6/3 78/6/3 91/6/3
f 93/1/3 69/1/3 79/1/3
f 93/5/3 79/5/3 92/5/3
f 94/8/3 87/8/3 86/8/3
f 95/8/3 89/8/3 88/8/3
f 96/2/3 68/2/3 67/2/3
f 97/1/3 85/1/3 68/1/3
f 97/2/3 68/2/3 96/2/3
f 98/3/3 86/3/3 85/3/3
f 98/1/3 85/1/3 97/1/3
f 99/8/3 95/8/3 94/8/3
f 99/3/3 86/3/3 98/3/3
f 99/8/3 94/8/3 86/8/3
f 100/2/3 90/2/3 89/2/3
f 100/8/3 95/8/3 99/8/3
f 100/8/3 89/8/3 95/8/3
f 101/1/3 92/1/3 91/1/3
f 101/2/3 90/2/3 100/2/3
f 101/1/3 91/1/3 90/1/3
f 101/1/3 93/1/3 92/1/3
f 102/3/3 66/3/3 69/3/3
f 102/1/3 93/1/3 101/1/3
f 102/1/3 69/1/3 93/1/3
f 103/3/3 66/3/3 102/3/3
f 104/3/4 105/3/4 106/3/4
f 106/3/4 105/3/4 107/3/4
f 107/3/4 105/3/4 108/3/4
f 107/1/4 108/1/4 109/1/4
f 109/1/4 108/1/4 110/1/4
f 110/1/4 108/1/4 111/1/4
f 111/1/4 108/1/4 112/1/4
f 112/1/4 108/1/4 113/1/4
f 113/1/4 108/1/4 114/1/4
f 114/1/4 108/1/4 115/1/4
f 115/1/4 108/1/4 116/1/4
f 116/1/4 108/1/4 117/1/4
f 117/1/4 108/1/4 118/1/4
f 113/4/4 114/4/4 119/4/4
f 114/7/4 115/7/4 120/7/4
f 119/4/4 114/4/4 120/4/4
f 115/4/4 116/4/4 121/4/4
f 120/7/4 115/7/4 121/7/4
f 113/4/4 119/4/4 122/4/4
f 119/7/4 120/7/4 122/7/4
f 120/4/4 121/4/4 123/4/4
f 122/7/4 120/7/4 123/7/4
f 107/1/4 109/1/4 124/1/4
f 109/3/4 110/3/4 125/3/4
f 124/1/4 109/1/4 125/1/4
f 125/3/4 110/3/4 126/3/4
f 112/5/4 113/5/4 127/5/4
f 113/4/4 122/4/4 128/4/4
f 127/5/4 113/5/4 128/5/4
f 122/4/4 123/4/4 128/4/4
f 128/4/4 123/4/4 129/4/4
f 123/4/4 121/4/4 130/4/4
f 129/4/4 123/4/4 130/4/4
f 121/4/4 116/4/4 130/4/4
f 116/6/4 117/6/4 130/6/4
f 117/5/4 118/5/4 131/5/4
f 130/6/4 117/6/4 131/6/4
f 118/1/4 108/1/4 132/1/4
f 131/5/4 118/5/4 132/5/4
f 125/8/4 126/8/4 133/8/4
f 127/8/4 128/8/4 134/8/4
f 106/2/4 107/2/4 135/2/4
f 107/1/4 124/1/4 136/1/4
f 135/2/4 107/2/4 136/2/4
f 124/3/4 125/3/4 137/3/4
f 136/1/4 124/1/4 137/1/4
f 133/8/4 134/8/4 138/8/4
f 137/3/4 125/3/4 138/3/4
f 125/8/4 133/8/4 138/8/4
f 128/2/4 129/2/4 139/2/4
f 138/8/4 134/8/4 139/8/4
f 134/8/4 128/8/4 139/8/4
f 130/1/4 131/1/4 140/1/4
f 139/2/4 129/2/4 140/2/4
f 129/1/4 130/1/4 140/1/4
f 131/1/4 132/1/4 140/1/4
f 108/3/4 105/3/4 141/3/4
f 140/1/4 132/1/4 141/1/4
f 132/1/4 108/1/4 141/1/4
f 141/3/4 105/3/4 142/3/4
f 143/8/4 144/8/4 145/8/4
f 145/8/4 144/8/4 146/8/4
f 147/8/4 148/8/4 149/8/4
f 149/8/4 148/8/4 150/8/4
f 146/8/4 144/8/4 152/8/4
f 151/8/4 152/8/4 153/8/4
f 152/8/4 144/8/4 154/8/4
f 153/8/4 152/8/4 154/8/4
f 159/8/5 156/8/5 155/8/5
f 161/8/5 158/8/5 157/8/5
f 162/3/5 160/3/5 159/3/5
f 162/8/5 159/8/5 155/8/5
f 163/2/5 161/2/5 160/2/5
f 163/3/5 160/3/5 162/3/5
f 164/8/5 158/8/5 161/8/5
f 164/2/5 161/2/5 163/2/5
f 165/8/5 162/8/5 155/8/5
f 166/8/5 162/8/5 165/8/5
f 167/8/5 158/8/5 164/8/5
f 168/8/5 158/8/5 167/8/5
f 171/8/5 170/8/5 169/8/5
f 172/8/5 170/8/5 171/8/5
f 173/8/5 170/8/5 172/8/5
f 177/8/5 175/8/5 174/8/5
f 177/8/5 176/8/5 175/8/5
f 178/8/5 176/8/5 177/8/5
f 181/8/5 180/8/5 179/8/5
f 182/8/5 180/8/5 181/8/5
f 185/8/5 184/8/5 183/8/5
f 186/8/5 184/8/5 185/8/5
f 187/8/6 188/8/6 189/8/6
f 189/8/6 188/8/6 190/8/6
f 190/8/6 188/8/6 191/8/6
f 191/8/6 188/8/6 192/8/6
f 193/8/6 194/8/6 197/8/6
f 195/8/6 196/8/6 197/8/6
f 194/8/6 195/8/6 197/8/6
f 197/8/6 196/8/6 198/8/6
f 199/8/6 200/8/6 201/8/6
f 201/8/6 200/8/6 202/8/6
