# Blender 3.5.1
# www.blender.org
mtllib toilet-0.mtl
o Untitled
v 1.400000 1.000000 1.399997
v 1.400000 1.000000 -1.400003
v 1.400000 2.000000 1.399997
v 1.400000 2.000000 0.999997
v 1.400000 2.200000 1.299997
v 1.400000 2.200000 1.099996
v 1.400000 2.300000 1.299997
v 1.400000 2.300000 1.099996
v 1.400000 2.400000 1.299997
v 1.400000 2.400000 1.099996
v 1.400000 2.500000 1.399997
v 1.400000 2.500000 0.999997
v 1.400000 4.000000 1.399997
v 1.400000 4.000000 -1.400004
v 1.500000 1.000000 1.399997
v 1.500000 1.000000 -1.400003
v 1.500000 2.000000 1.399997
v 1.500000 2.000000 0.999997
v 1.500000 2.200000 1.299997
v 1.500000 2.200000 1.099996
v 1.500000 2.300000 1.299997
v 1.500000 2.300000 1.099996
v 1.500000 2.400000 1.299997
v 1.500000 2.400000 1.099996
v 1.500000 2.500000 1.399997
v 1.500000 2.500000 0.999997
v 1.500000 4.000000 1.399997
v 1.500000 4.000000 -1.400004
v 1.400000 1.000000 1.399997
v 1.400000 2.000000 1.399997
v 1.400000 2.500000 1.399997
v 1.400000 4.000000 1.399997
v 1.500000 1.000000 1.399997
v 1.500000 2.000000 1.399997
v 1.500000 2.500000 1.399997
v 1.500000 4.000000 1.399997
v 1.400000 1.000000 -1.400003
v 1.400000 4.000000 -1.400004
v 1.500000 1.000000 -1.400003
v 1.500000 4.000000 -1.400004
v 1.400000 1.000000 1.399997
v 1.500000 1.000000 1.399997
v 1.400000 1.000000 -1.400003
v 1.500000 1.000000 -1.400003
v 1.400000 4.000000 1.399997
v 1.500000 4.000000 1.399997
v 1.400000 4.000000 -1.400004
v 1.500000 4.000000 -1.400004
vn -1.0000 -0.0000 -0.0000
vn 1.0000 -0.0000 -0.0000
vn -0.0000 -0.0000 1.0000
vn -0.0000 -0.0000 -1.0000
vn -0.0000 -1.0000 -0.0000
vn -0.0000 1.0000 -0.0000
vt 0.615234 0.500000
vt 0.615234 0.500000
vt 0.615234 0.500000
vt 0.982422 0.500000
vt 0.615234 0.500000
vt 0.982422 0.500000
vt 0.982422 0.500000
vt 0.990234 0.500000
vt 0.982422 0.500000
vt 0.990234 0.500000
vt 0.990234 0.500000
vt 0.982422 0.500000
vt 0.853516 0.500000
vt 0.990234 0.500000
vt 0.982422 0.500000
vt 0.853516 0.500000
vt 0.853516 0.500000
vt 0.982422 0.500000
vt 0.853516 0.500000
vt 0.982422 0.500000
vt 0.982422 0.500000
vt 0.615234 0.500000
vt 0.982422 0.500000
vt 0.615234 0.500000
vt 0.615234 0.500000
vt 0.615234 0.500000
vt 0.615234 0.500000
vt 0.615234 0.500000
vt 0.615234 0.500000
vt 0.982422 0.500000
vt 0.615234 0.500000
vt 0.982422 0.500000
vt 0.982422 0.500000
vt 0.990234 0.500000
vt 0.982422 0.500000
vt 0.990234 0.500000
vt 0.990234 0.500000
vt 0.982422 0.500000
vt 0.853516 0.500000
vt 0.990234 0.500000
vt 0.982422 0.500000
vt 0.853516 0.500000
vt 0.853516 0.500000
vt 0.982422 0.500000
vt 0.853516 0.500000
vt 0.982422 0.500000
vt 0.982422 0.500000
vt 0.615234 0.500000
vt 0.982422 0.500000
vt 0.615234 0.500000
vt 0.615234 0.500000
vt 0.615234 0.500000
vt 0.615234 0.500000
vt 0.982422 0.500000
vt 0.615234 0.500000
vt 0.615234 0.500000
vt 0.982422 0.500000
vt 0.615234 0.500000
vt 0.615234 0.500000
vt 0.615234 0.500000
vt 0.982422 0.500000
vt 0.982422 0.500000
vt 0.615234 0.500000
vt 0.615234 0.500000
vt 0.615234 0.500000
vt 0.615234 0.500000
vt 0.615234 0.500000
vt 0.615234 0.500000
vt 0.615234 0.500000
vt 0.615234 0.500000
vt 0.615234 0.500000
vt 0.615234 0.500000
vt 0.615234 0.500000
vt 0.615234 0.500000
vt 0.615234 0.500000
vt 0.615234 0.500000
s 0
usemtl palette.002
f 3/3/1 2/2/1 1/1/1
f 4/5/1 2/2/1 3/3/1
f 5/7/1 4/6/1 3/4/1
f 6/9/1 4/6/1 5/7/1
f 7/12/1 5/7/1 3/4/1
f 7/11/1 6/10/1 5/8/1
f 8/15/1 4/6/1 6/9/1
f 8/14/1 6/10/1 7/11/1
f 9/18/1 7/12/1 3/4/1
f 9/17/1 8/16/1 7/13/1
f 10/20/1 4/6/1 8/15/1
f 10/19/1 8/16/1 9/17/1
f 11/21/1 9/18/1 3/4/1
f 11/21/1 10/20/1 9/18/1
f 12/24/1 2/2/1 4/5/1
f 12/23/1 10/20/1 11/21/1
f 12/23/1 4/6/1 10/20/1
f 13/25/1 12/24/1 11/22/1
f 14/26/1 2/2/1 12/24/1
f 14/26/1 12/24/1 13/25/1
f 15/27/2 16/28/2 17/29/2
f 17/29/2 16/28/2 18/31/2
f 17/30/2 18/32/2 19/33/2
f 19/33/2 18/32/2 20/35/2
f 17/30/2 19/33/2 21/38/2
f 19/34/2 20/36/2 21/37/2
f 20/35/2 18/32/2 22/41/2
f 21/37/2 20/36/2 22/40/2
f 17/30/2 21/38/2 23/44/2
f 21/39/2 22/42/2 23/43/2
f 22/41/2 18/32/2 24/46/2
f 23/43/2 22/42/2 24/45/2
f 17/30/2 23/44/2 25/47/2
f 23/44/2 24/46/2 25/47/2
f 18/31/2 16/28/2 26/50/2
f 25/47/2 24/46/2 26/49/2
f 24/46/2 18/32/2 26/49/2
f 25/48/2 26/50/2 27/51/2
f 26/50/2 16/28/2 28/52/2
f 27/51/2 26/50/2 28/52/2
f 33/59/3 30/55/3 29/53/3
f 34/61/3 31/57/3 30/54/3
f 34/60/3 30/55/3 33/59/3
f 35/63/3 32/58/3 31/56/3
f 35/62/3 31/57/3 34/61/3
f 36/64/3 32/58/3 35/63/3
f 37/65/4 38/66/4 39/67/4
f 39/67/4 38/66/4 40/68/4
f 43/71/5 42/70/5 41/69/5
f 44/72/5 42/70/5 43/71/5
f 45/73/6 46/74/6 47/75/6
f 47/75/6 46/74/6 48/76/6
