# MagicaVoxel @ Ephtracy

# group
o 

# material
mtllib chair.mtl
usemtl palette

# normals
vn -1 0 0
vn 1 0 0
vn 0 0 1
vn 0 0 -1
vn 0 -1 0
vn 0 1 0

# texcoords
vt 0.955078 0.5
vt 0.962891 0.5
vt 0.994141 0.5

# verts
v 2.8 0.6 4.7
v 2.8 0.6 4.6
v 2.8 0.8 5
v 2.8 0.8 4.7
v 2.8 0.8 4.6
v 2.8 0.8 4.3
v 2.8 1.4 5
v 2.8 1.4 4.3
v 2.9 0.5 4.7
v 2.9 0.5 4.6
v 2.9 0.6 4.8
v 2.9 0.6 4.7
v 2.9 0.6 4.6
v 2.9 0.6 4.5
v 2.9 0.8 5.1
v 2.9 0.8 5
v 2.9 0.8 4.8
v 2.9 0.8 4.7
v 2.9 0.8 4.6
v 2.9 0.8 4.5
v 2.9 0.8 4.3
v 2.9 0.8 4.2
v 2.9 1.4 5.1
v 2.9 1.4 5
v 2.9 1.4 4.3
v 2.9 1.4 4.2
v 2.9 1.5 5
v 2.9 1.5 4.3
v 3 0.1 4.7
v 3 0.1 4.6
v 3 0.2 4.7
v 3 0.2 4.6
v 3 0.3 4.7
v 3 0.3 4.6
v 3 0.5 5
v 3 0.5 4.7
v 3 0.5 4.6
v 3 0.5 4.3
v 3 0.6 4.8
v 3 0.6 4.7
v 3 0.6 4.6
v 3 0.6 4.5
v 3 0.7 5
v 3 0.7 4.8
v 3 0.7 4.5
v 3 0.7 4.3
v 3.1 0.3 4.7
v 3.1 0.3 4.6
v 3.1 0.4 4.7
v 3.1 0.4 4.6
v 3.1 0.6 5.1
v 3.1 0.6 5
v 3.1 0.6 4.3
v 3.1 0.6 4.2
v 3.1 0.7 5.1
v 3.1 0.7 5
v 3.1 0.7 4.3
v 3.1 0.7 4.2
v 3.3 0.1 5
v 3.3 0.1 4.9
v 3.3 0.1 4.4
v 3.3 0.1 4.3
v 3.3 0.2 5
v 3.3 0.2 4.9
v 3.3 0.2 4.4
v 3.3 0.2 4.3
v 3.3 0.3 5
v 3.3 0.3 4.9
v 3.3 0.3 4.7
v 3.3 0.3 4.6
v 3.3 0.3 4.4
v 3.3 0.3 4.3
v 3.3 0.4 4.9
v 3.3 0.4 4.7
v 3.3 0.4 4.6
v 3.3 0.4 4.4
v 3.3 0.5 4.7
v 3.3 0.5 4.6
v 3.6 0.1 4.7
v 3.6 0.1 4.6
v 3.6 0.2 4.7
v 3.6 0.2 4.6
v 3.6 0.3 4.7
v 3.6 0.3 4.6
v 3 0.7 4.8
v 3 0.7 4.5
v 3 0.8 5.1
v 3 0.8 5
v 3 0.8 4.8
v 3 0.8 4.5
v 3 0.8 4.3
v 3 0.8 4.2
v 3 1.4 5.1
v 3 1.4 5
v 3 1.4 4.9
v 3 1.4 4.4
v 3 1.4 4.3
v 3 1.4 4.2
v 3 1.5 5
v 3 1.5 4.9
v 3 1.5 4.4
v 3 1.5 4.3
v 3.1 0.1 4.7
v 3.1 0.1 4.6
v 3.1 0.2 4.7
v 3.1 0.2 4.6
v 3.1 0.3 4.7
v 3.1 0.3 4.6
v 3.1 0.8 5
v 3.1 0.8 4.3
v 3.1 1.4 5
v 3.1 1.4 4.9
v 3.1 1.4 4.4
v 3.1 1.4 4.3
v 3.1 1.5 4.9
v 3.1 1.5 4.4
v 3.4 0.1 5
v 3.4 0.1 4.9
v 3.4 0.1 4.4
v 3.4 0.1 4.3
v 3.4 0.2 5
v 3.4 0.2 4.9
v 3.4 0.2 4.4
v 3.4 0.2 4.3
v 3.4 0.3 5
v 3.4 0.3 4.9
v 3.4 0.3 4.7
v 3.4 0.3 4.6
v 3.4 0.3 4.4
v 3.4 0.3 4.3
v 3.4 0.4 4.9
v 3.4 0.4 4.7
v 3.4 0.4 4.6
v 3.4 0.4 4.4
v 3.4 0.5 4.7
v 3.4 0.5 4.6
v 3.6 0.3 4.7
v 3.6 0.3 4.6
v 3.6 0.4 4.7
v 3.6 0.4 4.6
v 3.6 0.5 5
v 3.6 0.5 4.3
v 3.6 0.6 5.1
v 3.6 0.6 5
v 3.6 0.6 4.3
v 3.6 0.6 4.2
v 3.6 0.7 5.1
v 3.6 0.7 5
v 3.6 0.7 4.3
v 3.6 0.7 4.2
v 3.7 0.1 4.7
v 3.7 0.1 4.6
v 3.7 0.2 4.7
v 3.7 0.2 4.6
v 3.7 0.3 4.7
v 3.7 0.3 4.6
v 3.7 0.6 5
v 3.7 0.6 4.3
v 3.7 0.7 5
v 3.7 0.7 4.3
v 2.9 0.8 5.1
v 2.9 1.4 5.1
v 3 0.8 5.1
v 3 1.4 5.1
v 3.1 0.6 5.1
v 3.1 0.7 5.1
v 3.6 0.6 5.1
v 3.6 0.7 5.1
v 2.8 0.8 5
v 2.8 1.4 5
v 2.9 0.8 5
v 2.9 1.4 5
v 2.9 1.5 5
v 3 0.5 5
v 3 0.7 5
v 3 0.8 5
v 3 1.4 5
v 3 1.5 5
v 3.1 0.6 5
v 3.1 0.7 5
v 3.1 0.8 5
v 3.1 1.4 5
v 3.3 0.1 5
v 3.3 0.2 5
v 3.3 0.3 5
v 3.4 0.1 5
v 3.4 0.2 5
v 3.4 0.3 5
v 3.6 0.5 5
v 3.6 0.6 5
v 3.6 0.7 5
v 3.7 0.6 5
v 3.7 0.7 5
v 3 1.4 4.9
v 3 1.5 4.9
v 3.1 1.4 4.9
v 3.1 1.5 4.9
v 3.3 0.3 4.9
v 3.3 0.4 4.9
v 3.4 0.3 4.9
v 3.4 0.4 4.9
v 2.9 0.6 4.8
v 2.9 0.8 4.8
v 3 0.6 4.8
v 3 0.7 4.8
v 3 0.8 4.8
v 2.8 0.6 4.7
v 2.8 0.8 4.7
v 2.9 0.5 4.7
v 2.9 0.6 4.7
v 2.9 0.8 4.7
v 3 0.1 4.7
v 3 0.2 4.7
v 3 0.3 4.7
v 3 0.5 4.7
v 3 0.6 4.7
v 3.1 0.1 4.7
v 3.1 0.2 4.7
v 3.1 0.3 4.7
v 3.1 0.4 4.7
v 3.3 0.3 4.7
v 3.3 0.4 4.7
v 3.3 0.5 4.7
v 3.4 0.3 4.7
v 3.4 0.4 4.7
v 3.4 0.5 4.7
v 3.6 0.1 4.7
v 3.6 0.2 4.7
v 3.6 0.3 4.7
v 3.6 0.4 4.7
v 3.7 0.1 4.7
v 3.7 0.2 4.7
v 3.7 0.3 4.7
v 3.3 0.1 4.4
v 3.3 0.2 4.4
v 3.3 0.3 4.4
v 3.4 0.1 4.4
v 3.4 0.2 4.4
v 3.4 0.3 4.4
v 3.3 0.1 4.9
v 3.3 0.2 4.9
v 3.3 0.3 4.9
v 3.4 0.1 4.9
v 3.4 0.2 4.9
v 3.4 0.3 4.9
v 2.8 0.6 4.6
v 2.8 0.8 4.6
v 2.9 0.5 4.6
v 2.9 0.6 4.6
v 2.9 0.8 4.6
v 3 0.1 4.6
v 3 0.2 4.6
v 3 0.3 4.6
v 3 0.5 4.6
v 3 0.6 4.6
v 3.1 0.1 4.6
v 3.1 0.2 4.6
v 3.1 0.3 4.6
v 3.1 0.4 4.6
v 3.3 0.3 4.6
v 3.3 0.4 4.6
v 3.3 0.5 4.6
v 3.4 0.3 4.6
v 3.4 0.4 4.6
v 3.4 0.5 4.6
v 3.6 0.1 4.6
v 3.6 0.2 4.6
v 3.6 0.3 4.6
v 3.6 0.4 4.6
v 3.7 0.1 4.6
v 3.7 0.2 4.6
v 3.7 0.3 4.6
v 2.9 0.6 4.5
v 2.9 0.8 4.5
v 3 0.6 4.5
v 3 0.7 4.5
v 3 0.8 4.5
v 3 1.4 4.4
v 3 1.5 4.4
v 3.1 1.4 4.4
v 3.1 1.5 4.4
v 3.3 0.3 4.4
v 3.3 0.4 4.4
v 3.4 0.3 4.4
v 3.4 0.4 4.4
v 2.8 0.8 4.3
v 2.8 1.4 4.3
v 2.9 0.8 4.3
v 2.9 1.4 4.3
v 2.9 1.5 4.3
v 3 0.5 4.3
v 3 0.7 4.3
v 3 0.8 4.3
v 3 1.4 4.3
v 3 1.5 4.3
v 3.1 0.6 4.3
v 3.1 0.7 4.3
v 3.1 0.8 4.3
v 3.1 1.4 4.3
v 3.3 0.1 4.3
v 3.3 0.2 4.3
v 3.3 0.3 4.3
v 3.4 0.1 4.3
v 3.4 0.2 4.3
v 3.4 0.3 4.3
v 3.6 0.5 4.3
v 3.6 0.6 4.3
v 3.6 0.7 4.3
v 3.7 0.6 4.3
v 3.7 0.7 4.3
v 2.9 0.8 4.2
v 2.9 1.4 4.2
v 3 0.8 4.2
v 3 1.4 4.2
v 3.1 0.6 4.2
v 3.1 0.7 4.2
v 3.6 0.6 4.2
v 3.6 0.7 4.2
v 3.3 0.1 5
v 3.4 0.1 5
v 3.3 0.1 4.9
v 3.4 0.1 4.9
v 3 0.1 4.7
v 3.1 0.1 4.7
v 3.6 0.1 4.7
v 3.7 0.1 4.7
v 3 0.1 4.6
v 3.1 0.1 4.6
v 3.6 0.1 4.6
v 3.7 0.1 4.6
v 3.3 0.1 4.4
v 3.4 0.1 4.4
v 3.3 0.1 4.3
v 3.4 0.1 4.3
v 3.3 0.3 4.9
v 3.4 0.3 4.9
v 3.1 0.3 4.7
v 3.3 0.3 4.7
v 3.4 0.3 4.7
v 3.6 0.3 4.7
v 3.1 0.3 4.6
v 3.3 0.3 4.6
v 3.4 0.3 4.6
v 3.6 0.3 4.6
v 3.3 0.3 4.4
v 3.4 0.3 4.4
v 3 0.5 5
v 3.6 0.5 5
v 2.9 0.5 4.7
v 3 0.5 4.7
v 3.3 0.5 4.7
v 3.4 0.5 4.7
v 2.9 0.5 4.6
v 3 0.5 4.6
v 3.3 0.5 4.6
v 3.4 0.5 4.6
v 3 0.5 4.3
v 3.6 0.5 4.3
v 3.1 0.6 5.1
v 3.6 0.6 5.1
v 3.1 0.6 5
v 3.6 0.6 5
v 3.7 0.6 5
v 2.9 0.6 4.8
v 3 0.6 4.8
v 2.8 0.6 4.7
v 2.9 0.6 4.7
v 3 0.6 4.7
v 2.8 0.6 4.6
v 2.9 0.6 4.6
v 3 0.6 4.6
v 2.9 0.6 4.5
v 3 0.6 4.5
v 3.1 0.6 4.3
v 3.6 0.6 4.3
v 3.7 0.6 4.3
v 3.1 0.6 4.2
v 3.6 0.6 4.2
v 2.9 0.8 5.1
v 3 0.8 5.1
v 2.8 0.8 5
v 2.9 0.8 5
v 3 0.8 5
v 3.1 0.8 5
v 2.9 0.8 4.8
v 3 0.8 4.8
v 2.8 0.8 4.7
v 2.9 0.8 4.7
v 2.8 0.8 4.6
v 2.9 0.8 4.6
v 2.9 0.8 4.5
v 3 0.8 4.5
v 2.8 0.8 4.3
v 2.9 0.8 4.3
v 3 0.8 4.3
v 3.1 0.8 4.3
v 2.9 0.8 4.2
v 3 0.8 4.2
v 3.3 0.3 5
v 3.4 0.3 5
v 3.3 0.3 4.9
v 3.4 0.3 4.9
v 3 0.3 4.7
v 3.1 0.3 4.7
v 3.6 0.3 4.7
v 3.7 0.3 4.7
v 3 0.3 4.6
v 3.1 0.3 4.6
v 3.6 0.3 4.6
v 3.7 0.3 4.6
v 3.3 0.3 4.4
v 3.4 0.3 4.4
v 3.3 0.3 4.3
v 3.4 0.3 4.3
v 3.3 0.4 4.9
v 3.4 0.4 4.9
v 3.1 0.4 4.7
v 3.3 0.4 4.7
v 3.4 0.4 4.7
v 3.6 0.4 4.7
v 3.1 0.4 4.6
v 3.3 0.4 4.6
v 3.4 0.4 4.6
v 3.6 0.4 4.6
v 3.3 0.4 4.4
v 3.4 0.4 4.4
v 3.1 0.7 5.1
v 3.6 0.7 5.1
v 3 0.7 5
v 3.1 0.7 5
v 3.6 0.7 5
v 3.7 0.7 5
v 3 0.7 4.8
v 3 0.7 4.5
v 3 0.7 4.3
v 3.1 0.7 4.3
v 3.6 0.7 4.3
v 3.7 0.7 4.3
v 3.1 0.7 4.2
v 3.6 0.7 4.2
v 2.9 1.4 5.1
v 3 1.4 5.1
v 2.8 1.4 5
v 2.9 1.4 5
v 3 1.4 5
v 3.1 1.4 5
v 3 1.4 4.9
v 3.1 1.4 4.9
v 3 1.4 4.4
v 3.1 1.4 4.4
v 2.8 1.4 4.3
v 2.9 1.4 4.3
v 3 1.4 4.3
v 3.1 1.4 4.3
v 2.9 1.4 4.2
v 3 1.4 4.2
v 2.9 1.5 5
v 3 1.5 5
v 3 1.5 4.9
v 3.1 1.5 4.9
v 3 1.5 4.4
v 3.1 1.5 4.4
v 2.9 1.5 4.3
v 3 1.5 4.3

# faces
f 4/1/1 2/1/1 1/1/1
f 5/1/1 2/1/1 4/1/1
f 7/1/1 4/1/1 3/1/1
f 7/1/1 6/1/1 5/1/1
f 7/1/1 5/1/1 4/1/1
f 8/1/1 6/1/1 7/1/1
f 12/1/1 10/1/1 9/1/1
f 13/1/1 10/1/1 12/1/1
f 17/1/1 12/1/1 11/1/1
f 18/1/1 12/1/1 17/1/1
f 19/1/1 14/1/1 13/1/1
f 20/1/1 14/1/1 19/1/1
f 23/1/1 16/1/1 15/1/1
f 24/1/1 16/1/1 23/1/1
f 25/1/1 22/1/1 21/1/1
f 26/1/1 22/1/1 25/1/1
f 27/1/1 25/1/1 24/1/1
f 28/1/1 25/1/1 27/1/1
f 31/3/1 30/3/1 29/3/1
f 32/3/1 30/3/1 31/3/1
f 33/2/1 32/2/1 31/2/1
f 34/2/1 32/2/1 33/2/1
f 39/1/1 36/1/1 35/1/1
f 40/1/1 36/1/1 39/1/1
f 41/1/1 38/1/1 37/1/1
f 42/1/1 38/1/1 41/1/1
f 43/1/1 39/1/1 35/1/1
f 44/1/1 39/1/1 43/1/1
f 45/1/1 38/1/1 42/1/1
f 46/1/1 38/1/1 45/1/1
f 49/2/1 48/2/1 47/2/1
f 50/2/1 48/2/1 49/2/1
f 55/1/1 52/1/1 51/1/1
f 56/1/1 52/1/1 55/1/1
f 57/1/1 54/1/1 53/1/1
f 58/1/1 54/1/1 57/1/1
f 63/3/1 60/3/1 59/3/1
f 64/3/1 60/3/1 63/3/1
f 65/3/1 62/3/1 61/3/1
f 66/3/1 62/3/1 65/3/1
f 67/2/1 64/2/1 63/2/1
f 68/2/1 64/2/1 67/2/1
f 71/2/1 66/2/1 65/2/1
f 72/2/1 66/2/1 71/2/1
f 73/2/1 69/2/1 68/2/1
f 74/2/1 69/2/1 73/2/1
f 75/2/1 71/2/1 70/2/1
f 76/2/1 71/2/1 75/2/1
f 77/2/1 75/2/1 74/2/1
f 78/2/1 75/2/1 77/2/1
f 81/3/1 80/3/1 79/3/1
f 82/3/1 80/3/1 81/3/1
f 83/2/1 82/2/1 81/2/1
f 84/2/1 82/2/1 83/2/1
f 85/1/2 86/1/2 89/1/2
f 89/1/2 86/1/2 90/1/2
f 87/1/2 88/1/2 93/1/2
f 93/1/2 88/1/2 94/1/2
f 91/1/2 92/1/2 97/1/2
f 97/1/2 92/1/2 98/1/2
f 94/1/2 95/1/2 99/1/2
f 99/1/2 95/1/2 100/1/2
f 96/1/2 97/1/2 101/1/2
f 101/1/2 97/1/2 102/1/2
f 103/3/2 104/3/2 105/3/2
f 105/3/2 104/3/2 106/3/2
f 105/2/2 106/2/2 107/2/2
f 107/2/2 106/2/2 108/2/2
f 109/1/2 110/1/2 111/1/2
f 111/1/2 110/1/2 112/1/2
f 112/1/2 110/1/2 113/1/2
f 113/1/2 110/1/2 114/1/2
f 112/1/2 113/1/2 115/1/2
f 115/1/2 113/1/2 116/1/2
f 117/3/2 118/3/2 121/3/2
f 121/3/2 118/3/2 122/3/2
f 119/3/2 120/3/2 123/3/2
f 123/3/2 120/3/2 124/3/2
f 121/2/2 122/2/2 125/2/2
f 125/2/2 122/2/2 126/2/2
f 123/2/2 124/2/2 129/2/2
f 129/2/2 124/2/2 130/2/2
f 126/2/2 127/2/2 131/2/2
f 131/2/2 127/2/2 132/2/2
f 128/2/2 129/2/2 133/2/2
f 133/2/2 129/2/2 134/2/2
f 132/2/2 133/2/2 135/2/2
f 135/2/2 133/2/2 136/2/2
f 137/2/2 138/2/2 139/2/2
f 139/2/2 138/2/2 140/2/2
f 141/1/2 142/1/2 144/1/2
f 144/1/2 142/1/2 145/1/2
f 143/1/2 144/1/2 147/1/2
f 147/1/2 144/1/2 148/1/2
f 145/1/2 146/1/2 149/1/2
f 149/1/2 146/1/2 150/1/2
f 151/3/2 152/3/2 153/3/2
f 153/3/2 152/3/2 154/3/2
f 153/2/2 154/2/2 155/2/2
f 155/2/2 154/2/2 156/2/2
f 157/1/2 158/1/2 159/1/2
f 159/1/2 158/1/2 160/1/2
f 163/1/3 162/1/3 161/1/3
f 164/1/3 162/1/3 163/1/3
f 167/1/3 166/1/3 165/1/3
f 168/1/3 166/1/3 167/1/3
f 171/1/3 170/1/3 169/1/3
f 172/1/3 170/1/3 171/1/3
f 177/1/3 173/1/3 172/1/3
f 178/1/3 173/1/3 177/1/3
f 179/1/3 175/1/3 174/1/3
f 180/1/3 175/1/3 179/1/3
f 181/1/3 177/1/3 176/1/3
f 182/1/3 177/1/3 181/1/3
f 186/3/3 184/3/3 183/3/3
f 187/2/3 185/2/3 184/2/3
f 187/3/3 184/3/3 186/3/3
f 188/2/3 185/2/3 187/2/3
f 189/1/3 179/1/3 174/1/3
f 190/1/3 179/1/3 189/1/3
f 192/1/3 191/1/3 190/1/3
f 193/1/3 191/1/3 192/1/3
f 196/1/3 195/1/3 194/1/3
f 197/1/3 195/1/3 196/1/3
f 200/2/3 199/2/3 198/2/3
f 201/2/3 199/2/3 200/2/3
f 204/1/3 203/1/3 202/1/3
f 205/1/3 203/1/3 204/1/3
f 206/1/3 203/1/3 205/1/3
f 210/1/3 208/1/3 207/1/3
f 211/1/3 208/1/3 210/1/3
f 215/1/3 210/1/3 209/1/3
f 216/1/3 210/1/3 215/1/3
f 217/3/3 213/3/3 212/3/3
f 218/2/3 214/2/3 213/2/3
f 218/3/3 213/3/3 217/3/3
f 219/2/3 214/2/3 218/2/3
f 221/2/3 220/2/3 219/2/3
f 222/2/3 220/2/3 221/2/3
f 225/2/3 223/2/3 222/2/3
f 226/2/3 223/2/3 225/2/3
f 229/2/3 225/2/3 224/2/3
f 230/2/3 225/2/3 229/2/3
f 231/3/3 228/3/3 227/3/3
f 232/2/3 229/2/3 228/2/3
f 232/3/3 228/3/3 231/3/3
f 233/2/3 229/2/3 232/2/3
f 237/3/3 235/3/3 234/3/3
f 238/2/3 236/2/3 235/2/3
f 238/3/3 235/3/3 237/3/3
f 239/2/3 236/2/3 238/2/3
f 240/3/4 241/3/4 243/3/4
f 241/2/4 242/2/4 244/2/4
f 243/3/4 241/3/4 244/3/4
f 244/2/4 242/2/4 245/2/4
f 246/1/4 247/1/4 249/1/4
f 249/1/4 247/1/4 250/1/4
f 248/1/4 249/1/4 254/1/4
f 254/1/4 249/1/4 255/1/4
f 251/3/4 252/3/4 256/3/4
f 252/2/4 253/2/4 257/2/4
f 256/3/4 252/3/4 257/3/4
f 257/2/4 253/2/4 258/2/4
f 258/2/4 259/2/4 260/2/4
f 260/2/4 259/2/4 261/2/4
f 261/2/4 262/2/4 264/2/4
f 264/2/4 262/2/4 265/2/4
f 263/2/4 264/2/4 268/2/4
f 268/2/4 264/2/4 269/2/4
f 266/3/4 267/3/4 270/3/4
f 267/2/4 268/2/4 271/2/4
f 270/3/4 267/3/4 271/3/4
f 271/2/4 268/2/4 272/2/4
f 273/1/4 274/1/4 275/1/4
f 275/1/4 274/1/4 276/1/4
f 276/1/4 274/1/4 277/1/4
f 278/1/4 279/1/4 280/1/4
f 280/1/4 279/1/4 281/1/4
f 282/2/4 283/2/4 284/2/4
f 284/2/4 283/2/4 285/2/4
f 286/1/4 287/1/4 288/1/4
f 288/1/4 287/1/4 289/1/4
f 289/1/4 290/1/4 294/1/4
f 294/1/4 290/1/4 295/1/4
f 291/1/4 292/1/4 296/1/4
f 296/1/4 292/1/4 297/1/4
f 293/1/4 294/1/4 298/1/4
f 298/1/4 294/1/4 299/1/4
f 300/3/4 301/3/4 303/3/4
f 301/2/4 302/2/4 304/2/4
f 303/3/4 301/3/4 304/3/4
f 304/2/4 302/2/4 305/2/4
f 291/1/4 296/1/4 306/1/4
f 306/1/4 296/1/4 307/1/4
f 307/1/4 308/1/4 309/1/4
f 309/1/4 308/1/4 310/1/4
f 311/1/4 312/1/4 313/1/4
f 313/1/4 312/1/4 314/1/4
f 315/1/4 316/1/4 317/1/4
f 317/1/4 316/1/4 318/1/4
f 321/3/5 320/3/5 319/3/5
f 322/3/5 320/3/5 321/3/5
f 327/3/5 324/3/5 323/3/5
f 328/3/5 324/3/5 327/3/5
f 329/3/5 326/3/5 325/3/5
f 330/3/5 326/3/5 329/3/5
f 333/3/5 332/3/5 331/3/5
f 334/3/5 332/3/5 333/3/5
f 338/2/5 336/2/5 335/2/5
f 339/2/5 336/2/5 338/2/5
f 341/2/5 338/2/5 337/2/5
f 341/2/5 340/2/5 339/2/5
f 341/2/5 339/2/5 338/2/5
f 342/2/5 340/2/5 341/2/5
f 343/2/5 340/2/5 342/2/5
f 344/2/5 340/2/5 343/2/5
f 345/2/5 343/2/5 342/2/5
f 346/2/5 343/2/5 345/2/5
f 350/1/5 348/1/5 347/1/5
f 351/1/5 348/1/5 350/1/5
f 352/1/5 348/1/5 351/1/5
f 353/1/5 350/1/5 349/1/5
f 353/1/5 351/1/5 350/1/5
f 354/1/5 351/1/5 353/1/5
f 355/1/5 351/1/5 354/1/5
f 356/1/5 348/1/5 352/1/5
f 357/1/5 355/1/5 354/1/5
f 357/1/5 356/1/5 355/1/5
f 358/1/5 348/1/5 356/1/5
f 358/1/5 356/1/5 357/1/5
f 361/1/5 360/1/5 359/1/5
f 362/1/5 360/1/5 361/1/5
f 367/1/5 365/1/5 364/1/5
f 368/1/5 365/1/5 367/1/5
f 369/1/5 367/1/5 366/1/5
f 370/1/5 367/1/5 369/1/5
f 372/1/5 371/1/5 370/1/5
f 373/1/5 371/1/5 372/1/5
f 375/1/5 363/1/5 362/1/5
f 376/1/5 363/1/5 375/1/5
f 377/1/5 375/1/5 374/1/5
f 378/1/5 375/1/5 377/1/5
f 382/1/5 380/1/5 379/1/5
f 383/1/5 380/1/5 382/1/5
f 385/1/5 382/1/5 381/1/5
f 385/1/5 384/1/5 383/1/5
f 385/1/5 383/1/5 382/1/5
f 386/1/5 384/1/5 385/1/5
f 387/1/5 385/1/5 381/1/5
f 388/1/5 385/1/5 387/1/5
f 391/1/5 390/1/5 389/1/5
f 392/1/5 384/1/5 386/1/5
f 393/1/5 391/1/5 389/1/5
f 393/1/5 392/1/5 391/1/5
f 394/1/5 392/1/5 393/1/5
f 395/1/5 384/1/5 392/1/5
f 395/1/5 392/1/5 394/1/5
f 396/1/5 384/1/5 395/1/5
f 397/1/5 395/1/5 394/1/5
f 398/1/5 395/1/5 397/1/5
f 399/2/6 400/2/6 401/2/6
f 401/2/6 400/2/6 402/2/6
f 403/2/6 404/2/6 407/2/6
f 407/2/6 404/2/6 408/2/6
f 405/2/6 406/2/6 409/2/6
f 409/2/6 406/2/6 410/2/6
f 411/2/6 412/2/6 413/2/6
f 413/2/6 412/2/6 414/2/6
f 415/2/6 416/2/6 418/2/6
f 418/2/6 416/2/6 419/2/6
f 417/2/6 418/2/6 421/2/6
f 421/2/6 418/2/6 422/2/6
f 419/2/6 420/2/6 423/2/6
f 423/2/6 420/2/6 424/2/6
f 422/2/6 423/2/6 425/2/6
f 425/2/6 423/2/6 426/2/6
f 427/1/6 428/1/6 430/1/6
f 430/1/6 428/1/6 431/1/6
f 429/1/6 430/1/6 433/1/6
f 431/1/6 432/1/6 433/1/6
f 430/1/6 431/1/6 433/1/6
f 433/1/6 432/1/6 434/1/6
f 434/1/6 432/1/6 435/1/6
f 435/1/6 432/1/6 436/1/6
f 436/1/6 432/1/6 437/1/6
f 437/1/6 432/1/6 438/1/6
f 436/1/6 437/1/6 439/1/6
f 439/1/6 437/1/6 440/1/6
f 441/1/6 442/1/6 444/1/6
f 444/1/6 442/1/6 445/1/6
f 445/1/6 446/1/6 447/1/6
f 447/1/6 446/1/6 448/1/6
f 443/1/6 444/1/6 451/1/6
f 451/1/6 444/1/6 452/1/6
f 449/1/6 450/1/6 453/1/6
f 453/1/6 450/1/6 454/1/6
f 452/1/6 453/1/6 455/1/6
f 455/1/6 453/1/6 456/1/6
f 457/1/6 458/1/6 459/1/6
f 457/1/6 459/1/6 461/1/6
f 459/1/6 460/1/6 461/1/6
f 461/1/6 460/1/6 462/1/6
f 457/1/6 461/1/6 463/1/6
f 463/1/6 461/1/6 464/1/6
