# MagicaVoxel @ Ephtracy

# group
o 

# material
mtllib cooler_water.mtl
usemtl palette

# normals
vn -1 0 0
vn 1 0 0
vn 0 0 1
vn 0 0 -1
vn 0 -1 0
vn 0 1 0

# texcoords
vt 0.0566406 0.5
vt 0.689453 0.5
vt 0.748047 0.5
vt 0.775391 0.5
vt 0.912109 0.5
vt 0.966797 0.5

# verts
v -12.5 0.2 -8.4
v -12.5 0.2 -8.7
v -12.5 0.3 -8.4
v -12.5 0.3 -8.7
v -12.4 0.1 -8.1
v -12.4 0.1 -9
v -12.4 0.2 -8.4
v -12.4 0.2 -8.7
v -12.4 0.3 -8.4
v -12.4 0.3 -8.7
v -12.4 1.2 -8.1
v -12.4 1.2 -9
v -12.4 1.8 -8.2
v -12.4 1.8 -8.9
v -12.4 1.9 -8.2
v -12.4 1.9 -8.9
v -12.3 1.3 -8.2
v -12.3 1.3 -8.9
v -12.3 1.4 -8.2
v -12.3 1.4 -8.9
v -12.3 1.5 -8.2
v -12.3 1.5 -8.9
v -12.3 1.8 -8.1
v -12.3 1.8 -8.2
v -12.3 1.8 -8.9
v -12.3 1.8 -9
v -12.3 1.9 -8.1
v -12.3 1.9 -8.2
v -12.3 1.9 -8.9
v -12.3 1.9 -9
v -12.3 2.1 -8.2
v -12.3 2.1 -8.9
v -12.2 1.2 -8.3
v -12.2 1.2 -8.8
v -12.2 1.3 -8.3
v -12.2 1.3 -8.8
v -12.2 1.4 -8.3
v -12.2 1.4 -8.8
v -12.2 1.5 -8.3
v -12.2 1.5 -8.8
v -11.6 0.7 -8.4
v -11.6 0.7 -8.5
v -11.6 0.7 -8.6
v -11.6 0.7 -8.7
v -11.6 0.8 -8.4
v -11.6 0.8 -8.5
v -11.6 0.8 -8.6
v -11.6 0.8 -8.7
v -11.9 0.5 -8.3
v -11.9 0.5 -8.8
v -11.9 0.8 -8.4
v -11.9 0.8 -8.5
v -11.9 0.8 -8.6
v -11.9 0.8 -8.7
v -11.9 0.9 -8.4
v -11.9 0.9 -8.5
v -11.9 0.9 -8.6
v -11.9 0.9 -8.7
v -11.9 1 -8.4
v -11.9 1 -8.5
v -11.9 1 -8.6
v -11.9 1 -8.7
v -11.9 1.1 -8.3
v -11.9 1.1 -8.8
v -11.7 1.2 -8.3
v -11.7 1.2 -8.8
v -11.7 1.3 -8.3
v -11.7 1.3 -8.8
v -11.7 1.4 -8.3
v -11.7 1.4 -8.8
v -11.7 1.5 -8.3
v -11.7 1.5 -8.8
v -11.6 0.9 -8.4
v -11.6 0.9 -8.5
v -11.6 0.9 -8.6
v -11.6 0.9 -8.7
v -11.6 1 -8.4
v -11.6 1 -8.5
v -11.6 1 -8.6
v -11.6 1 -8.7
v -11.6 1.3 -8.2
v -11.6 1.3 -8.9
v -11.6 1.4 -8.2
v -11.6 1.4 -8.9
v -11.6 1.5 -8.2
v -11.6 1.5 -8.9
v -11.6 1.8 -8.1
v -11.6 1.8 -8.2
v -11.6 1.8 -8.9
v -11.6 1.8 -9
v -11.6 1.9 -8.1
v -11.6 1.9 -8.2
v -11.6 1.9 -8.9
v -11.6 1.9 -9
v -11.6 2.1 -8.2
v -11.6 2.1 -8.9
v -11.5 0.1 -8.1
v -11.5 0.1 -9
v -11.5 0.2 -8.4
v -11.5 0.2 -8.7
v -11.5 0.3 -8.4
v -11.5 0.3 -8.7
v -11.5 0.5 -8.3
v -11.5 0.5 -8.8
v -11.5 0.7 -8.4
v -11.5 0.7 -8.5
v -11.5 0.7 -8.6
v -11.5 0.7 -8.7
v -11.5 0.8 -8.4
v -11.5 0.8 -8.5
v -11.5 0.8 -8.6
v -11.5 0.8 -8.7
v -11.5 0.9 -8.4
v -11.5 0.9 -8.5
v -11.5 0.9 -8.6
v -11.5 0.9 -8.7
v -11.5 1.1 -8.3
v -11.5 1.1 -8.8
v -11.5 1.2 -8.1
v -11.5 1.2 -9
v -11.5 1.8 -8.2
v -11.5 1.8 -8.9
v -11.5 1.9 -8.2
v -11.5 1.9 -8.9
v -11.4 0.2 -8.4
v -11.4 0.2 -8.7
v -11.4 0.3 -8.4
v -11.4 0.3 -8.7
v -12.4 0.1 -8.1
v -12.4 1.2 -8.1
v -12.3 1.8 -8.1
v -12.3 1.9 -8.1
v -11.6 1.8 -8.1
v -11.6 1.9 -8.1
v -11.5 0.1 -8.1
v -11.5 1.2 -8.1
v -12.4 1.8 -8.2
v -12.4 1.9 -8.2
v -12.3 1.3 -8.2
v -12.3 1.4 -8.2
v -12.3 1.5 -8.2
v -12.3 1.8 -8.2
v -12.3 1.9 -8.2
v -12.3 2.1 -8.2
v -11.6 1.3 -8.2
v -11.6 1.4 -8.2
v -11.6 1.5 -8.2
v -11.6 1.8 -8.2
v -11.6 1.9 -8.2
v -11.6 2.1 -8.2
v -11.5 1.8 -8.2
v -11.5 1.9 -8.2
v -12.2 1.2 -8.3
v -12.2 1.3 -8.3
v -12.2 1.4 -8.3
v -12.2 1.5 -8.3
v -11.7 1.2 -8.3
v -11.7 1.3 -8.3
v -11.7 1.4 -8.3
v -11.7 1.5 -8.3
v -12.5 0.2 -8.4
v -12.5 0.3 -8.4
v -12.4 0.2 -8.4
v -12.4 0.3 -8.4
v -11.9 0.8 -8.4
v -11.9 0.9 -8.4
v -11.9 1 -8.4
v -11.6 0.7 -8.4
v -11.6 0.8 -8.4
v -11.6 0.9 -8.4
v -11.6 1 -8.4
v -11.5 0.2 -8.4
v -11.5 0.3 -8.4
v -11.5 0.7 -8.4
v -11.5 0.8 -8.4
v -11.5 0.9 -8.4
v -11.4 0.2 -8.4
v -11.4 0.3 -8.4
v -11.9 0.8 -8.6
v -11.9 0.9 -8.6
v -11.9 1 -8.6
v -11.6 0.7 -8.6
v -11.6 0.8 -8.6
v -11.6 0.9 -8.6
v -11.6 1 -8.6
v -11.5 0.7 -8.6
v -11.5 0.8 -8.6
v -11.5 0.9 -8.6
v -11.9 0.5 -8.8
v -11.9 1.1 -8.8
v -11.5 0.5 -8.8
v -11.5 1.1 -8.8
v -11.9 0.5 -8.3
v -11.9 1.1 -8.3
v -11.5 0.5 -8.3
v -11.5 1.1 -8.3
v -11.9 0.8 -8.5
v -11.9 0.9 -8.5
v -11.9 1 -8.5
v -11.6 0.7 -8.5
v -11.6 0.8 -8.5
v -11.6 0.9 -8.5
v -11.6 1 -8.5
v -11.5 0.7 -8.5
v -11.5 0.8 -8.5
v -11.5 0.9 -8.5
v -12.5 0.2 -8.7
v -12.5 0.3 -8.7
v -12.4 0.2 -8.7
v -12.4 0.3 -8.7
v -11.9 0.8 -8.7
v -11.9 0.9 -8.7
v -11.9 1 -8.7
v -11.6 0.7 -8.7
v -11.6 0.8 -8.7
v -11.6 0.9 -8.7
v -11.6 1 -8.7
v -11.5 0.2 -8.7
v -11.5 0.3 -8.7
v -11.5 0.7 -8.7
v -11.5 0.8 -8.7
v -11.5 0.9 -8.7
v -11.4 0.2 -8.7
v -11.4 0.3 -8.7
v -12.2 1.2 -8.8
v -12.2 1.3 -8.8
v -12.2 1.4 -8.8
v -12.2 1.5 -8.8
v -11.7 1.2 -8.8
v -11.7 1.3 -8.8
v -11.7 1.4 -8.8
v -11.7 1.5 -8.8
v -12.4 1.8 -8.9
v -12.4 1.9 -8.9
v -12.3 1.3 -8.9
v -12.3 1.4 -8.9
v -12.3 1.5 -8.9
v -12.3 1.8 -8.9
v -12.3 1.9 -8.9
v -12.3 2.1 -8.9
v -11.6 1.3 -8.9
v -11.6 1.4 -8.9
v -11.6 1.5 -8.9
v -11.6 1.8 -8.9
v -11.6 1.9 -8.9
v -11.6 2.1 -8.9
v -11.5 1.8 -8.9
v -11.5 1.9 -8.9
v -12.4 0.1 -9
v -12.4 1.2 -9
v -12.3 1.8 -9
v -12.3 1.9 -9
v -11.6 1.8 -9
v -11.6 1.9 -9
v -11.5 0.1 -9
v -11.5 1.2 -9
v -12.4 0.1 -8.1
v -11.5 0.1 -8.1
v -12.4 0.1 -9
v -11.5 0.1 -9
v -12.5 0.2 -8.4
v -12.4 0.2 -8.4
v -11.5 0.2 -8.4
v -11.4 0.2 -8.4
v -12.5 0.2 -8.7
v -12.4 0.2 -8.7
v -11.5 0.2 -8.7
v -11.4 0.2 -8.7
v -11.6 0.7 -8.4
v -11.5 0.7 -8.4
v -11.6 0.7 -8.5
v -11.5 0.7 -8.5
v -11.6 0.7 -8.6
v -11.5 0.7 -8.6
v -11.6 0.7 -8.7
v -11.5 0.7 -8.7
v -11.9 0.8 -8.4
v -11.6 0.8 -8.4
v -11.9 0.8 -8.5
v -11.6 0.8 -8.5
v -11.9 0.8 -8.6
v -11.6 0.8 -8.6
v -11.9 0.8 -8.7
v -11.6 0.8 -8.7
v -11.9 1.1 -8.3
v -11.5 1.1 -8.3
v -11.9 1.1 -8.8
v -11.5 1.1 -8.8
v -12.3 1.3 -8.2
v -11.6 1.3 -8.2
v -12.2 1.3 -8.3
v -11.7 1.3 -8.3
v -12.2 1.3 -8.8
v -11.7 1.3 -8.8
v -12.3 1.3 -8.9
v -11.6 1.3 -8.9
v -12.3 1.5 -8.2
v -11.6 1.5 -8.2
v -12.2 1.5 -8.3
v -11.7 1.5 -8.3
v -12.2 1.5 -8.8
v -11.7 1.5 -8.8
v -12.3 1.5 -8.9
v -11.6 1.5 -8.9
v -12.3 1.8 -8.1
v -11.6 1.8 -8.1
v -12.4 1.8 -8.2
v -12.3 1.8 -8.2
v -11.6 1.8 -8.2
v -11.5 1.8 -8.2
v -12.4 1.8 -8.9
v -12.3 1.8 -8.9
v -11.6 1.8 -8.9
v -11.5 1.8 -8.9
v -12.3 1.8 -9
v -11.6 1.8 -9
v -12.5 0.3 -8.4
v -12.4 0.3 -8.4
v -11.5 0.3 -8.4
v -11.4 0.3 -8.4
v -12.5 0.3 -8.7
v -12.4 0.3 -8.7
v -11.5 0.3 -8.7
v -11.4 0.3 -8.7
v -11.9 0.5 -8.3
v -11.5 0.5 -8.3
v -11.9 0.5 -8.8
v -11.5 0.5 -8.8
v -11.6 0.9 -8.4
v -11.5 0.9 -8.4
v -11.6 0.9 -8.5
v -11.5 0.9 -8.5
v -11.6 0.9 -8.6
v -11.5 0.9 -8.6
v -11.6 0.9 -8.7
v -11.5 0.9 -8.7
v -11.9 1 -8.4
v -11.6 1 -8.4
v -11.9 1 -8.5
v -11.6 1 -8.5
v -11.9 1 -8.6
v -11.6 1 -8.6
v -11.9 1 -8.7
v -11.6 1 -8.7
v -12.4 1.2 -8.1
v -11.5 1.2 -8.1
v -12.2 1.2 -8.3
v -11.7 1.2 -8.3
v -12.2 1.2 -8.8
v -11.7 1.2 -8.8
v -12.4 1.2 -9
v -11.5 1.2 -9
v -12.3 1.4 -8.2
v -11.6 1.4 -8.2
v -12.2 1.4 -8.3
v -11.7 1.4 -8.3
v -12.2 1.4 -8.8
v -11.7 1.4 -8.8
v -12.3 1.4 -8.9
v -11.6 1.4 -8.9
v -12.3 1.9 -8.1
v -11.6 1.9 -8.1
v -12.4 1.9 -8.2
v -12.3 1.9 -8.2
v -11.6 1.9 -8.2
v -11.5 1.9 -8.2
v -12.4 1.9 -8.9
v -12.3 1.9 -8.9
v -11.6 1.9 -8.9
v -11.5 1.9 -8.9
v -12.3 1.9 -9
v -11.6 1.9 -9
v -12.3 2.1 -8.2
v -11.6 2.1 -8.2
v -12.3 2.1 -8.9
v -11.6 2.1 -8.9

# faces
f 3/6/1 2/6/1 1/6/1
f 4/6/1 2/6/1 3/6/1
f 7/5/1 6/5/1 5/5/1
f 8/5/1 6/5/1 7/5/1
f 9/5/1 7/5/1 5/5/1
f 10/5/1 6/5/1 8/5/1
f 11/5/1 9/5/1 5/5/1
f 11/5/1 10/5/1 9/5/1
f 12/5/1 6/5/1 10/5/1
f 12/5/1 10/5/1 11/5/1
f 15/2/1 14/2/1 13/2/1
f 16/2/1 14/2/1 15/2/1
f 19/2/1 18/2/1 17/2/1
f 20/2/1 18/2/1 19/2/1
f 24/2/1 22/2/1 21/2/1
f 25/2/1 22/2/1 24/2/1
f 27/2/1 24/2/1 23/2/1
f 28/2/1 24/2/1 27/2/1
f 29/2/1 26/2/1 25/2/1
f 30/2/1 26/2/1 29/2/1
f 31/2/1 29/2/1 28/2/1
f 32/2/1 29/2/1 31/2/1
f 35/3/1 34/3/1 33/3/1
f 36/3/1 34/3/1 35/3/1
f 39/3/1 38/3/1 37/3/1
f 40/3/1 38/3/1 39/3/1
f 45/5/1 42/5/1 41/5/1
f 46/5/1 42/5/1 45/5/1
f 47/5/1 44/5/1 43/5/1
f 48/5/1 44/5/1 47/5/1
f 49/5/2 50/5/2 51/5/2
f 51/5/2 50/5/2 52/5/2
f 52/5/2 50/5/2 53/5/2
f 53/5/2 50/5/2 54/5/2
f 49/5/2 51/5/2 55/5/2
f 52/5/2 53/5/2 56/5/2
f 56/5/2 53/5/2 57/5/2
f 54/5/2 50/5/2 58/5/2
f 49/5/2 55/5/2 59/5/2
f 56/5/2 57/5/2 60/5/2
f 60/5/2 57/5/2 61/5/2
f 58/5/2 50/5/2 62/5/2
f 49/5/2 59/5/2 63/5/2
f 61/5/2 62/5/2 63/5/2
f 60/5/2 61/5/2 63/5/2
f 59/5/2 60/5/2 63/5/2
f 62/5/2 50/5/2 64/5/2
f 63/5/2 62/5/2 64/5/2
f 65/3/2 66/3/2 67/3/2
f 67/3/2 66/3/2 68/3/2
f 69/3/2 70/3/2 71/3/2
f 71/3/2 70/3/2 72/3/2
f 73/1/2 74/1/2 77/1/2
f 77/1/2 74/1/2 78/1/2
f 75/4/2 76/4/2 79/4/2
f 79/4/2 76/4/2 80/4/2
f 81/2/2 82/2/2 83/2/2
f 83/2/2 82/2/2 84/2/2
f 85/2/2 86/2/2 88/2/2
f 88/2/2 86/2/2 89/2/2
f 87/2/2 88/2/2 91/2/2
f 91/2/2 88/2/2 92/2/2
f 89/2/2 90/2/2 93/2/2
f 93/2/2 90/2/2 94/2/2
f 92/2/2 93/2/2 95/2/2
f 95/2/2 93/2/2 96/2/2
f 97/5/2 98/5/2 99/5/2
f 99/5/2 98/5/2 100/5/2
f 97/5/2 99/5/2 101/5/2
f 100/5/2 98/5/2 102/5/2
f 97/5/2 101/5/2 103/5/2
f 101/5/2 102/5/2 103/5/2
f 102/5/2 98/5/2 104/5/2
f 103/5/2 102/5/2 104/5/2
f 105/5/2 106/5/2 109/5/2
f 109/5/2 106/5/2 110/5/2
f 107/5/2 108/5/2 111/5/2
f 111/5/2 108/5/2 112/5/2
f 109/1/2 110/1/2 113/1/2
f 113/1/2 110/1/2 114/1/2
f 111/4/2 112/4/2 115/4/2
f 115/4/2 112/4/2 116/4/2
f 97/5/2 103/5/2 117/5/2
f 104/5/2 98/5/2 118/5/2
f 97/5/2 117/5/2 119/5/2
f 117/5/2 118/5/2 119/5/2
f 118/5/2 98/5/2 120/5/2
f 119/5/2 118/5/2 120/5/2
f 121/2/2 122/2/2 123/2/2
f 123/2/2 122/2/2 124/2/2
f 125/6/2 126/6/2 127/6/2
f 127/6/2 126/6/2 128/6/2
f 133/2/3 132/2/3 131/2/3
f 134/2/3 132/2/3 133/2/3
f 135/5/3 130/5/3 129/5/3
f 136/5/3 130/5/3 135/5/3
f 142/2/3 138/2/3 137/2/3
f 143/2/3 138/2/3 142/2/3
f 145/2/3 140/2/3 139/2/3
f 146/2/3 140/2/3 145/2/3
f 147/2/3 142/2/3 141/2/3
f 148/2/3 142/2/3 147/2/3
f 149/2/3 144/2/3 143/2/3
f 150/2/3 144/2/3 149/2/3
f 151/2/3 149/2/3 148/2/3
f 152/2/3 149/2/3 151/2/3
f 157/3/3 154/3/3 153/3/3
f 158/3/3 154/3/3 157/3/3
f 159/3/3 156/3/3 155/3/3
f 160/3/3 156/3/3 159/3/3
f 163/6/3 162/6/3 161/6/3
f 164/6/3 162/6/3 163/6/3
f 169/5/3 166/5/3 165/5/3
f 170/1/3 167/1/3 166/1/3
f 170/5/3 166/5/3 169/5/3
f 171/1/3 167/1/3 170/1/3
f 174/5/3 169/5/3 168/5/3
f 175/1/3 170/1/3 169/1/3
f 175/5/3 169/5/3 174/5/3
f 176/1/3 170/1/3 175/1/3
f 177/6/3 173/6/3 172/6/3
f 178/6/3 173/6/3 177/6/3
f 183/5/3 180/5/3 179/5/3
f 184/4/3 181/4/3 180/4/3
f 184/5/3 180/5/3 183/5/3
f 185/4/3 181/4/3 184/4/3
f 186/5/3 183/5/3 182/5/3
f 187/4/3 184/4/3 183/4/3
f 187/5/3 183/5/3 186/5/3
f 188/4/3 184/4/3 187/4/3
f 191/5/3 190/5/3 189/5/3
f 192/5/3 190/5/3 191/5/3
f 193/5/4 194/5/4 195/5/4
f 195/5/4 194/5/4 196/5/4
f 197/5/4 198/5/4 201/5/4
f 198/1/4 199/1/4 202/1/4
f 201/5/4 198/5/4 202/5/4
f 202/1/4 199/1/4 203/1/4
f 200/5/4 201/5/4 204/5/4
f 201/1/4 202/1/4 205/1/4
f 204/5/4 201/5/4 205/5/4
f 205/1/4 202/1/4 206/1/4
f 207/6/4 208/6/4 209/6/4
f 209/6/4 208/6/4 210/6/4
f 211/5/4 212/5/4 215/5/4
f 212/4/4 213/4/4 216/4/4
f 215/5/4 212/5/4 216/5/4
f 216/4/4 213/4/4 217/4/4
f 214/5/4 215/5/4 220/5/4
f 215/4/4 216/4/4 221/4/4
f 220/5/4 215/5/4 221/5/4
f 221/4/4 216/4/4 222/4/4
f 218/6/4 219/6/4 223/6/4
f 223/6/4 219/6/4 224/6/4
f 225/3/4 226/3/4 229/3/4
f 229/3/4 226/3/4 230/3/4
f 227/3/4 228/3/4 231/3/4
f 231/3/4 228/3/4 232/3/4
f 233/2/4 234/2/4 238/2/4
f 238/2/4 234/2/4 239/2/4
f 235/2/4 236/2/4 241/2/4
f 241/2/4 236/2/4 242/2/4
f 237/2/4 238/2/4 243/2/4
f 243/2/4 238/2/4 244/2/4
f 239/2/4 240/2/4 245/2/4
f 245/2/4 240/2/4 246/2/4
f 244/2/4 245/2/4 247/2/4
f 247/2/4 245/2/4 248/2/4
f 251/2/4 252/2/4 253/2/4
f 253/2/4 252/2/4 254/2/4
f 249/5/4 250/5/4 255/5/4
f 255/5/4 250/5/4 256/5/4
f 259/5/5 258/5/5 257/5/5
f 260/5/5 258/5/5 259/5/5
f 265/6/5 262/6/5 261/6/5
f 266/6/5 262/6/5 265/6/5
f 267/6/5 264/6/5 263/6/5
f 268/6/5 264/6/5 267/6/5
f 271/5/5 270/5/5 269/5/5
f 272/5/5 270/5/5 271/5/5
f 275/5/5 274/5/5 273/5/5
f 276/5/5 274/5/5 275/5/5
f 279/5/5 278/5/5 277/5/5
f 280/5/5 278/5/5 279/5/5
f 283/5/5 282/5/5 281/5/5
f 284/5/5 282/5/5 283/5/5
f 287/5/5 286/5/5 285/5/5
f 288/5/5 286/5/5 287/5/5
f 291/2/5 290/2/5 289/2/5
f 292/2/5 290/2/5 291/2/5
f 293/2/5 291/2/5 289/2/5
f 294/2/5 290/2/5 292/2/5
f 295/2/5 293/2/5 289/2/5
f 295/2/5 294/2/5 293/2/5
f 296/2/5 290/2/5 294/2/5
f 296/2/5 294/2/5 295/2/5
f 299/2/5 298/2/5 297/2/5
f 300/2/5 298/2/5 299/2/5
f 301/2/5 299/2/5 297/2/5
f 302/2/5 298/2/5 300/2/5
f 303/2/5 301/2/5 297/2/5
f 303/2/5 302/2/5 301/2/5
f 304/2/5 298/2/5 302/2/5
f 304/2/5 302/2/5 303/2/5
f 308/2/5 306/2/5 305/2/5
f 309/2/5 306/2/5 308/2/5
f 311/2/5 308/2/5 307/2/5
f 312/2/5 308/2/5 311/2/5
f 313/2/5 310/2/5 309/2/5
f 314/2/5 310/2/5 313/2/5
f 315/2/5 313/2/5 312/2/5
f 316/2/5 313/2/5 315/2/5
f 317/6/6 318/6/6 321/6/6
f 321/6/6 318/6/6 322/6/6
f 319/6/6 320/6/6 323/6/6
f 323/6/6 320/6/6 324/6/6
f 325/5/6 326/5/6 327/5/6
f 327/5/6 326/5/6 328/5/6
f 329/1/6 330/1/6 331/1/6
f 331/1/6 330/1/6 332/1/6
f 333/4/6 334/4/6 335/4/6
f 335/4/6 334/4/6 336/4/6
f 337/1/6 338/1/6 339/1/6
f 339/1/6 338/1/6 340/1/6
f 341/4/6 342/4/6 343/4/6
f 343/4/6 342/4/6 344/4/6
f 345/5/6 346/5/6 347/5/6
f 347/5/6 346/5/6 348/5/6
f 345/5/6 347/5/6 349/5/6
f 348/5/6 346/5/6 350/5/6
f 345/5/6 349/5/6 351/5/6
f 349/5/6 350/5/6 351/5/6
f 350/5/6 346/5/6 352/5/6
f 351/5/6 350/5/6 352/5/6
f 353/2/6 354/2/6 355/2/6
f 355/2/6 354/2/6 356/2/6
f 353/2/6 355/2/6 357/2/6
f 356/2/6 354/2/6 358/2/6
f 353/2/6 357/2/6 359/2/6
f 357/2/6 358/2/6 359/2/6
f 358/2/6 354/2/6 360/2/6
f 359/2/6 358/2/6 360/2/6
f 361/2/6 362/2/6 364/2/6
f 364/2/6 362/2/6 365/2/6
f 363/2/6 364/2/6 367/2/6
f 367/2/6 364/2/6 368/2/6
f 365/2/6 366/2/6 369/2/6
f 369/2/6 366/2/6 370/2/6
f 368/2/6 369/2/6 371/2/6
f 371/2/6 369/2/6 372/2/6
f 373/2/6 374/2/6 375/2/6
f 375/2/6 374/2/6 376/2/6
