# MagicaVoxel @ Ephtracy

# group
o 

# material
mtllib sink.mtl
usemtl palette

# normals
vn 0 0 1
vn 0 0 -1
vn 1 0 0
vn -1 0 0
vn 0 -1 0
vn 0 1 0

# texcoords
vt 0.0566406 0.5
vt 0.775391 0.5
vt 0.958984 0.5
vt 0.962891 0.5

# verts
v 5.4 0.6 -4.9
v 4.7 0.6 -4.9
v 5.4 0.8 -4.9
v 4.7 0.8 -4.9
v 5.4 0.5 -5
v 4.7 0.5 -5
v 5.5 0.6 -5
v 5.4 0.6 -5
v 4.7 0.6 -5
v 4.6 0.6 -5
v 5.5 0.8 -5
v 5.4 0.8 -5
v 4.7 0.8 -5
v 4.6 0.8 -5
v 5.1 0.9 -5.3
v 5 0.9 -5.3
v 5.1 1.1 -5.3
v 5 1.1 -5.3
v 5.4 0.1 -5.5
v 5.3 0.1 -5.5
v 5.1 0.1 -5.5
v 5 0.1 -5.5
v 5.3 0.2 -5.5
v 5.2 0.2 -5.5
v 5.4 0.3 -5.5
v 5.3 0.3 -5.5
v 5.3 0.5 -5.5
v 5.2 0.5 -5.5
v 5.1 0.5 -5.5
v 5 0.5 -5.5
v 5.4 0.7 -5.5
v 4.7 0.7 -5.5
v 5.4 0.8 -5.5
v 5.2 0.8 -5.5
v 5.1 0.8 -5.5
v 5 0.8 -5.5
v 4.9 0.8 -5.5
v 4.7 0.8 -5.5
v 5.2 0.9 -5.5
v 5.1 0.9 -5.5
v 5 0.9 -5.5
v 4.9 0.9 -5.5
v 5.1 1 -5.5
v 5 1 -5.5
v 5.3 0.7 -5
v 4.8 0.7 -5
v 5.3 0.8 -5
v 4.8 0.8 -5
v 5.4 0.7 -5.1
v 5.3 0.7 -5.1
v 4.8 0.7 -5.1
v 4.7 0.7 -5.1
v 5.4 0.8 -5.1
v 5.3 0.8 -5.1
v 4.8 0.8 -5.1
v 4.7 0.8 -5.1
v 5.1 0.9 -5.4
v 5 0.9 -5.4
v 5.1 1 -5.4
v 5 1 -5.4
v 5.4 0.1 -5.6
v 5.3 0.1 -5.6
v 5.1 0.1 -5.6
v 5 0.1 -5.6
v 5.3 0.2 -5.6
v 5.2 0.2 -5.6
v 5.4 0.3 -5.6
v 5.3 0.3 -5.6
v 5.4 0.5 -5.6
v 5.3 0.5 -5.6
v 5.2 0.5 -5.6
v 5.1 0.5 -5.6
v 5 0.5 -5.6
v 4.7 0.5 -5.6
v 5.5 0.6 -5.6
v 5.4 0.6 -5.6
v 4.7 0.6 -5.6
v 4.6 0.6 -5.6
v 5.5 0.8 -5.6
v 5.2 0.8 -5.6
v 5.1 0.8 -5.6
v 5 0.8 -5.6
v 4.9 0.8 -5.6
v 4.6 0.8 -5.6
v 5.2 0.9 -5.6
v 5.1 0.9 -5.6
v 5 0.9 -5.6
v 4.9 0.9 -5.6
v 5.1 1.1 -5.6
v 5 1.1 -5.6
v 5.5 0.6 -5
v 5.5 0.8 -5
v 5.5 0.6 -5.6
v 5.5 0.8 -5.6
v 5.4 0.6 -4.9
v 5.4 0.8 -4.9
v 5.4 0.5 -5
v 5.4 0.6 -5
v 5.4 0.8 -5
v 5.4 0.1 -5.5
v 5.4 0.3 -5.5
v 5.4 0.1 -5.6
v 5.4 0.3 -5.6
v 5.4 0.5 -5.6
v 5.4 0.6 -5.6
v 5.3 0.3 -5.5
v 5.3 0.5 -5.5
v 5.3 0.3 -5.6
v 5.3 0.5 -5.6
v 5.2 0.8 -5.5
v 5.2 0.9 -5.5
v 5.2 0.8 -5.6
v 5.2 0.9 -5.6
v 5.1 0.9 -5.3
v 5.1 1.1 -5.3
v 5.1 0.9 -5.4
v 5.1 1 -5.4
v 5.1 0.1 -5.5
v 5.1 0.5 -5.5
v 5.1 0.9 -5.5
v 5.1 1 -5.5
v 5.1 0.1 -5.6
v 5.1 0.5 -5.6
v 5.1 0.9 -5.6
v 5.1 1.1 -5.6
v 4.8 0.7 -5
v 4.8 0.8 -5
v 4.8 0.7 -5.1
v 4.8 0.8 -5.1
v 4.7 0.7 -5.1
v 4.7 0.8 -5.1
v 4.7 0.7 -5.5
v 4.7 0.8 -5.5
v 5.4 0.7 -5.1
v 5.4 0.8 -5.1
v 5.4 0.7 -5.5
v 5.4 0.8 -5.5
v 5.3 0.7 -5
v 5.3 0.8 -5
v 5.3 0.7 -5.1
v 5.3 0.8 -5.1
v 5.3 0.1 -5.5
v 5.3 0.2 -5.5
v 5.3 0.1 -5.6
v 5.3 0.2 -5.6
v 5.2 0.2 -5.5
v 5.2 0.5 -5.5
v 5.2 0.2 -5.6
v 5.2 0.5 -5.6
v 5 0.9 -5.3
v 5 1.1 -5.3
v 5 0.9 -5.4
v 5 1 -5.4
v 5 0.1 -5.5
v 5 0.5 -5.5
v 5 0.9 -5.5
v 5 1 -5.5
v 5 0.1 -5.6
v 5 0.5 -5.6
v 5 0.9 -5.6
v 5 1.1 -5.6
v 4.9 0.8 -5.5
v 4.9 0.9 -5.5
v 4.9 0.8 -5.6
v 4.9 0.9 -5.6
v 4.7 0.6 -4.9
v 4.7 0.8 -4.9
v 4.7 0.5 -5
v 4.7 0.6 -5
v 4.7 0.8 -5
v 4.7 0.5 -5.6
v 4.7 0.6 -5.6
v 4.6 0.6 -5
v 4.6 0.8 -5
v 4.6 0.6 -5.6
v 4.6 0.8 -5.6
v 5.4 0.1 -5.5
v 5.4 0.1 -5.6
v 5.3 0.1 -5.5
v 5.3 0.1 -5.6
v 5.1 0.1 -5.5
v 5.1 0.1 -5.6
v 5 0.1 -5.5
v 5 0.1 -5.6
v 5.3 0.2 -5.5
v 5.3 0.2 -5.6
v 5.2 0.2 -5.5
v 5.2 0.2 -5.6
v 5.4 0.5 -5
v 5.4 0.5 -5.6
v 5.3 0.5 -5.5
v 5.3 0.5 -5.6
v 5.2 0.5 -5.5
v 5.2 0.5 -5.6
v 5.1 0.5 -5.5
v 5.1 0.5 -5.6
v 5 0.5 -5.5
v 5 0.5 -5.6
v 4.7 0.5 -5
v 4.7 0.5 -5.6
v 5.5 0.6 -5
v 5.5 0.6 -5.6
v 5.4 0.6 -4.9
v 5.4 0.6 -5
v 5.4 0.6 -5.6
v 4.7 0.6 -4.9
v 4.7 0.6 -5
v 4.7 0.6 -5.6
v 4.6 0.6 -5
v 4.6 0.6 -5.6
v 5.1 0.9 -5.3
v 5.1 0.9 -5.4
v 5 0.9 -5.3
v 5 0.9 -5.4
v 5.1 1 -5.4
v 5.1 1 -5.5
v 5 1 -5.4
v 5 1 -5.5
v 5.4 0.3 -5.5
v 5.4 0.3 -5.6
v 5.3 0.3 -5.5
v 5.3 0.3 -5.6
v 5.4 0.7 -5.1
v 5.4 0.7 -5.5
v 5.3 0.7 -5
v 5.3 0.7 -5.1
v 5.1 0.7 -5.2
v 5.1 0.7 -5.3
v 5 0.7 -5.2
v 5 0.7 -5.3
v 4.8 0.7 -5
v 4.8 0.7 -5.1
v 4.7 0.7 -5.1
v 4.7 0.7 -5.5
v 5.5 0.8 -5
v 5.5 0.8 -5.6
v 5.4 0.8 -4.9
v 5.4 0.8 -5
v 5.4 0.8 -5.1
v 5.4 0.8 -5.5
v 5.3 0.8 -5
v 5.3 0.8 -5.1
v 5.2 0.8 -5.5
v 5.2 0.8 -5.6
v 4.9 0.8 -5.5
v 4.9 0.8 -5.6
v 4.8 0.8 -5
v 4.8 0.8 -5.1
v 4.7 0.8 -4.9
v 4.7 0.8 -5
v 4.7 0.8 -5.1
v 4.7 0.8 -5.5
v 4.6 0.8 -5
v 4.6 0.8 -5.6
v 5.2 0.9 -5.5
v 5.2 0.9 -5.6
v 5.1 0.9 -5.5
v 5.1 0.9 -5.6
v 5 0.9 -5.5
v 5 0.9 -5.6
v 4.9 0.9 -5.5
v 4.9 0.9 -5.6
v 5.1 1.1 -5.3
v 5.1 1.1 -5.6
v 5 1.1 -5.3
v 5 1.1 -5.6

# faces
f 3/3/1 2/3/1 1/3/1
f 4/3/1 2/3/1 3/3/1
f 8/3/1 6/3/1 5/3/1
f 9/3/1 6/3/1 8/3/1
f 11/3/1 8/3/1 7/3/1
f 12/3/1 8/3/1 11/3/1
f 13/3/1 10/3/1 9/3/1
f 14/3/1 10/3/1 13/3/1
f 17/4/1 16/4/1 15/4/1
f 18/4/1 16/4/1 17/4/1
f 23/4/1 20/4/1 19/4/1
f 25/4/1 23/4/1 19/4/1
f 25/4/1 24/4/1 23/4/1
f 26/4/1 24/4/1 25/4/1
f 27/4/1 24/4/1 26/4/1
f 28/4/1 24/4/1 27/4/1
f 29/4/1 22/4/1 21/4/1
f 30/4/1 22/4/1 29/4/1
f 33/3/1 32/3/1 31/3/1
f 34/3/1 32/3/1 33/3/1
f 35/3/1 32/3/1 34/3/1
f 36/3/1 32/3/1 35/3/1
f 37/3/1 32/3/1 36/3/1
f 38/3/1 32/3/1 37/3/1
f 39/1/1 35/1/1 34/1/1
f 40/4/1 36/4/1 35/4/1
f 40/1/1 35/1/1 39/1/1
f 41/2/1 37/2/1 36/2/1
f 41/4/1 36/4/1 40/4/1
f 42/2/1 37/2/1 41/2/1
f 43/4/1 41/4/1 40/4/1
f 44/4/1 41/4/1 43/4/1
f 45/3/2 46/3/2 47/3/2
f 47/3/2 46/3/2 48/3/2
f 49/3/2 50/3/2 53/3/2
f 53/3/2 50/3/2 54/3/2
f 51/3/2 52/3/2 55/3/2
f 55/3/2 52/3/2 56/3/2
f 57/4/2 58/4/2 59/4/2
f 59/4/2 58/4/2 60/4/2
f 61/4/2 62/4/2 65/4/2
f 61/4/2 65/4/2 67/4/2
f 65/4/2 66/4/2 67/4/2
f 67/4/2 66/4/2 68/4/2
f 68/4/2 66/4/2 70/4/2
f 70/4/2 66/4/2 71/4/2
f 63/4/2 64/4/2 72/4/2
f 72/4/2 64/4/2 73/4/2
f 70/3/2 71/3/2 76/3/2
f 73/3/2 74/3/2 76/3/2
f 72/3/2 73/3/2 76/3/2
f 71/3/2 72/3/2 76/3/2
f 69/3/2 70/3/2 76/3/2
f 76/3/2 74/3/2 77/3/2
f 75/3/2 76/3/2 79/3/2
f 77/3/2 78/3/2 79/3/2
f 76/3/2 77/3/2 79/3/2
f 79/3/2 78/3/2 80/3/2
f 80/3/2 78/3/2 81/3/2
f 81/3/2 78/3/2 82/3/2
f 82/3/2 78/3/2 83/3/2
f 83/3/2 78/3/2 84/3/2
f 80/1/2 81/1/2 85/1/2
f 81/4/2 82/4/2 86/4/2
f 85/1/2 81/1/2 86/1/2
f 82/2/2 83/2/2 87/2/2
f 86/4/2 82/4/2 87/4/2
f 87/2/2 83/2/2 88/2/2
f 86/4/2 87/4/2 89/4/2
f 89/4/2 87/4/2 90/4/2
f 93/3/3 92/3/3 91/3/3
f 94/3/3 92/3/3 93/3/3
f 98/3/3 96/3/3 95/3/3
f 99/3/3 96/3/3 98/3/3
f 102/4/3 101/4/3 100/4/3
f 103/4/3 101/4/3 102/4/3
f 104/3/3 98/3/3 97/3/3
f 105/3/3 98/3/3 104/3/3
f 108/4/3 107/4/3 106/4/3
f 109/4/3 107/4/3 108/4/3
f 112/1/3 111/1/3 110/1/3
f 113/1/3 111/1/3 112/1/3
f 116/4/3 115/4/3 114/4/3
f 117/4/3 115/4/3 116/4/3
f 121/4/3 115/4/3 117/4/3
f 122/4/3 119/4/3 118/4/3
f 123/4/3 119/4/3 122/4/3
f 124/4/3 121/4/3 120/4/3
f 125/4/3 115/4/3 121/4/3
f 125/4/3 121/4/3 124/4/3
f 128/3/3 127/3/3 126/3/3
f 129/3/3 127/3/3 128/3/3
f 132/3/3 131/3/3 130/3/3
f 133/3/3 131/3/3 132/3/3
f 134/3/4 135/3/4 136/3/4
f 136/3/4 135/3/4 137/3/4
f 138/3/4 139/3/4 140/3/4
f 140/3/4 139/3/4 141/3/4
f 142/4/4 143/4/4 144/4/4
f 144/4/4 143/4/4 145/4/4
f 146/4/4 147/4/4 148/4/4
f 148/4/4 147/4/4 149/4/4
f 150/4/4 151/4/4 152/4/4
f 152/4/4 151/4/4 153/4/4
f 153/4/4 151/4/4 157/4/4
f 154/4/4 155/4/4 158/4/4
f 158/4/4 155/4/4 159/4/4
f 156/4/4 157/4/4 160/4/4
f 157/4/4 151/4/4 161/4/4
f 160/4/4 157/4/4 161/4/4
f 162/2/4 163/2/4 164/2/4
f 164/2/4 163/2/4 165/2/4
f 166/3/4 167/3/4 169/3/4
f 169/3/4 167/3/4 170/3/4
f 168/3/4 169/3/4 171/3/4
f 171/3/4 169/3/4 172/3/4
f 173/3/4 174/3/4 175/3/4
f 175/3/4 174/3/4 176/3/4
f 179/4/5 178/4/5 177/4/5
f 180/4/5 178/4/5 179/4/5
f 183/4/5 182/4/5 181/4/5
f 184/4/5 182/4/5 183/4/5
f 187/4/5 186/4/5 185/4/5
f 188/4/5 186/4/5 187/4/5
f 191/3/5 190/3/5 189/3/5
f 192/3/5 190/3/5 191/3/5
f 193/3/5 191/3/5 189/3/5
f 195/3/5 193/3/5 189/3/5
f 195/3/5 194/3/5 193/3/5
f 196/3/5 194/3/5 195/3/5
f 197/3/5 195/3/5 189/3/5
f 199/3/5 197/3/5 189/3/5
f 199/3/5 198/3/5 197/3/5
f 200/3/5 198/3/5 199/3/5
f 204/3/5 202/3/5 201/3/5
f 205/3/5 202/3/5 204/3/5
f 206/3/5 204/3/5 203/3/5
f 207/3/5 204/3/5 206/3/5
f 209/3/5 208/3/5 207/3/5
f 210/3/5 208/3/5 209/3/5
f 213/4/5 212/4/5 211/4/5
f 214/4/5 212/4/5 213/4/5
f 217/4/5 216/4/5 215/4/5
f 218/4/5 216/4/5 217/4/5
f 219/4/6 220/4/6 221/4/6
f 221/4/6 220/4/6 222/4/6
f 223/3/6 224/3/6 226/3/6
f 226/3/6 224/3/6 227/3/6
f 225/3/6 226/3/6 227/3/6
f 227/3/6 224/3/6 228/3/6
f 225/3/6 227/3/6 229/3/6
f 227/4/6 228/4/6 229/4/6
f 228/3/6 224/3/6 230/3/6
f 229/4/6 228/4/6 230/4/6
f 225/3/6 229/3/6 231/3/6
f 229/3/6 230/3/6 231/3/6
f 231/3/6 230/3/6 232/3/6
f 232/3/6 230/3/6 233/3/6
f 230/3/6 224/3/6 234/3/6
f 233/3/6 230/3/6 234/3/6
f 235/3/6 236/3/6 238/3/6
f 238/3/6 236/3/6 239/3/6
f 239/3/6 236/3/6 240/3/6
f 237/3/6 238/3/6 241/3/6
f 238/3/6 239/3/6 241/3/6
f 241/3/6 239/3/6 242/3/6
f 240/3/6 236/3/6 243/3/6
f 243/3/6 236/3/6 244/3/6
f 237/3/6 241/3/6 247/3/6
f 237/3/6 247/3/6 249/3/6
f 247/3/6 248/3/6 249/3/6
f 249/3/6 248/3/6 250/3/6
f 250/3/6 248/3/6 251/3/6
f 245/3/6 246/3/6 252/3/6
f 250/3/6 251/3/6 253/3/6
f 251/3/6 252/3/6 253/3/6
f 252/3/6 246/3/6 254/3/6
f 253/3/6 252/3/6 254/3/6
f 255/1/6 256/1/6 257/1/6
f 257/1/6 256/1/6 258/1/6
f 259/2/6 260/2/6 261/2/6
f 261/2/6 260/2/6 262/2/6
f 263/4/6 264/4/6 265/4/6
f 265/4/6 264/4/6 266/4/6
