# MagicaVoxel @ Ephtracy

# group
o 

# material
mtllib window.mtl
usemtl palette

# normals
vn -1 0 0
vn 1 0 0
vn 0 0 1
vn 0 0 -1
vn 0 -1 0
vn 0 1 0

# texcoords
vt 0.283203 0.5
vt 0.962891 0.5
vt 0.982422 0.5
vt 0.986328 0.5

# verts
v -2.5 0 2.2
v -2.5 0 -2.2
v -2.5 2 1.7
v -2.5 2 -1.7
v -2.5 2.1 1.6
v -2.5 2.1 -1.6
v -2.5 4 1.6
v -2.5 4 -1.6
v -2.5 4.1 1.7
v -2.5 4.1 -1.7
v -2.5 5 2.2
v -2.5 5 -2.2
v -2.3 0 2.2
v -2.3 0 2.1
v -2.3 0 -2.1
v -2.3 0 -2.2
v -2.3 0.5 2.1
v -2.3 0.5 -2.1
v -2.3 1.8 1.7
v -2.3 1.8 -1.7
v -2.3 2 1.7
v -2.3 2 -1.7
v -2.3 2.2 1.5
v -2.3 2.2 -1.5
v -2.3 3.9 1.5
v -2.3 3.9 -1.5
v -2.3 4.1 1.7
v -2.3 4.1 -1.7
v -2.3 5 2.2
v -2.3 5 -2.2
v -2.2 0 2.1
v -2.2 0 2
v -2.2 0 -2
v -2.2 0 -2.1
v -2.2 0.4 2
v -2.2 0.4 -2
v -2.2 0.5 2.1
v -2.2 0.5 -2.1
v -2.2 1.8 1.7
v -2.2 1.8 -1.7
v -2.2 2 1.7
v -2.2 2 -1.7
v -2.2 2.1 1.6
v -2.2 2.1 -1.6
v -2.2 2.2 1.5
v -2.2 2.2 -1.5
v -2.2 3.9 1.5
v -2.2 3.9 -1.5
v -2.2 4 1.6
v -2.2 4 -1.6
v -2.2 4.1 1.7
v -2.2 4.1 -1.7
v -2.1 0 2
v -2.1 0 1.9
v -2.1 0 -1.9
v -2.1 0 -2
v -2.1 0.3 1.9
v -2.1 0.3 -1.9
v -2.1 0.4 2
v -2.1 0.4 -2
v -2 0 1.9
v -2 0 1.8
v -2 0 -1.8
v -2 0 -1.9
v -2 0.2 1.8
v -2 0.2 -1.8
v -2 0.3 1.9
v -2 0.3 -1.9
v -1.9 0 1.8
v -1.9 0 1.7
v -1.9 0 -1.7
v -1.9 0 -1.8
v -1.9 0.1 1.7
v -1.9 0.1 -1.7
v -1.9 0.2 1.8
v -1.9 0.2 -1.8
v -1.8 0 1.7
v -1.8 0 -1.7
v -1.8 0.1 1.7
v -1.8 0.1 -1.7
v -2.5 0 2.2
v -2.5 5 2.2
v -2.3 0 2.2
v -2.3 5 2.2
v -2.3 0 2.1
v -2.3 0.5 2.1
v -2.2 0 2.1
v -2.2 0.5 2.1
v -2.2 0 2
v -2.2 0.4 2
v -2.1 0 2
v -2.1 0.4 2
v -2.1 0 1.9
v -2.1 0.3 1.9
v -2 0 1.9
v -2 0.3 1.9
v -2 0 1.8
v -2 0.2 1.8
v -1.9 0 1.8
v -1.9 0.2 1.8
v -2.3 1.8 1.7
v -2.3 2 1.7
v -2.3 4.1 1.7
v -2.2 1.8 1.7
v -2.2 2 1.7
v -2.2 4.1 1.7
v -1.9 0 1.7
v -1.9 0.1 1.7
v -1.8 0 1.7
v -1.8 0.1 1.7
v -2.3 2.2 -1.5
v -2.3 3.9 -1.5
v -2.2 2.2 -1.5
v -2.2 3.9 -1.5
v -2.3 2.2 1.5
v -2.3 3.9 1.5
v -2.2 2.2 1.5
v -2.2 3.9 1.5
v -2.3 1.8 -1.7
v -2.3 2 -1.7
v -2.3 4.1 -1.7
v -2.2 1.8 -1.7
v -2.2 2 -1.7
v -2.2 4.1 -1.7
v -1.9 0 -1.7
v -1.9 0.1 -1.7
v -1.8 0 -1.7
v -1.8 0.1 -1.7
v -2 0 -1.8
v -2 0.2 -1.8
v -1.9 0 -1.8
v -1.9 0.2 -1.8
v -2.1 0 -1.9
v -2.1 0.3 -1.9
v -2 0 -1.9
v -2 0.3 -1.9
v -2.2 0 -2
v -2.2 0.4 -2
v -2.1 0 -2
v -2.1 0.4 -2
v -2.3 0 -2.1
v -2.3 0.5 -2.1
v -2.2 0 -2.1
v -2.2 0.5 -2.1
v -2.5 0 -2.2
v -2.5 5 -2.2
v -2.3 0 -2.2
v -2.3 5 -2.2
v -2.5 0 2.2
v -2.3 0 2.2
v -2.3 0 2.1
v -2.2 0 2.1
v -2.2 0 2
v -2.1 0 2
v -2.1 0 1.9
v -2 0 1.9
v -2 0 1.8
v -1.9 0 1.8
v -1.9 0 1.7
v -1.8 0 1.7
v -1.9 0 -1.7
v -1.8 0 -1.7
v -2 0 -1.8
v -1.9 0 -1.8
v -2.1 0 -1.9
v -2 0 -1.9
v -2.2 0 -2
v -2.1 0 -2
v -2.3 0 -2.1
v -2.2 0 -2.1
v -2.5 0 -2.2
v -2.3 0 -2.2
v -2.3 1.8 1.7
v -2.2 1.8 1.7
v -2.3 1.8 -1.7
v -2.2 1.8 -1.7
v -2.3 3.9 1.5
v -2.2 3.9 1.5
v -2.3 3.9 -1.5
v -2.2 3.9 -1.5
v -1.9 0.1 1.7
v -1.8 0.1 1.7
v -1.9 0.1 -1.7
v -1.8 0.1 -1.7
v -2 0.2 1.8
v -1.9 0.2 1.8
v -2 0.2 -1.8
v -1.9 0.2 -1.8
v -2.1 0.3 1.9
v -2 0.3 1.9
v -2.1 0.3 -1.9
v -2 0.3 -1.9
v -2.2 0.4 2
v -2.1 0.4 2
v -2.2 0.4 -2
v -2.1 0.4 -2
v -2.3 0.5 2.1
v -2.2 0.5 2.1
v -2.3 0.5 -2.1
v -2.2 0.5 -2.1
v -2.3 2.2 1.5
v -2.2 2.2 1.5
v -2.3 2.2 -1.5
v -2.2 2.2 -1.5
v -2.3 4.1 1.7
v -2.2 4.1 1.7
v -2.3 4.1 -1.7
v -2.2 4.1 -1.7
v -2.5 5 2.2
v -2.3 5 2.2
v -2.5 5 -2.2
v -2.3 5 -2.2

# faces
f 3/2/1 2/2/1 1/2/1
f 4/2/1 2/2/1 3/2/1
f 5/3/1 4/3/1 3/3/1
f 6/3/1 4/3/1 5/3/1
f 7/3/1 5/3/1 3/3/1
f 7/1/1 6/1/1 5/1/1
f 8/3/1 4/3/1 6/3/1
f 8/1/1 6/1/1 7/1/1
f 9/2/1 3/2/1 1/2/1
f 9/3/1 7/3/1 3/3/1
f 9/3/1 8/3/1 7/3/1
f 10/3/1 4/3/1 8/3/1
f 10/3/1 8/3/1 9/3/1
f 10/2/1 2/2/1 4/2/1
f 11/2/1 9/2/1 1/2/1
f 11/2/1 10/2/1 9/2/1
f 12/2/1 2/2/1 10/2/1
f 12/2/1 10/2/1 11/2/1
f 13/2/2 14/2/2 17/2/2
f 15/2/2 16/2/2 18/2/2
f 17/2/2 18/2/2 19/2/2
f 19/2/2 18/2/2 20/2/2
f 17/2/2 19/2/2 21/2/2
f 20/2/2 18/2/2 22/2/2
f 23/1/2 24/1/2 25/1/2
f 25/1/2 24/1/2 26/1/2
f 17/2/2 21/2/2 27/2/2
f 22/2/2 18/2/2 28/2/2
f 13/2/2 17/2/2 29/2/2
f 27/2/2 28/2/2 29/2/2
f 17/2/2 27/2/2 29/2/2
f 28/2/2 18/2/2 30/2/2
f 29/2/2 28/2/2 30/2/2
f 18/2/2 16/2/2 30/2/2
f 31/2/2 32/2/2 35/2/2
f 33/2/2 34/2/2 36/2/2
f 31/2/2 35/2/2 37/2/2
f 35/2/2 36/2/2 37/2/2
f 36/2/2 34/2/2 38/2/2
f 37/2/2 36/2/2 38/2/2
f 39/4/2 40/4/2 41/4/2
f 41/4/2 40/4/2 42/4/2
f 41/3/2 42/3/2 43/3/2
f 43/3/2 42/3/2 44/3/2
f 43/4/2 44/4/2 45/4/2
f 45/4/2 44/4/2 46/4/2
f 43/4/2 45/4/2 47/4/2
f 46/4/2 44/4/2 48/4/2
f 41/3/2 43/3/2 49/3/2
f 47/4/2 48/4/2 49/4/2
f 43/4/2 47/4/2 49/4/2
f 48/4/2 44/4/2 50/4/2
f 49/4/2 48/4/2 50/4/2
f 44/3/2 42/3/2 50/3/2
f 41/3/2 49/3/2 51/3/2
f 49/3/2 50/3/2 51/3/2
f 50/3/2 42/3/2 52/3/2
f 51/3/2 50/3/2 52/3/2
f 53/2/2 54/2/2 57/2/2
f 55/2/2 56/2/2 58/2/2
f 53/2/2 57/2/2 59/2/2
f 57/2/2 58/2/2 59/2/2
f 58/2/2 56/2/2 60/2/2
f 59/2/2 58/2/2 60/2/2
f 61/2/2 62/2/2 65/2/2
f 63/2/2 64/2/2 66/2/2
f 61/2/2 65/2/2 67/2/2
f 65/2/2 66/2/2 67/2/2
f 66/2/2 64/2/2 68/2/2
f 67/2/2 66/2/2 68/2/2
f 69/2/2 70/2/2 73/2/2
f 71/2/2 72/2/2 74/2/2
f 69/2/2 73/2/2 75/2/2
f 73/2/2 74/2/2 75/2/2
f 74/2/2 72/2/2 76/2/2
f 75/2/2 74/2/2 76/2/2
f 77/2/2 78/2/2 79/2/2
f 79/2/2 78/2/2 80/2/2
f 83/2/3 82/2/3 81/2/3
f 84/2/3 82/2/3 83/2/3
f 87/2/3 86/2/3 85/2/3
f 88/2/3 86/2/3 87/2/3
f 91/2/3 90/2/3 89/2/3
f 92/2/3 90/2/3 91/2/3
f 95/2/3 94/2/3 93/2/3
f 96/2/3 94/2/3 95/2/3
f 99/2/3 98/2/3 97/2/3
f 100/2/3 98/2/3 99/2/3
f 104/4/3 102/4/3 101/4/3
f 105/3/3 103/3/3 102/3/3
f 105/4/3 102/4/3 104/4/3
f 106/3/3 103/3/3 105/3/3
f 109/2/3 108/2/3 107/2/3
f 110/2/3 108/2/3 109/2/3
f 113/4/3 112/4/3 111/4/3
f 114/4/3 112/4/3 113/4/3
f 115/4/4 116/4/4 117/4/4
f 117/4/4 116/4/4 118/4/4
f 119/4/4 120/4/4 122/4/4
f 120/3/4 121/3/4 123/3/4
f 122/4/4 120/4/4 123/4/4
f 123/3/4 121/3/4 124/3/4
f 125/2/4 126/2/4 127/2/4
f 127/2/4 126/2/4 128/2/4
f 129/2/4 130/2/4 131/2/4
f 131/2/4 130/2/4 132/2/4
f 133/2/4 134/2/4 135/2/4
f 135/2/4 134/2/4 136/2/4
f 137/2/4 138/2/4 139/2/4
f 139/2/4 138/2/4 140/2/4
f 141/2/4 142/2/4 143/2/4
f 143/2/4 142/2/4 144/2/4
f 145/2/4 146/2/4 147/2/4
f 147/2/4 146/2/4 148/2/4
f 151/2/5 150/2/5 149/2/5
f 153/2/5 152/2/5 151/2/5
f 155/2/5 154/2/5 153/2/5
f 157/2/5 156/2/5 155/2/5
f 159/2/5 158/2/5 157/2/5
f 161/2/5 159/2/5 157/2/5
f 161/2/5 160/2/5 159/2/5
f 162/2/5 160/2/5 161/2/5
f 163/2/5 157/2/5 155/2/5
f 163/2/5 161/2/5 157/2/5
f 164/2/5 161/2/5 163/2/5
f 165/2/5 155/2/5 153/2/5
f 165/2/5 163/2/5 155/2/5
f 166/2/5 163/2/5 165/2/5
f 167/2/5 153/2/5 151/2/5
f 167/2/5 165/2/5 153/2/5
f 168/2/5 165/2/5 167/2/5
f 169/2/5 151/2/5 149/2/5
f 169/2/5 167/2/5 151/2/5
f 170/2/5 167/2/5 169/2/5
f 171/2/5 169/2/5 149/2/5
f 172/2/5 169/2/5 171/2/5
f 175/4/5 174/4/5 173/4/5
f 176/4/5 174/4/5 175/4/5
f 179/4/5 178/4/5 177/4/5
f 180/4/5 178/4/5 179/4/5
f 181/2/6 182/2/6 183/2/6
f 183/2/6 182/2/6 184/2/6
f 185/2/6 186/2/6 187/2/6
f 187/2/6 186/2/6 188/2/6
f 189/2/6 190/2/6 191/2/6
f 191/2/6 190/2/6 192/2/6
f 193/2/6 194/2/6 195/2/6
f 195/2/6 194/2/6 196/2/6
f 197/2/6 198/2/6 199/2/6
f 199/2/6 198/2/6 200/2/6
f 201/4/6 202/4/6 203/4/6
f 203/4/6 202/4/6 204/4/6
f 205/3/6 206/3/6 207/3/6
f 207/3/6 206/3/6 208/3/6
f 209/2/6 210/2/6 211/2/6
f 211/2/6 210/2/6 212/2/6
