# MagicaVoxel @ Ephtracy

# group
o 

# material
mtllib human2.mtl
usemtl palette

# normals
vn -1 0 0
vn 1 0 0
vn 0 0 1
vn 0 0 -1
vn 0 -1 0
vn 0 1 0

# texcoords
vt 0.0566406 0.5
vt 0.0644531 0.5
vt 0.287109 0.5
vt 0.744141 0.5
vt 0.919922 0.5
vt 0.943359 0.5
vt 0.955078 0.5
vt 0.958984 0.5
vt 0.986328 0.5
vt 0.994141 0.5

# verts
v -0.5 1 4.3
v -0.5 1 3.8
v -0.5 1.1 4.5
v -0.5 1.1 4.3
v -0.5 1.1 3.8
v -0.5 1.1 3.6
v -0.5 1.3 4.5
v -0.5 1.3 4.4
v -0.5 1.3 3.7
v -0.5 1.3 3.6
v -0.5 1.6 4.4
v -0.5 1.6 3.7
v -0.4 0.3 4.4
v -0.4 0.3 3.7
v -0.4 0.4 4.4
v -0.4 0.4 3.7
v -0.4 0.5 4.4
v -0.4 0.5 3.7
v -0.4 0.9 4.4
v -0.4 0.9 3.7
v -0.4 1 4.4
v -0.4 1 4.3
v -0.4 1 3.8
v -0.4 1 3.7
v -0.4 1.1 4.4
v -0.4 1.1 4.3
v -0.4 1.1 3.8
v -0.4 1.1 3.7
v -0.4 1.3 4.5
v -0.4 1.3 4.4
v -0.4 1.3 3.7
v -0.4 1.3 3.6
v -0.4 1.6 4.5
v -0.4 1.6 4.4
v -0.4 1.6 3.7
v -0.4 1.6 3.6
v -0.4 1.7 4.4
v -0.4 1.7 3.7
v -0.3 0.4 4.4
v -0.3 0.4 3.7
v -0.3 0.5 4.4
v -0.3 0.5 3.7
v -0.3 0.9 4.3
v -0.3 0.9 3.8
v -0.3 1 4.3
v -0.3 1 3.8
v -0.2 0 4.3
v -0.2 0 4.1
v -0.2 0 4
v -0.2 0 3.8
v -0.2 0.3 4.6
v -0.2 0.3 4.5
v -0.2 0.3 4.3
v -0.2 0.3 4.1
v -0.2 0.3 4
v -0.2 0.3 3.8
v -0.2 0.3 3.6
v -0.2 0.3 3.5
v -0.2 0.4 4.5
v -0.2 0.4 4.4
v -0.2 0.4 4.3
v -0.2 0.4 4.1
v -0.2 0.4 4
v -0.2 0.4 3.8
v -0.2 0.4 3.7
v -0.2 0.4 3.6
v -0.2 0.5 4.6
v -0.2 0.5 4.4
v -0.2 0.5 3.7
v -0.2 0.5 3.5
v -0.2 0.9 4.6
v -0.2 0.9 4.4
v -0.2 0.9 3.7
v -0.2 0.9 3.5
v 0.1 0.3 4.3
v 0.1 0.3 3.8
v 0.1 0.4 4.3
v 0.1 0.4 3.8
v -0.3 0.3 4.3
v -0.3 0.3 3.8
v -0.3 0.4 4.3
v -0.3 0.4 3.8
v -0.1 1.1 4.5
v -0.1 1.1 4.4
v -0.1 1.1 3.7
v -0.1 1.1 3.6
v -0.1 1.2 4.5
v -0.1 1.2 4.4
v -0.1 1.2 3.7
v -0.1 1.2 3.6
v 0 0.2 4.3
v 0 0.2 4.1
v 0 0.2 4
v 0 0.2 3.8
v 0 0.3 4.3
v 0 0.3 4.1
v 0 0.3 4
v 0 0.3 3.8
v 0 0.4 4.3
v 0 0.4 4.1
v 0 0.4 4
v 0 0.4 3.8
v 0 1.2 4.5
v 0 1.2 4.4
v 0 1.2 3.7
v 0 1.2 3.6
v 0 1.3 4.5
v 0 1.3 4.4
v 0 1.3 3.7
v 0 1.3 3.6
v 0.1 0 4.3
v 0.1 0 4.1
v 0.1 0 4
v 0.1 0 3.8
v 0.1 0.2 4.3
v 0.1 0.2 4.1
v 0.1 0.2 4
v 0.1 0.2 3.8
v 0.1 0.3 4.6
v 0.1 0.3 4.5
v 0.1 0.3 3.6
v 0.1 0.3 3.5
v 0.1 0.4 4.5
v 0.1 0.4 4.4
v 0.1 0.4 3.7
v 0.1 0.4 3.6
v 0.1 0.5 4.6
v 0.1 0.5 4.4
v 0.1 0.5 4.1
v 0.1 0.5 4
v 0.1 0.5 3.7
v 0.1 0.5 3.5
v 0.1 0.9 4.6
v 0.1 0.9 4.4
v 0.1 0.9 4.3
v 0.1 0.9 3.8
v 0.1 0.9 3.7
v 0.1 0.9 3.5
v 0.1 1 4.3
v 0.1 1 3.8
v 0.2 0.3 4.4
v 0.2 0.3 3.7
v 0.2 0.4 4.4
v 0.2 0.4 3.7
v 0.2 0.5 4.4
v 0.2 0.5 4.1
v 0.2 0.5 4
v 0.2 0.5 3.7
v 0.2 0.6 4.1
v 0.2 0.6 4
v 0.2 0.7 4.1
v 0.2 0.7 4
v 0.2 0.8 4.1
v 0.2 0.8 4
v 0.2 0.9 4.4
v 0.2 0.9 3.7
v 0.2 1 4.4
v 0.2 1 3.7
v 0.2 1.2 4.3
v 0.2 1.2 4.2
v 0.2 1.2 4.1
v 0.2 1.2 4
v 0.2 1.2 3.9
v 0.2 1.2 3.8
v 0.2 1.3 4.5
v 0.2 1.3 4.4
v 0.2 1.3 3.7
v 0.2 1.3 3.6
v 0.2 1.4 4.3
v 0.2 1.4 4.2
v 0.2 1.4 4.1
v 0.2 1.4 4
v 0.2 1.4 3.9
v 0.2 1.4 3.8
v 0.2 1.5 4.4
v 0.2 1.5 4.3
v 0.2 1.5 4.1
v 0.2 1.5 4
v 0.2 1.5 3.8
v 0.2 1.5 3.7
v 0.2 1.6 4.5
v 0.2 1.6 4.4
v 0.2 1.6 3.7
v 0.2 1.6 3.6
v 0.3 1.2 4.1
v 0.3 1.2 4
v 0.3 1.4 4.3
v 0.3 1.4 4.1
v 0.3 1.4 4
v 0.3 1.4 3.8
v 0.3 1.5 4.4
v 0.3 1.5 4.3
v 0.3 1.5 4.1
v 0.3 1.5 4
v 0.3 1.5 3.8
v 0.3 1.5 3.7
v 0.3 1.7 4.4
v 0.3 1.7 3.7
v -0.2 0.3 4.6
v -0.2 0.5 4.6
v -0.2 0.9 4.6
v 0.1 0.3 4.6
v 0.1 0.5 4.6
v 0.1 0.9 4.6
v -0.5 1.1 4.5
v -0.5 1.3 4.5
v -0.4 1.3 4.5
v -0.4 1.6 4.5
v -0.1 1.1 4.5
v -0.1 1.2 4.5
v -0.1 1.4 4.5
v 0 1.2 4.5
v 0 1.3 4.5
v 0 1.4 4.5
v 0.2 1.3 4.5
v 0.2 1.6 4.5
v -0.5 1.3 4.4
v -0.5 1.6 4.4
v -0.4 0.3 4.4
v -0.4 0.4 4.4
v -0.4 0.5 4.4
v -0.4 0.9 4.4
v -0.4 1 4.4
v -0.4 1.1 4.4
v -0.4 1.3 4.4
v -0.4 1.6 4.4
v -0.4 1.7 4.4
v -0.3 0.4 4.4
v -0.3 0.5 4.4
v -0.2 0.4 4.4
v -0.2 0.5 4.4
v -0.2 0.9 4.4
v -0.1 1.1 4.4
v -0.1 1.2 4.4
v 0 1.2 4.4
v 0 1.3 4.4
v 0.1 0.4 4.4
v 0.1 0.5 4.4
v 0.1 0.9 4.4
v 0.2 0.3 4.4
v 0.2 0.4 4.4
v 0.2 0.5 4.4
v 0.2 0.9 4.4
v 0.2 1 4.4
v 0.2 1.3 4.4
v 0.2 1.5 4.4
v 0.2 1.6 4.4
v 0.3 1.5 4.4
v 0.3 1.7 4.4
v -0.5 1 4.3
v -0.5 1.1 4.3
v -0.4 1 4.3
v -0.4 1.1 4.3
v -0.3 0.9 4.3
v -0.3 1 4.3
v -0.2 0 4.3
v -0.2 0.3 4.3
v 0 0.2 4.3
v 0 0.3 4.3
v 0.1 0 4.3
v 0.1 0.2 4.3
v 0.1 0.9 4.3
v 0.1 1 4.3
v 0.2 1.4 4.3
v 0.2 1.5 4.3
v 0.3 1.4 4.3
v 0.3 1.5 4.3
v 0.2 1.2 4.1
v 0.2 1.4 4.1
v 0.3 1.2 4.1
v 0.3 1.4 4.1
v -0.2 0 4
v -0.2 0.3 4
v -0.2 0.4 4
v 0 0.2 4
v 0 0.3 4
v 0 0.4 4
v 0.1 0 4
v 0.1 0.2 4
v 0.2 1.4 4
v 0.2 1.5 4
v 0.3 1.4 4
v 0.3 1.5 4
v -0.3 0.3 3.8
v -0.3 0.4 3.8
v -0.2 0.3 3.8
v -0.2 0.4 3.8
v 0 0.3 3.8
v 0 0.4 3.8
v 0.1 0.3 3.8
v 0.1 0.4 3.8
v -0.2 0.3 3.6
v -0.2 0.4 3.6
v 0.1 0.3 3.6
v 0.1 0.4 3.6
v -0.2 0.3 4.5
v -0.2 0.4 4.5
v 0.1 0.3 4.5
v 0.1 0.4 4.5
v -0.3 0.3 4.3
v -0.3 0.4 4.3
v -0.2 0.3 4.3
v -0.2 0.4 4.3
v 0 0.3 4.3
v 0 0.4 4.3
v 0.1 0.3 4.3
v 0.1 0.4 4.3
v -0.2 0 4.1
v -0.2 0.3 4.1
v -0.2 0.4 4.1
v 0 0.2 4.1
v 0 0.3 4.1
v 0 0.4 4.1
v 0.1 0 4.1
v 0.1 0.2 4.1
v 0.2 1.4 4.1
v 0.2 1.5 4.1
v 0.3 1.4 4.1
v 0.3 1.5 4.1
v 0.2 1.2 4
v 0.2 1.4 4
v 0.3 1.2 4
v 0.3 1.4 4
v -0.5 1 3.8
v -0.5 1.1 3.8
v -0.4 1 3.8
v -0.4 1.1 3.8
v -0.3 0.9 3.8
v -0.3 1 3.8
v -0.2 0 3.8
v -0.2 0.3 3.8
v 0 0.2 3.8
v 0 0.3 3.8
v 0.1 0 3.8
v 0.1 0.2 3.8
v 0.1 0.9 3.8
v 0.1 1 3.8
v 0.2 1.4 3.8
v 0.2 1.5 3.8
v 0.3 1.4 3.8
v 0.3 1.5 3.8
v -0.5 1.3 3.7
v -0.5 1.6 3.7
v -0.4 0.3 3.7
v -0.4 0.4 3.7
v -0.4 0.5 3.7
v -0.4 0.9 3.7
v -0.4 1 3.7
v -0.4 1.1 3.7
v -0.4 1.3 3.7
v -0.4 1.6 3.7
v -0.4 1.7 3.7
v -0.3 0.4 3.7
v -0.3 0.5 3.7
v -0.2 0.4 3.7
v -0.2 0.5 3.7
v -0.2 0.9 3.7
v -0.1 1.1 3.7
v -0.1 1.2 3.7
v 0 1.2 3.7
v 0 1.3 3.7
v 0.1 0.4 3.7
v 0.1 0.5 3.7
v 0.1 0.9 3.7
v 0.2 0.3 3.7
v 0.2 0.4 3.7
v 0.2 0.5 3.7
v 0.2 0.9 3.7
v 0.2 1 3.7
v 0.2 1.3 3.7
v 0.2 1.5 3.7
v 0.2 1.6 3.7
v 0.3 1.5 3.7
v 0.3 1.7 3.7
v -0.5 1.1 3.6
v -0.5 1.3 3.6
v -0.4 1.3 3.6
v -0.4 1.6 3.6
v -0.1 1.1 3.6
v -0.1 1.2 3.6
v -0.1 1.4 3.6
v 0 1.2 3.6
v 0 1.3 3.6
v 0 1.4 3.6
v 0.2 1.3 3.6
v 0.2 1.6 3.6
v -0.2 0.3 3.5
v -0.2 0.5 3.5
v -0.2 0.9 3.5
v 0.1 0.3 3.5
v 0.1 0.5 3.5
v 0.1 0.9 3.5
v -0.2 0 4.3
v 0.1 0 4.3
v -0.2 0 4.1
v 0.1 0 4.1
v -0.2 0 4
v 0.1 0 4
v -0.2 0 3.8
v 0.1 0 3.8
v -0.2 0.3 4.6
v 0.1 0.3 4.6
v -0.2 0.3 4.5
v 0.1 0.3 4.5
v -0.4 0.3 4.4
v 0.2 0.3 4.4
v -0.3 0.3 4.3
v -0.2 0.3 4.3
v 0 0.3 4.3
v 0.1 0.3 4.3
v -0.3 0.3 3.8
v -0.2 0.3 3.8
v 0 0.3 3.8
v 0.1 0.3 3.8
v -0.4 0.3 3.7
v 0.2 0.3 3.7
v -0.2 0.3 3.6
v 0.1 0.3 3.6
v -0.2 0.3 3.5
v 0.1 0.3 3.5
v -0.2 0.4 4.5
v 0.1 0.4 4.5
v -0.2 0.4 4.4
v 0.1 0.4 4.4
v -0.3 0.4 4.3
v -0.2 0.4 4.3
v 0 0.4 4.3
v 0.1 0.4 4.3
v -0.2 0.4 4.1
v 0 0.4 4.1
v -0.2 0.4 4
v 0 0.4 4
v -0.3 0.4 3.8
v -0.2 0.4 3.8
v 0 0.4 3.8
v 0.1 0.4 3.8
v -0.2 0.4 3.7
v 0.1 0.4 3.7
v -0.2 0.4 3.6
v 0.1 0.4 3.6
v -0.4 0.5 4.4
v -0.3 0.5 4.4
v 0.1 0.5 4.4
v 0.2 0.5 4.4
v 0.1 0.5 4.1
v 0.2 0.5 4.1
v 0.1 0.5 4
v 0.2 0.5 4
v -0.4 0.5 3.7
v -0.3 0.5 3.7
v 0.1 0.5 3.7
v 0.2 0.5 3.7
v -0.4 1 4.4
v 0.2 1 4.4
v -0.5 1 4.3
v -0.4 1 4.3
v -0.3 1 4.3
v 0.1 1 4.3
v -0.5 1 3.8
v -0.4 1 3.8
v -0.3 1 3.8
v 0.1 1 3.8
v -0.4 1 3.7
v 0.2 1 3.7
v -0.5 1.1 4.5
v -0.1 1.1 4.5
v -0.4 1.1 4.4
v -0.1 1.1 4.4
v -0.5 1.1 4.3
v -0.4 1.1 4.3
v -0.5 1.1 3.8
v -0.4 1.1 3.8
v -0.4 1.1 3.7
v -0.1 1.1 3.7
v -0.5 1.1 3.6
v -0.1 1.1 3.6
v -0.1 1.2 4.5
v 0 1.2 4.5
v -0.1 1.2 4.4
v 0 1.2 4.4
v 0.2 1.2 4.1
v 0.3 1.2 4.1
v 0.2 1.2 4
v 0.3 1.2 4
v -0.1 1.2 3.7
v 0 1.2 3.7
v -0.1 1.2 3.6
v 0 1.2 3.6
v 0 1.3 4.5
v 0.2 1.3 4.5
v 0 1.3 4.4
v 0.2 1.3 4.4
v 0 1.3 3.7
v 0.2 1.3 3.7
v 0 1.3 3.6
v 0.2 1.3 3.6
v 0.2 1.4 4.3
v 0.3 1.4 4.3
v 0.2 1.4 4.2
v 0.2 1.4 4.1
v 0.3 1.4 4.1
v 0.2 1.4 4
v 0.3 1.4 4
v 0.2 1.4 3.9
v 0.2 1.4 3.8
v 0.3 1.4 3.8
v 0.2 1.5 4.4
v 0.3 1.5 4.4
v 0.2 1.5 4.3
v 0.3 1.5 4.3
v 0.2 1.5 4.1
v 0.3 1.5 4.1
v 0.2 1.5 4
v 0.3 1.5 4
v 0.2 1.5 3.8
v 0.3 1.5 3.8
v 0.2 1.5 3.7
v 0.3 1.5 3.7
v 0 0.2 4.3
v 0.1 0.2 4.3
v 0 0.2 4.1
v 0.1 0.2 4.1
v 0 0.2 4
v 0.1 0.2 4
v 0 0.2 3.8
v 0.1 0.2 3.8
v -0.4 0.4 4.4
v -0.3 0.4 4.4
v 0.1 0.4 4.4
v 0.2 0.4 4.4
v -0.4 0.4 3.7
v -0.3 0.4 3.7
v 0.1 0.4 3.7
v 0.2 0.4 3.7
v -0.2 0.9 4.6
v 0.1 0.9 4.6
v -0.4 0.9 4.4
v -0.2 0.9 4.4
v 0.1 0.9 4.4
v 0.2 0.9 4.4
v -0.3 0.9 4.3
v 0.1 0.9 4.3
v -0.3 0.9 3.8
v 0.1 0.9 3.8
v -0.4 0.9 3.7
v -0.2 0.9 3.7
v 0.1 0.9 3.7
v 0.2 0.9 3.7
v -0.2 0.9 3.5
v 0.1 0.9 3.5
v -0.5 1.3 4.5
v -0.4 1.3 4.5
v -0.5 1.3 4.4
v -0.4 1.3 4.4
v -0.5 1.3 3.7
v -0.4 1.3 3.7
v -0.5 1.3 3.6
v -0.4 1.3 3.6
v 0.2 1.4 4.1
v 0.3 1.4 4.1
v 0.2 1.4 4
v 0.3 1.4 4
v -0.4 1.6 4.5
v 0.2 1.6 4.5
v -0.5 1.6 4.4
v -0.4 1.6 4.4
v 0.2 1.6 4.4
v -0.5 1.6 3.7
v -0.4 1.6 3.7
v 0.2 1.6 3.7
v -0.4 1.6 3.6
v 0.2 1.6 3.6
v -0.4 1.7 4.4
v 0.3 1.7 4.4
v -0.4 1.7 3.7
v 0.3 1.7 3.7

# faces
f 4/7/1 2/7/1 1/7/1
f 5/7/1 2/7/1 4/7/1
f 7/7/1 4/7/1 3/7/1
f 7/7/1 6/7/1 5/7/1
f 7/7/1 5/7/1 4/7/1
f 8/7/1 6/7/1 7/7/1
f 9/7/1 6/7/1 8/7/1
f 10/7/1 6/7/1 9/7/1
f 11/7/1 9/7/1 8/7/1
f 12/7/1 9/7/1 11/7/1
f 15/6/1 14/6/1 13/6/1
f 16/6/1 14/6/1 15/6/1
f 19/5/1 18/5/1 17/5/1
f 20/5/1 18/5/1 19/5/1
f 25/3/1 22/3/1 21/3/1
f 26/3/1 22/3/1 25/3/1
f 27/3/1 24/3/1 23/3/1
f 28/3/1 24/3/1 27/3/1
f 33/7/1 30/7/1 29/7/1
f 34/7/1 30/7/1 33/7/1
f 35/7/1 32/7/1 31/7/1
f 36/7/1 32/7/1 35/7/1
f 37/7/1 35/7/1 34/7/1
f 38/7/1 35/7/1 37/7/1
f 41/6/1 40/6/1 39/6/1
f 42/6/1 40/6/1 41/6/1
f 45/3/1 44/3/1 43/3/1
f 46/3/1 44/3/1 45/3/1
f 53/9/1 48/9/1 47/9/1
f 54/9/1 48/9/1 53/9/1
f 55/9/1 50/9/1 49/9/1
f 56/9/1 50/9/1 55/9/1
f 59/3/1 52/3/1 51/3/1
f 61/4/1 54/4/1 53/4/1
f 62/4/1 54/4/1 61/4/1
f 63/4/1 56/4/1 55/4/1
f 64/4/1 56/4/1 63/4/1
f 66/3/1 58/3/1 57/3/1
f 67/3/1 60/3/1 59/3/1
f 67/3/1 59/3/1 51/3/1
f 68/3/1 60/3/1 67/3/1
f 69/3/1 66/3/1 65/3/1
f 70/3/1 58/3/1 66/3/1
f 70/3/1 66/3/1 69/3/1
f 71/5/1 68/5/1 67/5/1
f 72/5/1 68/5/1 71/5/1
f 73/5/1 70/5/1 69/5/1
f 74/5/1 70/5/1 73/5/1
f 77/6/1 76/6/1 75/6/1
f 78/6/1 76/6/1 77/6/1
f 79/6/2 80/6/2 81/6/2
f 81/6/2 80/6/2 82/6/2
f 83/7/2 84/7/2 87/7/2
f 87/7/2 84/7/2 88/7/2
f 85/7/2 86/7/2 89/7/2
f 89/7/2 86/7/2 90/7/2
f 91/9/2 92/9/2 95/9/2
f 95/9/2 92/9/2 96/9/2
f 93/9/2 94/9/2 97/9/2
f 97/9/2 94/9/2 98/9/2
f 95/4/2 96/4/2 99/4/2
f 99/4/2 96/4/2 100/4/2
f 97/4/2 98/4/2 101/4/2
f 101/4/2 98/4/2 102/4/2
f 103/2/2 104/2/2 107/2/2
f 107/2/2 104/2/2 108/2/2
f 105/2/2 106/2/2 109/2/2
f 109/2/2 106/2/2 110/2/2
f 111/9/2 112/9/2 115/9/2
f 115/9/2 112/9/2 116/9/2
f 113/9/2 114/9/2 117/9/2
f 117/9/2 114/9/2 118/9/2
f 119/3/2 120/3/2 123/3/2
f 121/3/2 122/3/2 126/3/2
f 119/3/2 123/3/2 127/3/2
f 123/3/2 124/3/2 127/3/2
f 124/6/2 125/6/2 128/6/2
f 127/3/2 124/3/2 128/3/2
f 128/6/2 125/6/2 129/6/2
f 129/6/2 125/6/2 130/6/2
f 125/3/2 126/3/2 131/3/2
f 130/6/2 125/6/2 131/6/2
f 126/3/2 122/3/2 132/3/2
f 131/3/2 126/3/2 132/3/2
f 127/5/2 128/5/2 133/5/2
f 133/5/2 128/5/2 134/5/2
f 131/5/2 132/5/2 137/5/2
f 137/5/2 132/5/2 138/5/2
f 135/3/2 136/3/2 139/3/2
f 139/3/2 136/3/2 140/3/2
f 141/6/2 142/6/2 143/6/2
f 143/6/2 142/6/2 144/6/2
f 145/5/2 146/5/2 149/5/2
f 146/4/2 147/4/2 149/4/2
f 147/5/2 148/5/2 150/5/2
f 149/4/2 147/4/2 150/4/2
f 145/5/2 149/5/2 151/5/2
f 149/5/2 150/5/2 151/5/2
f 150/5/2 148/5/2 152/5/2
f 151/5/2 150/5/2 152/5/2
f 145/5/2 151/5/2 153/5/2
f 151/4/2 152/4/2 153/4/2
f 152/5/2 148/5/2 154/5/2
f 153/4/2 152/4/2 154/4/2
f 145/5/2 153/5/2 155/5/2
f 153/5/2 154/5/2 155/5/2
f 154/5/2 148/5/2 156/5/2
f 155/5/2 154/5/2 156/5/2
f 157/3/2 158/3/2 159/3/2
f 159/3/2 158/3/2 160/3/2
f 160/3/2 158/3/2 161/3/2
f 161/3/2 158/3/2 162/3/2
f 162/3/2 158/3/2 163/3/2
f 163/3/2 158/3/2 164/3/2
f 157/3/2 159/3/2 166/3/2
f 164/3/2 158/3/2 167/3/2
f 166/3/2 159/3/2 169/3/2
f 159/8/2 160/8/2 169/8/2
f 160/10/2 161/10/2 170/10/2
f 169/8/2 160/8/2 170/8/2
f 170/10/2 161/10/2 171/10/2
f 162/10/2 163/10/2 172/10/2
f 163/8/2 164/8/2 173/8/2
f 172/10/2 163/10/2 173/10/2
f 164/3/2 167/3/2 174/3/2
f 173/8/2 164/8/2 174/8/2
f 166/3/2 169/3/2 175/3/2
f 165/7/2 166/7/2 175/7/2
f 175/3/2 169/3/2 176/3/2
f 171/3/2 172/3/2 177/3/2
f 177/3/2 172/3/2 178/3/2
f 174/3/2 167/3/2 179/3/2
f 167/7/2 168/7/2 180/7/2
f 179/3/2 167/3/2 180/3/2
f 165/7/2 175/7/2 181/7/2
f 181/7/2 175/7/2 182/7/2
f 180/7/2 168/7/2 183/7/2
f 183/7/2 168/7/2 184/7/2
f 185/2/2 186/2/2 188/2/2
f 188/2/2 186/2/2 189/2/2
f 187/7/2 188/7/2 192/7/2
f 192/7/2 188/7/2 193/7/2
f 189/7/2 190/7/2 194/7/2
f 194/7/2 190/7/2 195/7/2
f 192/7/2 193/7/2 197/7/2
f 195/7/2 196/7/2 197/7/2
f 194/7/2 195/7/2 197/7/2
f 193/7/2 194/7/2 197/7/2
f 191/7/2 192/7/2 197/7/2
f 197/7/2 196/7/2 198/7/2
f 202/3/3 200/3/3 199/3/3
f 203/5/3 201/5/3 200/5/3
f 203/3/3 200/3/3 202/3/3
f 204/5/3 201/5/3 203/5/3
f 207/7/3 206/7/3 205/7/3
f 209/7/3 207/7/3 205/7/3
f 209/7/3 208/7/3 207/7/3
f 210/7/3 208/7/3 209/7/3
f 211/7/3 208/7/3 210/7/3
f 212/2/3 211/2/3 210/2/3
f 213/2/3 211/2/3 212/2/3
f 214/7/3 208/7/3 211/7/3
f 214/2/3 211/2/3 213/2/3
f 215/7/3 214/7/3 213/7/3
f 216/7/3 208/7/3 214/7/3
f 216/7/3 214/7/3 215/7/3
f 225/7/3 218/7/3 217/7/3
f 226/7/3 218/7/3 225/7/3
f 228/6/3 220/6/3 219/6/3
f 229/5/3 222/5/3 221/5/3
f 230/6/3 228/6/3 219/6/3
f 230/6/3 229/6/3 228/6/3
f 231/5/3 222/5/3 229/5/3
f 231/6/3 229/6/3 230/6/3
f 232/5/3 222/5/3 231/5/3
f 233/3/3 224/3/3 223/3/3
f 235/3/3 234/3/3 233/3/3
f 237/6/3 230/6/3 219/6/3
f 240/6/3 237/6/3 219/6/3
f 241/6/3 237/6/3 240/6/3
f 242/5/3 239/5/3 238/5/3
f 243/5/3 239/5/3 242/5/3
f 244/3/3 236/3/3 235/3/3
f 244/3/3 233/3/3 223/3/3
f 244/3/3 235/3/3 233/3/3
f 245/3/3 236/3/3 244/3/3
f 247/7/3 227/7/3 226/7/3
f 248/7/3 247/7/3 246/7/3
f 249/7/3 227/7/3 247/7/3
f 249/7/3 247/7/3 248/7/3
f 252/7/3 251/7/3 250/7/3
f 253/7/3 251/7/3 252/7/3
f 258/9/3 257/9/3 256/9/3
f 259/9/3 257/9/3 258/9/3
f 260/9/3 258/9/3 256/9/3
f 261/9/3 258/9/3 260/9/3
f 262/3/3 255/3/3 254/3/3
f 263/3/3 255/3/3 262/3/3
f 266/7/3 265/7/3 264/7/3
f 267/7/3 265/7/3 266/7/3
f 270/2/3 269/2/3 268/2/3
f 271/2/3 269/2/3 270/2/3
f 275/9/3 273/9/3 272/9/3
f 276/4/3 274/4/3 273/4/3
f 276/9/3 273/9/3 275/9/3
f 277/4/3 274/4/3 276/4/3
f 278/9/3 275/9/3 272/9/3
f 279/9/3 275/9/3 278/9/3
f 282/7/3 281/7/3 280/7/3
f 283/7/3 281/7/3 282/7/3
f 286/6/3 285/6/3 284/6/3
f 287/6/3 285/6/3 286/6/3
f 290/6/3 289/6/3 288/6/3
f 291/6/3 289/6/3 290/6/3
f 294/3/3 293/3/3 292/3/3
f 295/3/3 293/3/3 294/3/3
f 296/3/4 297/3/4 298/3/4
f 298/3/4 297/3/4 299/3/4
f 300/6/4 301/6/4 302/6/4
f 302/6/4 301/6/4 303/6/4
f 304/6/4 305/6/4 306/6/4
f 306/6/4 305/6/4 307/6/4
f 308/9/4 309/9/4 311/9/4
f 309/4/4 310/4/4 312/4/4
f 311/9/4 309/9/4 312/9/4
f 312/4/4 310/4/4 313/4/4
f 308/9/4 311/9/4 314/9/4
f 314/9/4 311/9/4 315/9/4
f 316/7/4 317/7/4 318/7/4
f 318/7/4 317/7/4 319/7/4
f 320/2/4 321/2/4 322/2/4
f 322/2/4 321/2/4 323/2/4
f 324/7/4 325/7/4 326/7/4
f 326/7/4 325/7/4 327/7/4
f 330/9/4 331/9/4 332/9/4
f 332/9/4 331/9/4 333/9/4
f 330/9/4 332/9/4 334/9/4
f 334/9/4 332/9/4 335/9/4
f 328/3/4 329/3/4 336/3/4
f 336/3/4 329/3/4 337/3/4
f 338/7/4 339/7/4 340/7/4
f 340/7/4 339/7/4 341/7/4
f 342/7/4 343/7/4 350/7/4
f 350/7/4 343/7/4 351/7/4
f 344/6/4 345/6/4 353/6/4
f 346/5/4 347/5/4 354/5/4
f 344/6/4 353/6/4 355/6/4
f 353/6/4 354/6/4 355/6/4
f 354/5/4 347/5/4 356/5/4
f 355/6/4 354/6/4 356/6/4
f 356/5/4 347/5/4 357/5/4
f 348/3/4 349/3/4 358/3/4
f 358/3/4 359/3/4 360/3/4
f 344/6/4 355/6/4 362/6/4
f 344/6/4 362/6/4 365/6/4
f 365/6/4 362/6/4 366/6/4
f 363/5/4 364/5/4 367/5/4
f 367/5/4 364/5/4 368/5/4
f 360/3/4 361/3/4 369/3/4
f 348/3/4 358/3/4 369/3/4
f 358/3/4 360/3/4 369/3/4
f 369/3/4 361/3/4 370/3/4
f 351/7/4 352/7/4 372/7/4
f 371/7/4 372/7/4 373/7/4
f 372/7/4 352/7/4 374/7/4
f 373/7/4 372/7/4 374/7/4
f 375/7/4 376/7/4 377/7/4
f 375/7/4 377/7/4 379/7/4
f 377/7/4 378/7/4 379/7/4
f 379/7/4 378/7/4 380/7/4
f 380/7/4 378/7/4 381/7/4
f 380/2/4 381/2/4 382/2/4
f 382/2/4 381/2/4 383/2/4
f 381/7/4 378/7/4 384/7/4
f 383/2/4 381/2/4 384/2/4
f 383/7/4 384/7/4 385/7/4
f 384/7/4 378/7/4 386/7/4
f 385/7/4 384/7/4 386/7/4
f 387/3/4 388/3/4 390/3/4
f 388/5/4 389/5/4 391/5/4
f 390/3/4 388/3/4 391/3/4
f 391/5/4 389/5/4 392/5/4
f 395/9/5 394/9/5 393/9/5
f 396/9/5 394/9/5 395/9/5
f 399/9/5 398/9/5 397/9/5
f 400/9/5 398/9/5 399/9/5
f 403/3/5 402/3/5 401/3/5
f 404/3/5 402/3/5 403/3/5
f 407/6/5 406/6/5 405/6/5
f 408/6/5 406/6/5 407/6/5
f 409/6/5 406/6/5 408/6/5
f 410/6/5 406/6/5 409/6/5
f 411/6/5 407/6/5 405/6/5
f 414/6/5 406/6/5 410/6/5
f 415/6/5 413/6/5 412/6/5
f 415/6/5 414/6/5 413/6/5
f 415/6/5 411/6/5 405/6/5
f 415/6/5 412/6/5 411/6/5
f 416/6/5 406/6/5 414/6/5
f 416/6/5 414/6/5 415/6/5
f 419/3/5 418/3/5 417/3/5
f 420/3/5 418/3/5 419/3/5
f 423/3/5 422/3/5 421/3/5
f 424/3/5 422/3/5 423/3/5
f 429/6/5 426/6/5 425/6/5
f 430/6/5 428/6/5 427/6/5
f 431/6/5 429/6/5 425/6/5
f 431/6/5 430/6/5 429/6/5
f 432/6/5 428/6/5 430/6/5
f 432/6/5 430/6/5 431/6/5
f 433/6/5 431/6/5 425/6/5
f 434/6/5 431/6/5 433/6/5
f 435/6/5 428/6/5 432/6/5
f 436/6/5 428/6/5 435/6/5
f 439/3/5 438/3/5 437/3/5
f 440/3/5 438/3/5 439/3/5
f 445/5/5 444/5/5 443/5/5
f 446/5/5 444/5/5 445/5/5
f 447/4/5 446/4/5 445/4/5
f 448/4/5 446/4/5 447/4/5
f 449/5/5 442/5/5 441/5/5
f 450/5/5 442/5/5 449/5/5
f 451/5/5 448/5/5 447/5/5
f 452/5/5 448/5/5 451/5/5
f 456/3/5 454/3/5 453/3/5
f 457/3/5 454/3/5 456/3/5
f 458/3/5 454/3/5 457/3/5
f 459/7/5 456/7/5 455/7/5
f 460/3/5 457/3/5 456/3/5
f 460/7/5 456/7/5 459/7/5
f 461/3/5 457/3/5 460/3/5
f 462/3/5 454/3/5 458/3/5
f 463/3/5 461/3/5 460/3/5
f 463/3/5 462/3/5 461/3/5
f 464/3/5 454/3/5 462/3/5
f 464/3/5 462/3/5 463/3/5
f 467/7/5 466/7/5 465/7/5
f 468/7/5 466/7/5 467/7/5
f 469/7/5 467/7/5 465/7/5
f 470/7/5 467/7/5 469/7/5
f 473/7/5 472/7/5 471/7/5
f 475/7/5 473/7/5 471/7/5
f 475/7/5 474/7/5 473/7/5
f 476/7/5 474/7/5 475/7/5
f 479/2/5 478/2/5 477/2/5
f 480/2/5 478/2/5 479/2/5
f 483/2/5 482/2/5 481/2/5
f 484/2/5 482/2/5 483/2/5
f 487/2/5 486/2/5 485/2/5
f 488/2/5 486/2/5 487/2/5
f 491/7/5 490/7/5 489/7/5
f 492/7/5 490/7/5 491/7/5
f 495/7/5 494/7/5 493/7/5
f 496/7/5 494/7/5 495/7/5
f 499/7/5 498/7/5 497/7/5
f 500/7/5 498/7/5 499/7/5
f 501/7/5 498/7/5 500/7/5
f 504/7/5 503/7/5 502/7/5
f 505/7/5 503/7/5 504/7/5
f 506/7/5 503/7/5 505/7/5
f 509/7/5 508/7/5 507/7/5
f 510/7/5 508/7/5 509/7/5
f 513/7/5 512/7/5 511/7/5
f 514/7/5 512/7/5 513/7/5
f 517/7/5 516/7/5 515/7/5
f 518/7/5 516/7/5 517/7/5
f 519/9/6 520/9/6 521/9/6
f 521/9/6 520/9/6 522/9/6
f 523/9/6 524/9/6 525/9/6
f 525/9/6 524/9/6 526/9/6
f 527/6/6 528/6/6 531/6/6
f 531/6/6 528/6/6 532/6/6
f 529/6/6 530/6/6 533/6/6
f 533/6/6 530/6/6 534/6/6
f 535/5/6 536/5/6 538/5/6
f 538/5/6 536/5/6 539/5/6
f 537/5/6 538/5/6 541/5/6
f 539/5/6 540/5/6 541/5/6
f 538/5/6 539/5/6 541/5/6
f 541/5/6 540/5/6 542/5/6
f 537/5/6 541/5/6 543/5/6
f 542/5/6 540/5/6 544/5/6
f 537/5/6 543/5/6 545/5/6
f 543/5/6 544/5/6 545/5/6
f 545/5/6 544/5/6 546/5/6
f 544/5/6 540/5/6 547/5/6
f 546/5/6 544/5/6 547/5/6
f 547/5/6 540/5/6 548/5/6
f 546/5/6 547/5/6 549/5/6
f 549/5/6 547/5/6 550/5/6
f 551/7/6 552/7/6 553/7/6
f 553/7/6 552/7/6 554/7/6
f 555/7/6 556/7/6 557/7/6
f 557/7/6 556/7/6 558/7/6
f 559/2/6 560/2/6 561/2/6
f 561/2/6 560/2/6 562/2/6
f 563/7/6 564/7/6 566/7/6
f 566/7/6 564/7/6 567/7/6
f 565/7/6 566/7/6 568/7/6
f 568/7/6 566/7/6 569/7/6
f 569/7/6 570/7/6 571/7/6
f 571/7/6 570/7/6 572/7/6
f 573/7/6 574/7/6 575/7/6
f 575/7/6 574/7/6 576/7/6
