# MagicaVoxel @ Ephtracy

# group
o 

# material
mtllib sink+mirror.mtl
usemtl palette

# normals
vn -1 0 0
vn 1 0 0
vn 0 0 1
vn 0 0 -1
vn 0 -1 0
vn 0 1 0

# texcoords
vt 0.0566406 0.5
vt 0.677734 0.5
vt 0.775391 0.5
vt 0.958984 0.5
vt 0.962891 0.5

# verts
v 4.6 0.6 -5
v 4.6 0.6 -5.6
v 4.6 0.8 -5
v 4.6 0.8 -5.6
v 4.6 1.1 -5.5
v 4.6 1.1 -5.6
v 4.6 2.1 -5.5
v 4.6 2.1 -5.6
v 4.7 0.5 -5
v 4.7 0.5 -5.6
v 4.7 0.6 -4.9
v 4.7 0.6 -5
v 4.7 0.6 -5.6
v 4.7 0.8 -4.9
v 4.7 0.8 -5
v 4.9 0.8 -5.5
v 4.9 0.8 -5.6
v 4.9 0.9 -5.5
v 4.9 0.9 -5.6
v 5 0.1 -5.5
v 5 0.1 -5.6
v 5 0.5 -5.5
v 5 0.5 -5.6
v 5 0.9 -5.3
v 5 0.9 -5.4
v 5 0.9 -5.5
v 5 0.9 -5.6
v 5 1 -5.4
v 5 1 -5.5
v 5 1.1 -5.3
v 5 1.1 -5.5
v 5 1.1 -5.6
v 5.2 0.2 -5.5
v 5.2 0.2 -5.6
v 5.2 0.5 -5.5
v 5.2 0.5 -5.6
v 5.3 0.1 -5.5
v 5.3 0.1 -5.6
v 5.3 0.2 -5.5
v 5.3 0.2 -5.6
v 5.3 0.7 -5
v 5.3 0.7 -5.1
v 5.3 0.8 -5
v 5.3 0.8 -5.1
v 5.4 0.7 -5.1
v 5.4 0.7 -5.5
v 5.4 0.8 -5.1
v 5.4 0.8 -5.5
v 4.7 0.7 -5.1
v 4.7 0.7 -5.5
v 4.7 0.8 -5.1
v 4.7 0.8 -5.5
v 4.8 0.7 -5
v 4.8 0.7 -5.1
v 4.8 0.8 -5
v 4.8 0.8 -5.1
v 5.1 0.1 -5.5
v 5.1 0.1 -5.6
v 5.1 0.5 -5.5
v 5.1 0.5 -5.6
v 5.1 0.9 -5.3
v 5.1 0.9 -5.4
v 5.1 0.9 -5.5
v 5.1 0.9 -5.6
v 5.1 1 -5.4
v 5.1 1 -5.5
v 5.1 1.1 -5.3
v 5.1 1.1 -5.5
v 5.1 1.1 -5.6
v 5.2 0.8 -5.5
v 5.2 0.8 -5.6
v 5.2 0.9 -5.5
v 5.2 0.9 -5.6
v 5.3 0.3 -5.5
v 5.3 0.3 -5.6
v 5.3 0.5 -5.5
v 5.3 0.5 -5.6
v 5.4 0.1 -5.5
v 5.4 0.1 -5.6
v 5.4 0.3 -5.5
v 5.4 0.3 -5.6
v 5.4 0.5 -5
v 5.4 0.5 -5.6
v 5.4 0.6 -4.9
v 5.4 0.6 -5
v 5.4 0.6 -5.6
v 5.4 0.8 -4.9
v 5.4 0.8 -5
v 5.5 0.6 -5
v 5.5 0.6 -5.6
v 5.5 0.8 -5
v 5.5 0.8 -5.6
v 5.5 1.1 -5.5
v 5.5 1.1 -5.6
v 5.5 2.1 -5.5
v 5.5 2.1 -5.6
v 4.7 0.6 -4.9
v 4.7 0.8 -4.9
v 5.4 0.6 -4.9
v 5.4 0.8 -4.9
v 4.6 0.6 -5
v 4.6 0.8 -5
v 4.7 0.5 -5
v 4.7 0.6 -5
v 4.7 0.8 -5
v 5.4 0.5 -5
v 5.4 0.6 -5
v 5.4 0.8 -5
v 5.5 0.6 -5
v 5.5 0.8 -5
v 5 0.9 -5.3
v 5 1.1 -5.3
v 5.1 0.9 -5.3
v 5.1 1.1 -5.3
v 4.6 1.1 -5.5
v 4.6 2.1 -5.5
v 4.7 0.7 -5.5
v 4.7 0.8 -5.5
v 4.7 1.2 -5.5
v 4.7 2 -5.5
v 4.8 1.4 -5.5
v 4.8 1.5 -5.5
v 4.8 1.8 -5.5
v 4.8 1.9 -5.5
v 4.9 0.8 -5.5
v 4.9 0.9 -5.5
v 4.9 1.3 -5.5
v 4.9 1.4 -5.5
v 4.9 1.5 -5.5
v 4.9 1.7 -5.5
v 4.9 1.8 -5.5
v 4.9 1.9 -5.5
v 5 0.1 -5.5
v 5 0.5 -5.5
v 5 0.8 -5.5
v 5 0.9 -5.5
v 5 1 -5.5
v 5 1.1 -5.5
v 5 1.3 -5.5
v 5 1.4 -5.5
v 5 1.7 -5.5
v 5 1.8 -5.5
v 5.1 0.1 -5.5
v 5.1 0.5 -5.5
v 5.1 0.8 -5.5
v 5.1 0.9 -5.5
v 5.1 1 -5.5
v 5.1 1.1 -5.5
v 5.1 1.4 -5.5
v 5.1 1.5 -5.5
v 5.1 1.8 -5.5
v 5.1 1.9 -5.5
v 5.2 0.2 -5.5
v 5.2 0.5 -5.5
v 5.2 0.8 -5.5
v 5.2 0.9 -5.5
v 5.2 1.3 -5.5
v 5.2 1.4 -5.5
v 5.2 1.5 -5.5
v 5.2 1.7 -5.5
v 5.2 1.8 -5.5
v 5.2 1.9 -5.5
v 5.3 0.1 -5.5
v 5.3 0.2 -5.5
v 5.3 0.3 -5.5
v 5.3 0.5 -5.5
v 5.3 1.3 -5.5
v 5.3 1.4 -5.5
v 5.3 1.7 -5.5
v 5.3 1.8 -5.5
v 5.4 0.1 -5.5
v 5.4 0.3 -5.5
v 5.4 0.7 -5.5
v 5.4 0.8 -5.5
v 5.4 1.2 -5.5
v 5.4 2 -5.5
v 5.5 1.1 -5.5
v 5.5 2.1 -5.5
v 4.8 0.7 -5
v 4.8 0.8 -5
v 5.3 0.7 -5
v 5.3 0.8 -5
v 4.7 0.7 -5.1
v 4.7 0.8 -5.1
v 4.8 0.7 -5.1
v 4.8 0.8 -5.1
v 5.3 0.7 -5.1
v 5.3 0.8 -5.1
v 5.4 0.7 -5.1
v 5.4 0.8 -5.1
v 5 0.9 -5.4
v 5 1 -5.4
v 5.1 0.9 -5.4
v 5.1 1 -5.4
v 4.6 0.6 -5.6
v 4.6 0.8 -5.6
v 4.6 1.1 -5.6
v 4.6 2.1 -5.6
v 4.7 0.5 -5.6
v 4.7 0.6 -5.6
v 4.7 1.2 -5.6
v 4.7 2 -5.6
v 4.8 1.4 -5.6
v 4.8 1.5 -5.6
v 4.8 1.8 -5.6
v 4.8 1.9 -5.6
v 4.9 0.8 -5.6
v 4.9 0.9 -5.6
v 4.9 1.3 -5.6
v 4.9 1.4 -5.6
v 4.9 1.5 -5.6
v 4.9 1.7 -5.6
v 4.9 1.8 -5.6
v 4.9 1.9 -5.6
v 5 0.1 -5.6
v 5 0.5 -5.6
v 5 0.8 -5.6
v 5 0.9 -5.6
v 5 1.1 -5.6
v 5 1.3 -5.6
v 5 1.4 -5.6
v 5 1.7 -5.6
v 5 1.8 -5.6
v 5.1 0.1 -5.6
v 5.1 0.5 -5.6
v 5.1 0.8 -5.6
v 5.1 0.9 -5.6
v 5.1 1.1 -5.6
v 5.1 1.4 -5.6
v 5.1 1.5 -5.6
v 5.1 1.8 -5.6
v 5.1 1.9 -5.6
v 5.2 0.2 -5.6
v 5.2 0.5 -5.6
v 5.2 0.8 -5.6
v 5.2 0.9 -5.6
v 5.2 1.3 -5.6
v 5.2 1.4 -5.6
v 5.2 1.5 -5.6
v 5.2 1.7 -5.6
v 5.2 1.8 -5.6
v 5.2 1.9 -5.6
v 5.3 0.1 -5.6
v 5.3 0.2 -5.6
v 5.3 0.3 -5.6
v 5.3 0.5 -5.6
v 5.3 1.3 -5.6
v 5.3 1.4 -5.6
v 5.3 1.7 -5.6
v 5.3 1.8 -5.6
v 5.4 0.1 -5.6
v 5.4 0.3 -5.6
v 5.4 0.5 -5.6
v 5.4 0.6 -5.6
v 5.4 1.2 -5.6
v 5.4 2 -5.6
v 5.5 0.6 -5.6
v 5.5 0.8 -5.6
v 5.5 1.1 -5.6
v 5.5 2.1 -5.6
v 5 0.1 -5.5
v 5.1 0.1 -5.5
v 5.3 0.1 -5.5
v 5.4 0.1 -5.5
v 5 0.1 -5.6
v 5.1 0.1 -5.6
v 5.3 0.1 -5.6
v 5.4 0.1 -5.6
v 5.2 0.2 -5.5
v 5.3 0.2 -5.5
v 5.2 0.2 -5.6
v 5.3 0.2 -5.6
v 4.7 0.5 -5
v 5.4 0.5 -5
v 5 0.5 -5.5
v 5.1 0.5 -5.5
v 5.2 0.5 -5.5
v 5.3 0.5 -5.5
v 4.7 0.5 -5.6
v 5 0.5 -5.6
v 5.1 0.5 -5.6
v 5.2 0.5 -5.6
v 5.3 0.5 -5.6
v 5.4 0.5 -5.6
v 4.7 0.6 -4.9
v 5.4 0.6 -4.9
v 4.6 0.6 -5
v 4.7 0.6 -5
v 5.4 0.6 -5
v 5.5 0.6 -5
v 4.6 0.6 -5.6
v 4.7 0.6 -5.6
v 5.4 0.6 -5.6
v 5.5 0.6 -5.6
v 5 0.9 -5.3
v 5.1 0.9 -5.3
v 5 0.9 -5.4
v 5.1 0.9 -5.4
v 5 1 -5.4
v 5.1 1 -5.4
v 5 1 -5.5
v 5.1 1 -5.5
v 4.6 1.1 -5.5
v 5 1.1 -5.5
v 5.1 1.1 -5.5
v 5.5 1.1 -5.5
v 4.6 1.1 -5.6
v 5 1.1 -5.6
v 5.1 1.1 -5.6
v 5.5 1.1 -5.6
v 5.3 0.3 -5.5
v 5.4 0.3 -5.5
v 5.3 0.3 -5.6
v 5.4 0.3 -5.6
v 4.8 0.7 -5
v 5.3 0.7 -5
v 4.7 0.7 -5.1
v 4.8 0.7 -5.1
v 5.3 0.7 -5.1
v 5.4 0.7 -5.1
v 5 0.7 -5.2
v 5.1 0.7 -5.2
v 5 0.7 -5.3
v 5.1 0.7 -5.3
v 4.7 0.7 -5.5
v 5.4 0.7 -5.5
v 4.7 0.8 -4.9
v 5.4 0.8 -4.9
v 4.6 0.8 -5
v 4.7 0.8 -5
v 4.8 0.8 -5
v 5.3 0.8 -5
v 5.4 0.8 -5
v 5.5 0.8 -5
v 4.7 0.8 -5.1
v 4.8 0.8 -5.1
v 5.3 0.8 -5.1
v 5.4 0.8 -5.1
v 4.7 0.8 -5.5
v 4.9 0.8 -5.5
v 5.2 0.8 -5.5
v 5.4 0.8 -5.5
v 4.6 0.8 -5.6
v 4.9 0.8 -5.6
v 5.2 0.8 -5.6
v 5.5 0.8 -5.6
v 4.9 0.9 -5.5
v 5 0.9 -5.5
v 5.1 0.9 -5.5
v 5.2 0.9 -5.5
v 4.9 0.9 -5.6
v 5 0.9 -5.6
v 5.1 0.9 -5.6
v 5.2 0.9 -5.6
v 5 1.1 -5.3
v 5.1 1.1 -5.3
v 5 1.1 -5.5
v 5.1 1.1 -5.5
v 4.6 2.1 -5.5
v 5.5 2.1 -5.5
v 4.6 2.1 -5.6
v 5.5 2.1 -5.6

# faces
f 3/4/1 2/4/1 1/4/1
f 4/4/1 2/4/1 3/4/1
f 7/4/1 6/4/1 5/4/1
f 8/4/1 6/4/1 7/4/1
f 12/4/1 10/4/1 9/4/1
f 13/4/1 10/4/1 12/4/1
f 14/4/1 12/4/1 11/4/1
f 15/4/1 12/4/1 14/4/1
f 18/3/1 17/3/1 16/3/1
f 19/3/1 17/3/1 18/3/1
f 22/5/1 21/5/1 20/5/1
f 23/5/1 21/5/1 22/5/1
f 28/5/1 25/5/1 24/5/1
f 29/5/1 27/5/1 26/5/1
f 30/5/1 28/5/1 24/5/1
f 30/5/1 29/5/1 28/5/1
f 31/5/1 27/5/1 29/5/1
f 31/5/1 29/5/1 30/5/1
f 32/5/1 27/5/1 31/5/1
f 35/5/1 34/5/1 33/5/1
f 36/5/1 34/5/1 35/5/1
f 39/5/1 38/5/1 37/5/1
f 40/5/1 38/5/1 39/5/1
f 43/4/1 42/4/1 41/4/1
f 44/4/1 42/4/1 43/4/1
f 47/4/1 46/4/1 45/4/1
f 48/4/1 46/4/1 47/4/1
f 49/4/2 50/4/2 51/4/2
f 51/4/2 50/4/2 52/4/2
f 53/4/2 54/4/2 55/4/2
f 55/4/2 54/4/2 56/4/2
f 57/5/2 58/5/2 59/5/2
f 59/5/2 58/5/2 60/5/2
f 61/5/2 62/5/2 65/5/2
f 63/5/2 64/5/2 66/5/2
f 61/5/2 65/5/2 67/5/2
f 65/5/2 66/5/2 67/5/2
f 66/5/2 64/5/2 68/5/2
f 67/5/2 66/5/2 68/5/2
f 68/5/2 64/5/2 69/5/2
f 70/1/2 71/1/2 72/1/2
f 72/1/2 71/1/2 73/1/2
f 74/5/2 75/5/2 76/5/2
f 76/5/2 75/5/2 77/5/2
f 78/5/2 79/5/2 80/5/2
f 80/5/2 79/5/2 81/5/2
f 82/4/2 83/4/2 85/4/2
f 85/4/2 83/4/2 86/4/2
f 84/4/2 85/4/2 87/4/2
f 87/4/2 85/4/2 88/4/2
f 89/4/2 90/4/2 91/4/2
f 91/4/2 90/4/2 92/4/2
f 93/4/2 94/4/2 95/4/2
f 95/4/2 94/4/2 96/4/2
f 99/4/3 98/4/3 97/4/3
f 100/4/3 98/4/3 99/4/3
f 104/4/3 102/4/3 101/4/3
f 105/4/3 102/4/3 104/4/3
f 106/4/3 104/4/3 103/4/3
f 107/4/3 104/4/3 106/4/3
f 109/4/3 108/4/3 107/4/3
f 110/4/3 108/4/3 109/4/3
f 113/5/3 112/5/3 111/5/3
f 114/5/3 112/5/3 113/5/3
f 119/4/3 116/4/3 115/4/3
f 120/4/3 116/4/3 119/4/3
f 121/2/3 120/2/3 119/2/3
f 122/2/3 120/2/3 121/2/3
f 123/2/3 120/2/3 122/2/3
f 124/2/3 120/2/3 123/2/3
f 125/4/3 118/4/3 117/4/3
f 127/2/3 121/2/3 119/2/3
f 128/4/3 122/4/3 121/4/3
f 128/2/3 121/2/3 127/2/3
f 129/2/3 123/2/3 122/2/3
f 129/4/3 122/4/3 128/4/3
f 130/2/3 123/2/3 129/2/3
f 131/4/3 124/4/3 123/4/3
f 131/2/3 123/2/3 130/2/3
f 132/2/3 120/2/3 124/2/3
f 132/4/3 124/4/3 131/4/3
f 135/3/3 126/3/3 125/3/3
f 135/4/3 125/4/3 117/4/3
f 136/3/3 126/3/3 135/3/3
f 138/4/3 119/4/3 115/4/3
f 139/2/3 127/2/3 119/2/3
f 139/4/3 128/4/3 127/4/3
f 140/2/3 130/2/3 129/2/3
f 140/4/3 128/4/3 139/4/3
f 140/2/3 129/2/3 128/2/3
f 141/4/3 131/4/3 130/4/3
f 141/2/3 130/2/3 140/2/3
f 142/2/3 132/2/3 131/2/3
f 142/4/3 131/4/3 141/4/3
f 143/5/3 134/5/3 133/5/3
f 144/5/3 134/5/3 143/5/3
f 145/5/3 137/5/3 136/5/3
f 145/5/3 136/5/3 135/5/3
f 145/4/3 135/4/3 117/4/3
f 146/5/3 137/5/3 145/5/3
f 147/5/3 137/5/3 146/5/3
f 148/4/3 119/4/3 138/4/3
f 149/2/3 140/2/3 139/2/3
f 149/2/3 141/2/3 140/2/3
f 149/2/3 142/2/3 141/2/3
f 150/2/3 142/2/3 149/2/3
f 151/2/3 132/2/3 142/2/3
f 151/2/3 142/2/3 150/2/3
f 152/2/3 120/2/3 132/2/3
f 152/2/3 132/2/3 151/2/3
f 155/1/3 146/1/3 145/1/3
f 155/4/3 145/4/3 117/4/3
f 156/1/3 146/1/3 155/1/3
f 157/2/3 139/2/3 119/2/3
f 157/2/3 149/2/3 139/2/3
f 158/4/3 150/4/3 149/4/3
f 158/2/3 149/2/3 157/2/3
f 159/2/3 151/2/3 150/2/3
f 159/4/3 150/4/3 158/4/3
f 160/2/3 151/2/3 159/2/3
f 161/4/3 152/4/3 151/4/3
f 161/2/3 151/2/3 160/2/3
f 162/2/3 120/2/3 152/2/3
f 162/4/3 152/4/3 161/4/3
f 164/5/3 154/5/3 153/5/3
f 165/5/3 154/5/3 164/5/3
f 166/5/3 154/5/3 165/5/3
f 167/2/3 157/2/3 119/2/3
f 167/4/3 158/4/3 157/4/3
f 168/2/3 160/2/3 159/2/3
f 168/4/3 158/4/3 167/4/3
f 168/2/3 159/2/3 158/2/3
f 169/4/3 161/4/3 160/4/3
f 169/2/3 160/2/3 168/2/3
f 170/2/3 162/2/3 161/2/3
f 170/4/3 161/4/3 169/4/3
f 171/5/3 165/5/3 164/5/3
f 171/5/3 164/5/3 163/5/3
f 172/5/3 165/5/3 171/5/3
f 173/4/3 155/4/3 117/4/3
f 174/4/3 155/4/3 173/4/3
f 175/4/3 119/4/3 148/4/3
f 175/2/3 168/2/3 167/2/3
f 175/2/3 167/2/3 119/2/3
f 175/2/3 170/2/3 169/2/3
f 175/2/3 169/2/3 168/2/3
f 176/4/3 116/4/3 120/4/3
f 176/2/3 170/2/3 175/2/3
f 176/2/3 162/2/3 170/2/3
f 176/2/3 120/2/3 162/2/3
f 177/4/3 175/4/3 148/4/3
f 177/4/3 176/4/3 175/4/3
f 178/4/3 116/4/3 176/4/3
f 178/4/3 176/4/3 177/4/3
f 179/4/4 180/4/4 181/4/4
f 181/4/4 180/4/4 182/4/4
f 183/4/4 184/4/4 185/4/4
f 185/4/4 184/4/4 186/4/4
f 187/4/4 188/4/4 189/4/4
f 189/4/4 188/4/4 190/4/4
f 191/5/4 192/5/4 193/5/4
f 193/5/4 192/5/4 194/5/4
f 195/4/4 196/4/4 200/4/4
f 197/4/4 198/4/4 201/4/4
f 201/4/4 198/4/4 202/4/4
f 201/2/4 202/2/4 203/2/4
f 203/2/4 202/2/4 204/2/4
f 204/2/4 202/2/4 205/2/4
f 205/2/4 202/2/4 206/2/4
f 199/4/4 200/4/4 207/4/4
f 200/4/4 196/4/4 207/4/4
f 201/2/4 203/2/4 209/2/4
f 203/4/4 204/4/4 210/4/4
f 209/2/4 203/2/4 210/2/4
f 204/2/4 205/2/4 211/2/4
f 210/4/4 204/4/4 211/4/4
f 211/2/4 205/2/4 212/2/4
f 205/4/4 206/4/4 213/4/4
f 212/2/4 205/2/4 213/2/4
f 206/2/4 202/2/4 214/2/4
f 213/4/4 206/4/4 214/4/4
f 199/4/4 207/4/4 216/4/4
f 207/3/4 208/3/4 217/3/4
f 216/4/4 207/4/4 217/4/4
f 217/3/4 208/3/4 218/3/4
f 197/4/4 201/4/4 219/4/4
f 201/2/4 209/2/4 220/2/4
f 209/4/4 210/4/4 220/4/4
f 211/2/4 212/2/4 221/2/4
f 220/4/4 210/4/4 221/4/4
f 210/2/4 211/2/4 221/2/4
f 212/4/4 213/4/4 222/4/4
f 221/2/4 212/2/4 222/2/4
f 213/2/4 214/2/4 223/2/4
f 222/4/4 213/4/4 223/4/4
f 215/5/4 216/5/4 224/5/4
f 216/4/4 217/4/4 225/4/4
f 224/5/4 216/5/4 225/5/4
f 217/5/4 218/5/4 226/5/4
f 225/4/4 217/4/4 226/4/4
f 218/5/4 219/5/4 226/5/4
f 226/5/4 219/5/4 227/5/4
f 219/4/4 201/4/4 228/4/4
f 227/5/4 219/5/4 228/5/4
f 220/2/4 221/2/4 229/2/4
f 222/2/4 223/2/4 229/2/4
f 221/2/4 222/2/4 229/2/4
f 229/2/4 223/2/4 230/2/4
f 223/2/4 214/2/4 231/2/4
f 230/2/4 223/2/4 231/2/4
f 214/2/4 202/2/4 232/2/4
f 231/2/4 214/2/4 232/2/4
f 225/4/4 226/4/4 234/4/4
f 226/1/4 227/1/4 235/1/4
f 234/4/4 226/4/4 235/4/4
f 235/1/4 227/1/4 236/1/4
f 201/2/4 220/2/4 237/2/4
f 220/2/4 229/2/4 237/2/4
f 229/4/4 230/4/4 238/4/4
f 237/2/4 229/2/4 238/2/4
f 230/2/4 231/2/4 239/2/4
f 238/4/4 230/4/4 239/4/4
f 239/2/4 231/2/4 240/2/4
f 231/4/4 232/4/4 241/4/4
f 240/2/4 231/2/4 241/2/4
f 232/2/4 202/2/4 242/2/4
f 241/4/4 232/4/4 242/4/4
f 233/5/4 234/5/4 244/5/4
f 244/5/4 234/5/4 245/5/4
f 234/4/4 235/4/4 246/4/4
f 245/5/4 234/5/4 246/5/4
f 201/2/4 237/2/4 247/2/4
f 237/4/4 238/4/4 247/4/4
f 239/2/4 240/2/4 248/2/4
f 247/4/4 238/4/4 248/4/4
f 238/2/4 239/2/4 248/2/4
f 240/4/4 241/4/4 249/4/4
f 248/2/4 240/2/4 249/2/4
f 241/2/4 242/2/4 250/2/4
f 249/4/4 241/4/4 250/4/4
f 244/5/4 245/5/4 251/5/4
f 243/5/4 244/5/4 251/5/4
f 251/5/4 245/5/4 252/5/4
f 246/4/4 235/4/4 253/4/4
f 253/4/4 235/4/4 254/4/4
f 228/4/4 201/4/4 255/4/4
f 247/2/4 248/2/4 255/2/4
f 201/2/4 247/2/4 255/2/4
f 248/2/4 249/2/4 255/2/4
f 249/2/4 250/2/4 255/2/4
f 242/2/4 202/2/4 256/2/4
f 255/2/4 250/2/4 256/2/4
f 202/4/4 198/4/4 256/4/4
f 250/2/4 242/2/4 256/2/4
f 254/4/4 235/4/4 257/4/4
f 257/4/4 235/4/4 258/4/4
f 228/4/4 255/4/4 259/4/4
f 255/4/4 256/4/4 259/4/4
f 256/4/4 198/4/4 260/4/4
f 259/4/4 256/4/4 260/4/4
f 265/5/5 262/5/5 261/5/5
f 266/5/5 262/5/5 265/5/5
f 267/5/5 264/5/5 263/5/5
f 268/5/5 264/5/5 267/5/5
f 271/5/5 270/5/5 269/5/5
f 272/5/5 270/5/5 271/5/5
f 275/4/5 274/4/5 273/4/5
f 276/4/5 274/4/5 275/4/5
f 277/4/5 274/4/5 276/4/5
f 278/4/5 274/4/5 277/4/5
f 279/4/5 275/4/5 273/4/5
f 280/4/5 275/4/5 279/4/5
f 281/4/5 277/4/5 276/4/5
f 282/4/5 277/4/5 281/4/5
f 283/4/5 274/4/5 278/4/5
f 284/4/5 274/4/5 283/4/5
f 288/4/5 286/4/5 285/4/5
f 289/4/5 286/4/5 288/4/5
f 291/4/5 288/4/5 287/4/5
f 292/4/5 288/4/5 291/4/5
f 293/4/5 290/4/5 289/4/5
f 294/4/5 290/4/5 293/4/5
f 297/5/5 296/5/5 295/5/5
f 298/5/5 296/5/5 297/5/5
f 301/5/5 300/5/5 299/5/5
f 302/5/5 300/5/5 301/5/5
f 307/4/5 304/4/5 303/4/5
f 308/4/5 304/4/5 307/4/5
f 309/4/5 306/4/5 305/4/5
f 310/4/5 306/4/5 309/4/5
f 311/5/6 312/5/6 313/5/6
f 313/5/6 312/5/6 314/5/6
f 315/4/6 316/4/6 318/4/6
f 318/4/6 316/4/6 319/4/6
f 317/4/6 318/4/6 321/4/6
f 319/4/6 320/4/6 321/4/6
f 318/4/6 319/4/6 321/4/6
f 321/4/6 320/4/6 322/4/6
f 317/4/6 321/4/6 323/4/6
f 321/5/6 322/5/6 323/5/6
f 322/4/6 320/4/6 324/4/6
f 323/5/6 322/5/6 324/5/6
f 317/4/6 323/4/6 325/4/6
f 323/4/6 324/4/6 325/4/6
f 324/4/6 320/4/6 326/4/6
f 325/4/6 324/4/6 326/4/6
f 327/4/6 328/4/6 330/4/6
f 330/4/6 328/4/6 331/4/6
f 331/4/6 328/4/6 332/4/6
f 332/4/6 328/4/6 333/4/6
f 329/4/6 330/4/6 335/4/6
f 330/4/6 331/4/6 335/4/6
f 335/4/6 331/4/6 336/4/6
f 333/4/6 334/4/6 337/4/6
f 332/4/6 333/4/6 337/4/6
f 337/4/6 334/4/6 338/4/6
f 329/4/6 335/4/6 339/4/6
f 338/4/6 334/4/6 342/4/6
f 339/4/6 340/4/6 343/4/6
f 329/4/6 339/4/6 343/4/6
f 343/4/6 340/4/6 344/4/6
f 341/4/6 342/4/6 345/4/6
f 342/4/6 334/4/6 346/4/6
f 345/4/6 342/4/6 346/4/6
f 347/3/6 348/3/6 351/3/6
f 351/3/6 348/3/6 352/3/6
f 349/1/6 350/1/6 353/1/6
f 353/1/6 350/1/6 354/1/6
f 355/5/6 356/5/6 357/5/6
f 357/5/6 356/5/6 358/5/6
f 359/4/6 360/4/6 361/4/6
f 361/4/6 360/4/6 362/4/6
