# MagicaVoxel @ Ephtracy

# group
o 

# material
mtllib mirror.mtl
usemtl palette

# normals
vn 0 0 1
vn 0 0 -1
vn 1 0 0
vn -1 0 0
vn 0 -1 0
vn 0 1 0

# texcoords
vt 0.677734 0.5
vt 0.958984 0.5

# verts
v 5.5 1.1 -5.5
v 4.6 1.1 -5.5
v 5.4 1.2 -5.5
v 4.7 1.2 -5.5
v 5.3 1.3 -5.5
v 5.2 1.3 -5.5
v 5 1.3 -5.5
v 4.9 1.3 -5.5
v 5.3 1.4 -5.5
v 5.2 1.4 -5.5
v 5.1 1.4 -5.5
v 5 1.4 -5.5
v 4.9 1.4 -5.5
v 4.8 1.4 -5.5
v 5.2 1.5 -5.5
v 5.1 1.5 -5.5
v 4.9 1.5 -5.5
v 4.8 1.5 -5.5
v 5.3 1.7 -5.5
v 5.2 1.7 -5.5
v 5 1.7 -5.5
v 4.9 1.7 -5.5
v 5.3 1.8 -5.5
v 5.2 1.8 -5.5
v 5.1 1.8 -5.5
v 5 1.8 -5.5
v 4.9 1.8 -5.5
v 4.8 1.8 -5.5
v 5.2 1.9 -5.5
v 5.1 1.9 -5.5
v 4.9 1.9 -5.5
v 4.8 1.9 -5.5
v 5.4 2 -5.5
v 4.7 2 -5.5
v 5.5 2.1 -5.5
v 4.6 2.1 -5.5
v 5.5 1.1 -5.6
v 4.6 1.1 -5.6
v 5.4 1.2 -5.6
v 4.7 1.2 -5.6
v 5.3 1.3 -5.6
v 5.2 1.3 -5.6
v 5 1.3 -5.6
v 4.9 1.3 -5.6
v 5.3 1.4 -5.6
v 5.2 1.4 -5.6
v 5.1 1.4 -5.6
v 5 1.4 -5.6
v 4.9 1.4 -5.6
v 4.8 1.4 -5.6
v 5.2 1.5 -5.6
v 5.1 1.5 -5.6
v 4.9 1.5 -5.6
v 4.8 1.5 -5.6
v 5.3 1.7 -5.6
v 5.2 1.7 -5.6
v 5 1.7 -5.6
v 4.9 1.7 -5.6
v 5.3 1.8 -5.6
v 5.2 1.8 -5.6
v 5.1 1.8 -5.6
v 5 1.8 -5.6
v 4.9 1.8 -5.6
v 4.8 1.8 -5.6
v 5.2 1.9 -5.6
v 5.1 1.9 -5.6
v 4.9 1.9 -5.6
v 4.8 1.9 -5.6
v 5.4 2 -5.6
v 4.7 2 -5.6
v 5.5 2.1 -5.6
v 4.6 2.1 -5.6
v 5.5 1.1 -5.5
v 5.5 2.1 -5.5
v 5.5 1.1 -5.6
v 5.5 2.1 -5.6
v 4.6 1.1 -5.5
v 4.6 2.1 -5.5
v 4.6 1.1 -5.6
v 4.6 2.1 -5.6
v 5.5 1.1 -5.5
v 5.5 1.1 -5.6
v 4.6 1.1 -5.5
v 4.6 1.1 -5.6
v 5.5 2.1 -5.5
v 5.5 2.1 -5.6
v 4.6 2.1 -5.5
v 4.6 2.1 -5.6

# faces
f 3/2/1 2/2/1 1/2/1
f 4/2/1 2/2/1 3/2/1
f 5/1/1 4/1/1 3/1/1
f 6/1/1 4/1/1 5/1/1
f 7/1/1 4/1/1 6/1/1
f 8/1/1 4/1/1 7/1/1
f 9/1/1 5/1/1 3/1/1
f 9/2/1 6/2/1 5/2/1
f 10/1/1 7/1/1 6/1/1
f 10/2/1 6/2/1 9/2/1
f 11/1/1 7/1/1 10/1/1
f 12/2/1 8/2/1 7/2/1
f 12/1/1 7/1/1 11/1/1
f 13/1/1 4/1/1 8/1/1
f 13/2/1 8/2/1 12/2/1
f 14/1/1 4/1/1 13/1/1
f 15/2/1 11/2/1 10/2/1
f 15/1/1 10/1/1 9/1/1
f 16/1/1 12/1/1 11/1/1
f 16/2/1 11/2/1 15/2/1
f 16/1/1 13/1/1 12/1/1
f 17/2/1 14/2/1 13/2/1
f 17/1/1 13/1/1 16/1/1
f 18/1/1 4/1/1 14/1/1
f 18/2/1 14/2/1 17/2/1
f 19/1/1 15/1/1 9/1/1
f 19/1/1 17/1/1 16/1/1
f 19/1/1 18/1/1 17/1/1
f 19/1/1 16/1/1 15/1/1
f 19/1/1 9/1/1 3/1/1
f 20/1/1 18/1/1 19/1/1
f 21/1/1 18/1/1 20/1/1
f 22/1/1 18/1/1 21/1/1
f 23/1/1 19/1/1 3/1/1
f 23/2/1 20/2/1 19/2/1
f 24/1/1 21/1/1 20/1/1
f 24/2/1 20/2/1 23/2/1
f 25/1/1 21/1/1 24/1/1
f 26/2/1 22/2/1 21/2/1
f 26/1/1 21/1/1 25/1/1
f 27/1/1 18/1/1 22/1/1
f 27/2/1 22/2/1 26/2/1
f 28/1/1 4/1/1 18/1/1
f 28/1/1 18/1/1 27/1/1
f 29/2/1 25/2/1 24/2/1
f 29/1/1 24/1/1 23/1/1
f 30/1/1 27/1/1 26/1/1
f 30/2/1 25/2/1 29/2/1
f 30/1/1 26/1/1 25/1/1
f 31/2/1 28/2/1 27/2/1
f 31/1/1 27/1/1 30/1/1
f 32/1/1 4/1/1 28/1/1
f 32/2/1 28/2/1 31/2/1
f 33/2/1 3/2/1 1/2/1
f 33/1/1 29/1/1 23/1/1
f 33/1/1 32/1/1 31/1/1
f 33/1/1 23/1/1 3/1/1
f 33/1/1 31/1/1 30/1/1
f 33/1/1 30/1/1 29/1/1
f 34/1/1 4/1/1 32/1/1
f 34/1/1 32/1/1 33/1/1
f 34/2/1 2/2/1 4/2/1
f 35/2/1 33/2/1 1/2/1
f 35/2/1 34/2/1 33/2/1
f 36/2/1 2/2/1 34/2/1
f 36/2/1 34/2/1 35/2/1
f 37/2/2 38/2/2 39/2/2
f 39/2/2 38/2/2 40/2/2
f 39/1/2 40/1/2 41/1/2
f 41/1/2 40/1/2 42/1/2
f 42/1/2 40/1/2 43/1/2
f 43/1/2 40/1/2 44/1/2
f 39/1/2 41/1/2 45/1/2
f 41/2/2 42/2/2 45/2/2
f 42/1/2 43/1/2 46/1/2
f 45/2/2 42/2/2 46/2/2
f 46/1/2 43/1/2 47/1/2
f 43/2/2 44/2/2 48/2/2
f 47/1/2 43/1/2 48/1/2
f 44/1/2 40/1/2 49/1/2
f 48/2/2 44/2/2 49/2/2
f 49/1/2 40/1/2 50/1/2
f 46/2/2 47/2/2 51/2/2
f 45/1/2 46/1/2 51/1/2
f 47/1/2 48/1/2 52/1/2
f 51/2/2 47/2/2 52/2/2
f 48/1/2 49/1/2 52/1/2
f 49/2/2 50/2/2 53/2/2
f 52/1/2 49/1/2 53/1/2
f 50/1/2 40/1/2 54/1/2
f 53/2/2 50/2/2 54/2/2
f 45/1/2 51/1/2 55/1/2
f 52/1/2 53/1/2 55/1/2
f 53/1/2 54/1/2 55/1/2
f 51/1/2 52/1/2 55/1/2
f 39/1/2 45/1/2 55/1/2
f 55/1/2 54/1/2 56/1/2
f 56/1/2 54/1/2 57/1/2
f 57/1/2 54/1/2 58/1/2
f 39/1/2 55/1/2 59/1/2
f 55/2/2 56/2/2 59/2/2
f 56/1/2 57/1/2 60/1/2
f 59/2/2 56/2/2 60/2/2
f 60/1/2 57/1/2 61/1/2
f 57/2/2 58/2/2 62/2/2
f 61/1/2 57/1/2 62/1/2
f 58/1/2 54/1/2 63/1/2
f 62/2/2 58/2/2 63/2/2
f 54/1/2 40/1/2 64/1/2
f 63/1/2 54/1/2 64/1/2
f 60/2/2 61/2/2 65/2/2
f 59/1/2 60/1/2 65/1/2
f 62/1/2 63/1/2 66/1/2
f 65/2/2 61/2/2 66/2/2
f 61/1/2 62/1/2 66/1/2
f 63/2/2 64/2/2 67/2/2
f 66/1/2 63/1/2 67/1/2
f 64/1/2 40/1/2 68/1/2
f 67/2/2 64/2/2 68/2/2
f 37/2/2 39/2/2 69/2/2
f 59/1/2 65/1/2 69/1/2
f 67/1/2 68/1/2 69/1/2
f 39/1/2 59/1/2 69/1/2
f 66/1/2 67/1/2 69/1/2
f 65/1/2 66/1/2 69/1/2
f 68/1/2 40/1/2 70/1/2
f 69/1/2 68/1/2 70/1/2
f 40/2/2 38/2/2 70/2/2
f 37/2/2 69/2/2 71/2/2
f 69/2/2 70/2/2 71/2/2
f 70/2/2 38/2/2 72/2/2
f 71/2/2 70/2/2 72/2/2
f 75/2/3 74/2/3 73/2/3
f 76/2/3 74/2/3 75/2/3
f 77/2/4 78/2/4 79/2/4
f 79/2/4 78/2/4 80/2/4
f 83/2/5 82/2/5 81/2/5
f 84/2/5 82/2/5 83/2/5
f 85/2/6 86/2/6 87/2/6
f 87/2/6 86/2/6 88/2/6
