<svg width="20" height="20" viewBox="0 0 20 20" fill="none" xmlns="http://www.w3.org/2000/svg">
<rect x="0.5" y="0.5" width="19" height="19" rx="9.5" fill="#FFE500"/>
<rect x="0.5" y="0.5" width="19" height="19" rx="9.5" stroke="#1F1F1F"/>
<path fill-rule="evenodd" clip-rule="evenodd" d="M10.834 5H11.6673V9.16667H10.834V5Z" fill="#1F1F1F"/>
<path fill-rule="evenodd" clip-rule="evenodd" d="M8.33398 5H9.16732V9.16667H8.33398V5Z" fill="#1F1F1F"/>
<path fill-rule="evenodd" clip-rule="evenodd" d="M13.8907 8.65192C13.6237 7.81925 13.1035 7.0936 12.4046 6.57897L12.9389 5.83362C13.7932 6.4626 14.429 7.34951 14.7553 8.36722C15.0816 9.38494 15.0816 10.4812 14.7553 11.4989C14.429 12.5166 13.7932 13.4036 12.9389 14.0325C12.0847 14.6615 11.0559 15.0003 10 15.0003C8.9441 15.0003 7.91531 14.6615 7.06107 14.0325C6.20684 13.4036 5.57101 12.5166 5.24472 11.4989C4.91843 10.4812 4.91843 9.38494 5.24472 8.36722C5.57101 7.34951 6.20683 6.4626 7.06107 5.83362L7.59542 6.57897C6.8965 7.0936 6.37628 7.81925 6.10931 8.65192C5.84235 9.4846 5.84235 10.3816 6.10931 11.2142C6.37628 12.0469 6.8965 12.7726 7.59542 13.2872C8.29435 13.8018 9.13609 14.079 10 14.079C10.8639 14.079 11.7057 13.8018 12.4046 13.2872C13.1035 12.7726 13.6237 12.0469 13.8907 11.2142C14.1576 10.3816 14.1576 9.4846 13.8907 8.65192Z" fill="#1F1F1F"/>
</svg>
