# MagicaVoxel @ Ephtracy

# group
o 

# material
mtllib MeetingRoom-3.mtl
usemtl palette

# normals
vn -1 0 0
vn 1 0 0
vn 0 0 1
vn 0 0 -1
vn 0 -1 0
vn 0 1 0

# texcoords
vt 0.537109 0.5
vt 0.865234 0.5

# verts
v -5 0.5 5
v -5 0.5 0
v -5 0.6 5
v -5 0.6 0
v -1.6 1.7 3.2
v -1.6 1.7 0
v -1.6 1.9 3.2
v -1.6 1.9 0
v -1.5 1.7 3.4
v -1.5 1.7 3.2
v -1.5 1.9 3.4
v -1.5 1.9 3.2
v -1.4 1.7 3.5
v -1.4 1.7 3.4
v -1.4 1.9 3.5
v -1.4 1.9 3.4
v -1.3 1.7 3.6
v -1.3 1.7 3.5
v -1.3 1.9 3.6
v -1.3 1.9 3.5
v -1.1 1.7 3.7
v -1.1 1.7 3.6
v -1.1 1.9 3.7
v -1.1 1.9 3.6
v -1 0.6 3.1
v -1 0.6 0
v -1 1.7 3.1
v -1 1.7 0
v 0 0.5 5
v 0 0.5 0
v 0 0.6 5
v 0 0.6 3.1
v 0 0.6 0
v 0 1.7 3.7
v 0 1.7 3.1
v 0 1.9 3.7
v 0 1.9 0
v -5 0.5 5
v -5 0.6 5
v 0 0.5 5
v 0 0.6 5
v -1.1 1.7 3.7
v -1.1 1.9 3.7
v 0 1.7 3.7
v 0 1.9 3.7
v -1.3 1.7 3.6
v -1.3 1.9 3.6
v -1.1 1.7 3.6
v -1.1 1.9 3.6
v -1.4 1.7 3.5
v -1.4 1.9 3.5
v -1.3 1.7 3.5
v -1.3 1.9 3.5
v -1.5 1.7 3.4
v -1.5 1.9 3.4
v -1.4 1.7 3.4
v -1.4 1.9 3.4
v -1.6 1.7 3.2
v -1.6 1.9 3.2
v -1.5 1.7 3.2
v -1.5 1.9 3.2
v -1 0.6 3.1
v -1 1.7 3.1
v 0 0.6 3.1
v 0 1.7 3.1
v -5 0.5 0
v -5 0.6 0
v -1.6 1.7 0
v -1.6 1.9 0
v -1 0.6 0
v -1 1.7 0
v 0 0.5 0
v 0 0.6 0
v 0 1.9 0
v -5 0.5 5
v 0 0.5 5
v -5 0.5 0
v 0 0.5 0
v -1.1 1.7 3.7
v 0 1.7 3.7
v -1.3 1.7 3.6
v -1.1 1.7 3.6
v -1.4 1.7 3.5
v -1.3 1.7 3.5
v -1.5 1.7 3.4
v -1.4 1.7 3.4
v -1.6 1.7 3.2
v -1.5 1.7 3.2
v -1 1.7 3.1
v 0 1.7 3.1
v -1.6 1.7 0
v -1 1.7 0
v -5 0.6 5
v 0 0.6 5
v -1 0.6 3.1
v 0 0.6 3.1
v -5 0.6 0
v -1 0.6 0
v -1.1 1.9 3.7
v 0 1.9 3.7
v -1.3 1.9 3.6
v -1.1 1.9 3.6
v -1.4 1.9 3.5
v -1.3 1.9 3.5
v -1.5 1.9 3.4
v -1.4 1.9 3.4
v -1.6 1.9 3.2
v -1.5 1.9 3.2
v -1.6 1.9 0
v 0 1.9 0

# faces
f 3/2/1 2/2/1 1/2/1
f 4/2/1 2/2/1 3/2/1
f 7/1/1 6/1/1 5/1/1
f 8/1/1 6/1/1 7/1/1
f 11/1/1 10/1/1 9/1/1
f 12/1/1 10/1/1 11/1/1
f 15/1/1 14/1/1 13/1/1
f 16/1/1 14/1/1 15/1/1
f 19/1/1 18/1/1 17/1/1
f 20/1/1 18/1/1 19/1/1
f 23/1/1 22/1/1 21/1/1
f 24/1/1 22/1/1 23/1/1
f 27/1/1 26/1/1 25/1/1
f 28/1/1 26/1/1 27/1/1
f 29/2/2 30/2/2 31/2/2
f 31/2/2 30/2/2 32/2/2
f 32/2/2 30/2/2 33/2/2
f 32/1/2 33/1/2 35/1/2
f 34/1/2 35/1/2 36/1/2
f 35/1/2 33/1/2 37/1/2
f 36/1/2 35/1/2 37/1/2
f 40/2/3 39/2/3 38/2/3
f 41/2/3 39/2/3 40/2/3
f 44/1/3 43/1/3 42/1/3
f 45/1/3 43/1/3 44/1/3
f 48/1/3 47/1/3 46/1/3
f 49/1/3 47/1/3 48/1/3
f 52/1/3 51/1/3 50/1/3
f 53/1/3 51/1/3 52/1/3
f 56/1/3 55/1/3 54/1/3
f 57/1/3 55/1/3 56/1/3
f 60/1/3 59/1/3 58/1/3
f 61/1/3 59/1/3 60/1/3
f 64/1/3 63/1/3 62/1/3
f 65/1/3 63/1/3 64/1/3
f 66/2/4 67/2/4 70/2/4
f 68/1/4 69/1/4 71/1/4
f 66/2/4 70/2/4 72/2/4
f 70/1/4 71/1/4 73/1/4
f 72/2/4 70/2/4 73/2/4
f 71/1/4 69/1/4 74/1/4
f 73/1/4 71/1/4 74/1/4
f 77/2/5 76/2/5 75/2/5
f 78/2/5 76/2/5 77/2/5
f 82/1/5 80/1/5 79/1/5
f 84/1/5 82/1/5 81/1/5
f 86/1/5 84/1/5 83/1/5
f 88/1/5 86/1/5 85/1/5
f 89/1/5 80/1/5 82/1/5
f 89/1/5 88/1/5 87/1/5
f 89/1/5 86/1/5 88/1/5
f 89/1/5 82/1/5 84/1/5
f 89/1/5 84/1/5 86/1/5
f 90/1/5 80/1/5 89/1/5
f 91/1/5 89/1/5 87/1/5
f 92/1/5 89/1/5 91/1/5
f 93/2/6 94/2/6 95/2/6
f 95/2/6 94/2/6 96/2/6
f 93/2/6 95/2/6 97/2/6
f 97/2/6 95/2/6 98/2/6
f 99/1/6 100/1/6 102/1/6
f 101/1/6 102/1/6 104/1/6
f 103/1/6 104/1/6 106/1/6
f 105/1/6 106/1/6 108/1/6
f 107/1/6 108/1/6 109/1/6
f 102/1/6 100/1/6 110/1/6
f 109/1/6 108/1/6 110/1/6
f 104/1/6 102/1/6 110/1/6
f 108/1/6 106/1/6 110/1/6
f 106/1/6 104/1/6 110/1/6
