# MagicaVoxel @ Ephtracy

# group
o 

# material
mtllib fridge.mtl
usemtl palette

# normals
vn -1 0 0
vn 1 0 0
vn 0 0 1
vn 0 0 -1
vn 0 -1 0
vn 0 1 0

# texcoords
vt 0.958984 0.5
vt 0.962891 0.5

# verts
v -17.8 0.1 2.1
v -17.8 0.1 2
v -17.8 0.1 1
v -17.8 0.1 0.9
v -17.8 2 2
v -17.8 2 1
v -17.8 2.1 2.1
v -17.8 2.1 0.9
v -17 1 1.3
v -17 1 1.2
v -17 1.4 1.3
v -17 1.4 1.2
v -17.2 0.8 2.1
v -17.2 0.8 2
v -17.2 0.8 1
v -17.2 0.8 0.9
v -17.2 0.9 2
v -17.2 0.9 1.9
v -17.2 0.9 1.1
v -17.2 0.9 1
v -17.2 2 2
v -17.2 2 1.9
v -17.2 2 1.1
v -17.2 2 1
v -17.2 2.1 2.1
v -17.2 2.1 1.9
v -17.2 2.1 1.1
v -17.2 2.1 0.9
v -17.1 0.1 2.1
v -17.1 0.1 2
v -17.1 0.1 1
v -17.1 0.1 0.9
v -17.1 0.6 1.9
v -17.1 0.6 1.1
v -17.1 0.7 1.9
v -17.1 0.7 1.1
v -17.1 0.8 2.1
v -17.1 0.8 2
v -17.1 0.8 1
v -17.1 0.8 0.9
v -17.1 0.9 2
v -17.1 0.9 1.9
v -17.1 0.9 1.3
v -17.1 0.9 1.2
v -17.1 0.9 1.1
v -17.1 0.9 1
v -17.1 1 1.3
v -17.1 1 1.2
v -17.1 1.4 1.3
v -17.1 1.4 1.2
v -17.1 1.5 1.3
v -17.1 1.5 1.2
v -17.1 2 2
v -17.1 2 1.9
v -17.1 2 1.1
v -17.1 2 1
v -17.1 2.1 1.9
v -17.1 2.1 1.1
v -17 0.6 1.9
v -17 0.6 1.1
v -17 0.7 1.9
v -17 0.7 1.1
v -17 0.9 1.3
v -17 0.9 1.2
v -17 1 1.3
v -17 1 1.2
v -17 1.4 1.3
v -17 1.4 1.2
v -17 1.5 1.3
v -17 1.5 1.2
v -16.9 1 1.3
v -16.9 1 1.2
v -16.9 1.4 1.3
v -16.9 1.4 1.2
v -17.8 0.1 2.1
v -17.8 2.1 2.1
v -17.2 0.8 2.1
v -17.2 2.1 2.1
v -17.1 0.1 2.1
v -17.1 0.8 2.1
v -17.2 0.9 2
v -17.2 2 2
v -17.1 0.9 2
v -17.1 2 2
v -17.2 2 1.9
v -17.2 2.1 1.9
v -17.1 0.6 1.9
v -17.1 0.7 1.9
v -17.1 2 1.9
v -17.1 2.1 1.9
v -17 0.6 1.9
v -17 0.7 1.9
v -17.1 0.9 1.3
v -17.1 1 1.3
v -17.1 1.4 1.3
v -17.1 1.5 1.3
v -17 0.9 1.3
v -17 1 1.3
v -17 1.4 1.3
v -17 1.5 1.3
v -16.9 1 1.3
v -16.9 1.4 1.3
v -17.1 0.9 1.2
v -17.1 1 1.2
v -17.1 1.4 1.2
v -17.1 1.5 1.2
v -17 0.9 1.2
v -17 1 1.2
v -17 1.4 1.2
v -17 1.5 1.2
v -16.9 1 1.2
v -16.9 1.4 1.2
v -17.2 2 1.1
v -17.2 2.1 1.1
v -17.1 0.6 1.1
v -17.1 0.7 1.1
v -17.1 2 1.1
v -17.1 2.1 1.1
v -17 0.6 1.1
v -17 0.7 1.1
v -17.2 0.9 1
v -17.2 2 1
v -17.1 0.9 1
v -17.1 2 1
v -17.8 0.1 0.9
v -17.8 2.1 0.9
v -17.2 0.8 0.9
v -17.2 2.1 0.9
v -17.1 0.1 0.9
v -17.1 0.8 0.9
v -17.8 0.1 2.1
v -17.1 0.1 2.1
v -17.8 0.1 2
v -17.1 0.1 2
v -17.8 0.1 1
v -17.1 0.1 1
v -17.8 0.1 0.9
v -17.1 0.1 0.9
v -17.1 0.6 1.9
v -17 0.6 1.9
v -17.1 0.6 1.1
v -17 0.6 1.1
v -17.2 0.9 2
v -17.1 0.9 2
v -17.2 0.9 1.9
v -17.1 0.9 1.9
v -17.1 0.9 1.3
v -17 0.9 1.3
v -17.1 0.9 1.2
v -17 0.9 1.2
v -17.2 0.9 1.1
v -17.1 0.9 1.1
v -17.2 0.9 1
v -17.1 0.9 1
v -17 1 1.3
v -16.9 1 1.3
v -17 1 1.2
v -16.9 1 1.2
v -17.1 1.4 1.3
v -17 1.4 1.3
v -17.1 1.4 1.2
v -17 1.4 1.2
v -17.1 0.7 1.9
v -17 0.7 1.9
v -17.1 0.7 1.1
v -17 0.7 1.1
v -17.2 0.8 2.1
v -17.1 0.8 2.1
v -17.2 0.8 2
v -17.1 0.8 2
v -17.2 0.8 1
v -17.1 0.8 1
v -17.2 0.8 0.9
v -17.1 0.8 0.9
v -17.1 1 1.3
v -17 1 1.3
v -17.1 1 1.2
v -17 1 1.2
v -17 1.4 1.3
v -16.9 1.4 1.3
v -17 1.4 1.2
v -16.9 1.4 1.2
v -17.1 1.5 1.3
v -17 1.5 1.3
v -17.1 1.5 1.2
v -17 1.5 1.2
v -17.2 2 2
v -17.1 2 2
v -17.2 2 1.9
v -17.1 2 1.9
v -17.2 2 1.1
v -17.1 2 1.1
v -17.2 2 1
v -17.1 2 1
v -17.8 2.1 2.1
v -17.2 2.1 2.1
v -17.7 2.1 1.9
v -17.2 2.1 1.9
v -17.1 2.1 1.9
v -17.7 2.1 1.1
v -17.2 2.1 1.1
v -17.1 2.1 1.1
v -17.8 2.1 0.9
v -17.2 2.1 0.9

# faces
f 5/2/1 2/2/1 1/2/1
f 5/1/1 3/1/1 2/1/1
f 6/2/1 4/2/1 3/2/1
f 6/1/1 3/1/1 5/1/1
f 7/2/1 5/2/1 1/2/1
f 7/2/1 6/2/1 5/2/1
f 8/2/1 4/2/1 6/2/1
f 8/2/1 6/2/1 7/2/1
f 11/2/1 10/2/1 9/2/1
f 12/2/1 10/2/1 11/2/1
f 13/2/2 14/2/2 17/2/2
f 14/1/2 15/1/2 17/1/2
f 17/1/2 15/1/2 18/1/2
f 18/1/2 15/1/2 19/1/2
f 15/2/2 16/2/2 20/2/2
f 19/1/2 15/1/2 20/1/2
f 13/2/2 17/2/2 21/2/2
f 20/2/2 16/2/2 24/2/2
f 21/2/2 22/2/2 25/2/2
f 13/2/2 21/2/2 25/2/2
f 25/2/2 22/2/2 26/2/2
f 23/2/2 24/2/2 27/2/2
f 24/2/2 16/2/2 28/2/2
f 27/2/2 24/2/2 28/2/2
f 30/1/2 31/1/2 33/1/2
f 33/1/2 31/1/2 34/1/2
f 30/1/2 33/1/2 35/1/2
f 34/1/2 31/1/2 36/1/2
f 29/2/2 30/2/2 37/2/2
f 35/1/2 36/1/2 38/1/2
f 37/2/2 30/2/2 38/2/2
f 30/1/2 35/1/2 38/1/2
f 31/2/2 32/2/2 39/2/2
f 38/1/2 36/1/2 39/1/2
f 36/1/2 31/1/2 39/1/2
f 39/2/2 32/2/2 40/2/2
f 42/1/2 43/1/2 47/1/2
f 44/1/2 45/1/2 48/1/2
f 42/1/2 47/1/2 49/1/2
f 47/1/2 48/1/2 49/1/2
f 48/1/2 45/1/2 50/1/2
f 49/1/2 48/1/2 50/1/2
f 42/1/2 49/1/2 51/1/2
f 50/1/2 45/1/2 52/1/2
f 41/2/2 42/2/2 53/2/2
f 51/1/2 52/1/2 54/1/2
f 53/2/2 42/2/2 54/2/2
f 42/1/2 51/1/2 54/1/2
f 45/2/2 46/2/2 55/2/2
f 54/1/2 52/1/2 55/1/2
f 52/1/2 45/1/2 55/1/2
f 55/2/2 46/2/2 56/2/2
f 54/2/2 55/2/2 57/2/2
f 57/2/2 55/2/2 58/2/2
f 59/2/2 60/2/2 61/2/2
f 61/2/2 60/2/2 62/2/2
f 63/2/2 64/2/2 65/2/2
f 65/2/2 64/2/2 66/2/2
f 67/2/2 68/2/2 69/2/2
f 69/2/2 68/2/2 70/2/2
f 71/2/2 72/2/2 73/2/2
f 73/2/2 72/2/2 74/2/2
f 77/2/3 76/2/3 75/2/3
f 78/2/3 76/2/3 77/2/3
f 79/2/3 77/2/3 75/2/3
f 80/2/3 77/2/3 79/2/3
f 83/2/3 82/2/3 81/2/3
f 84/2/3 82/2/3 83/2/3
f 89/2/3 86/2/3 85/2/3
f 90/2/3 86/2/3 89/2/3
f 91/2/3 88/2/3 87/2/3
f 92/2/3 88/2/3 91/2/3
f 97/2/3 94/2/3 93/2/3
f 98/2/3 94/2/3 97/2/3
f 99/2/3 96/2/3 95/2/3
f 100/2/3 96/2/3 99/2/3
f 101/2/3 99/2/3 98/2/3
f 102/2/3 99/2/3 101/2/3
f 103/2/4 104/2/4 107/2/4
f 107/2/4 104/2/4 108/2/4
f 105/2/4 106/2/4 109/2/4
f 109/2/4 106/2/4 110/2/4
f 108/2/4 109/2/4 111/2/4
f 111/2/4 109/2/4 112/2/4
f 113/2/4 114/2/4 117/2/4
f 117/2/4 114/2/4 118/2/4
f 115/2/4 116/2/4 119/2/4
f 119/2/4 116/2/4 120/2/4
f 121/2/4 122/2/4 123/2/4
f 123/2/4 122/2/4 124/2/4
f 125/2/4 126/2/4 127/2/4
f 127/2/4 126/2/4 128/2/4
f 125/2/4 127/2/4 129/2/4
f 129/2/4 127/2/4 130/2/4
f 133/2/5 132/2/5 131/2/5
f 134/2/5 132/2/5 133/2/5
f 135/1/5 134/1/5 133/1/5
f 136/1/5 134/1/5 135/1/5
f 137/2/5 136/2/5 135/2/5
f 138/2/5 136/2/5 137/2/5
f 141/2/5 140/2/5 139/2/5
f 142/2/5 140/2/5 141/2/5
f 145/2/5 144/2/5 143/2/5
f 146/2/5 144/2/5 145/2/5
f 147/1/5 146/1/5 145/1/5
f 149/1/5 147/1/5 145/1/5
f 149/2/5 148/2/5 147/2/5
f 150/2/5 148/2/5 149/2/5
f 151/1/5 149/1/5 145/1/5
f 152/1/5 149/1/5 151/1/5
f 153/2/5 152/2/5 151/2/5
f 154/2/5 152/2/5 153/2/5
f 157/2/5 156/2/5 155/2/5
f 158/2/5 156/2/5 157/2/5
f 161/2/5 160/2/5 159/2/5
f 162/2/5 160/2/5 161/2/5
f 163/2/6 164/2/6 165/2/6
f 165/2/6 164/2/6 166/2/6
f 167/2/6 168/2/6 169/2/6
f 169/2/6 168/2/6 170/2/6
f 169/1/6 170/1/6 171/1/6
f 171/1/6 170/1/6 172/1/6
f 171/2/6 172/2/6 173/2/6
f 173/2/6 172/2/6 174/2/6
f 175/2/6 176/2/6 177/2/6
f 177/2/6 176/2/6 178/2/6
f 179/2/6 180/2/6 181/2/6
f 181/2/6 180/2/6 182/2/6
f 183/2/6 184/2/6 185/2/6
f 185/2/6 184/2/6 186/2/6
f 187/2/6 188/2/6 189/2/6
f 189/2/6 188/2/6 190/2/6
f 191/2/6 192/2/6 193/2/6
f 193/2/6 192/2/6 194/2/6
f 195/2/6 196/2/6 197/2/6
f 197/2/6 196/2/6 198/2/6
f 195/2/6 197/2/6 200/2/6
f 197/1/6 198/1/6 200/1/6
f 198/2/6 199/2/6 201/2/6
f 200/1/6 198/1/6 201/1/6
f 201/2/6 199/2/6 202/2/6
f 195/2/6 200/2/6 203/2/6
f 200/2/6 201/2/6 203/2/6
f 203/2/6 201/2/6 204/2/6
