# MagicaVoxel @ Ephtracy

# group
o 

# material
mtllib wall_base_door.mtl
usemtl palette

# normals
vn -1 0 0
vn 1 0 0
vn 0 0 1
vn 0 0 -1
vn 0 -1 0
vn 0 1 0

# texcoords
vt 0.224609 0.5
vt 0.251953 0.5
vt 0.310547 0.5
vt 0.689453 0.5
vt 0.724609 0.5
vt 0.748047 0.5
vt 0.916016 0.5
vt 0.994141 0.5

# verts
v 8.4 0.1 -10.8
v 8.4 0.1 -10.9
v 8.4 0.1 -11.9
v 8.4 0.1 -12
v 8.4 0.1 -13
v 8.4 0.1 -13.1
v 8.4 0.7 -11.3
v 8.4 0.7 -11.8
v 8.4 0.7 -12.1
v 8.4 0.7 -12.6
v 8.4 0.8 -11.3
v 8.4 0.8 -11.8
v 8.4 0.8 -12.1
v 8.4 0.8 -12.6
v 8.4 2 -10.9
v 8.4 2 -11.9
v 8.4 2 -12
v 8.4 2 -13
v 8.4 2.1 -10.8
v 8.4 2.1 -13.1
v 8.5 0.1 -9.9
v 8.5 0.1 -10.8
v 8.5 0.1 -10.9
v 8.5 0.1 -11
v 8.5 0.1 -11.9
v 8.5 0.1 -12
v 8.5 0.1 -12.9
v 8.5 0.1 -13
v 8.5 0.1 -13.1
v 8.5 0.1 -14
v 8.5 0.2 -11
v 8.5 0.2 -11.9
v 8.5 0.2 -12
v 8.5 0.2 -12.9
v 8.5 0.3 -9.9
v 8.5 0.3 -10.8
v 8.5 0.3 -13.1
v 8.5 0.3 -14
v 8.5 0.5 -11.7
v 8.5 0.5 -11.9
v 8.5 0.5 -12
v 8.5 0.5 -12.2
v 8.5 0.6 -11.3
v 8.5 0.6 -11.7
v 8.5 0.6 -11.9
v 8.5 0.6 -12
v 8.5 0.6 -12.2
v 8.5 0.6 -12.6
v 8.5 0.7 -11.3
v 8.5 0.7 -11.7
v 8.5 0.7 -11.8
v 8.5 0.7 -12.1
v 8.5 0.7 -12.2
v 8.5 0.7 -12.6
v 8.5 0.8 -11.3
v 8.5 0.8 -11.4
v 8.5 0.8 -11.7
v 8.5 0.8 -11.8
v 8.5 0.8 -12.1
v 8.5 0.8 -12.2
v 8.5 0.8 -12.5
v 8.5 0.8 -12.6
v 8.5 0.9 -11.4
v 8.5 0.9 -11.7
v 8.5 0.9 -11.9
v 8.5 0.9 -12
v 8.5 0.9 -12.2
v 8.5 0.9 -12.5
v 8.5 1 -11.7
v 8.5 1 -11.9
v 8.5 1 -12
v 8.5 1 -12.2
v 8.5 1.2 -11.5
v 8.5 1.2 -11.6
v 8.5 1.2 -12.3
v 8.5 1.2 -12.4
v 8.5 1.3 -11.4
v 8.5 1.3 -11.5
v 8.5 1.3 -11.6
v 8.5 1.3 -12.3
v 8.5 1.3 -12.4
v 8.5 1.3 -12.5
v 8.5 1.4 -11.4
v 8.5 1.4 -11.5
v 8.5 1.4 -12.4
v 8.5 1.4 -12.5
v 8.5 1.5 -11.4
v 8.5 1.5 -11.7
v 8.5 1.5 -12.2
v 8.5 1.5 -12.5
v 8.5 1.6 -11.4
v 8.5 1.6 -11.7
v 8.5 1.6 -12.2
v 8.5 1.6 -12.5
v 8.5 1.7 -11.4
v 8.5 1.7 -11.7
v 8.5 1.7 -12.2
v 8.5 1.7 -12.5
v 8.5 1.9 -11
v 8.5 1.9 -11.9
v 8.5 1.9 -12
v 8.5 1.9 -12.9
v 8.5 2 -10.9
v 8.5 2 -11.9
v 8.5 2 -12
v 8.5 2 -13
v 8.6 0.1 -9.9
v 8.6 0.1 -10.8
v 8.6 0.1 -10.9
v 8.6 0.1 -11
v 8.6 0.1 -11.9
v 8.6 0.1 -12
v 8.6 0.1 -12.9
v 8.6 0.1 -13
v 8.6 0.1 -13.1
v 8.6 0.1 -14
v 8.6 0.2 -11
v 8.6 0.2 -11.9
v 8.6 0.2 -12
v 8.6 0.2 -12.9
v 8.6 0.3 -9.9
v 8.6 0.3 -10.8
v 8.6 0.3 -13.1
v 8.6 0.3 -14
v 8.6 0.5 -11.7
v 8.6 0.5 -11.9
v 8.6 0.5 -12
v 8.6 0.5 -12.2
v 8.6 0.6 -11.3
v 8.6 0.6 -11.7
v 8.6 0.6 -11.9
v 8.6 0.6 -12
v 8.6 0.6 -12.2
v 8.6 0.6 -12.6
v 8.6 0.7 -11.3
v 8.6 0.7 -11.7
v 8.6 0.7 -11.8
v 8.6 0.7 -12.1
v 8.6 0.7 -12.2
v 8.6 0.7 -12.6
v 8.6 0.8 -11.3
v 8.6 0.8 -11.4
v 8.6 0.8 -11.7
v 8.6 0.8 -11.8
v 8.6 0.8 -12.1
v 8.6 0.8 -12.2
v 8.6 0.8 -12.5
v 8.6 0.8 -12.6
v 8.6 0.9 -11.4
v 8.6 0.9 -11.7
v 8.6 0.9 -11.9
v 8.6 0.9 -12
v 8.6 0.9 -12.2
v 8.6 0.9 -12.5
v 8.6 1 -11.7
v 8.6 1 -11.9
v 8.6 1 -12
v 8.6 1 -12.2
v 8.6 1.2 -11.5
v 8.6 1.2 -11.6
v 8.6 1.2 -12.3
v 8.6 1.2 -12.4
v 8.6 1.3 -11.4
v 8.6 1.3 -11.5
v 8.6 1.3 -11.6
v 8.6 1.3 -12.3
v 8.6 1.3 -12.4
v 8.6 1.3 -12.5
v 8.6 1.4 -11.4
v 8.6 1.4 -11.5
v 8.6 1.4 -12.4
v 8.6 1.4 -12.5
v 8.6 1.5 -11.4
v 8.6 1.5 -11.7
v 8.6 1.5 -12.2
v 8.6 1.5 -12.5
v 8.6 1.6 -11.4
v 8.6 1.6 -11.7
v 8.6 1.6 -12.2
v 8.6 1.6 -12.5
v 8.6 1.7 -11.4
v 8.6 1.7 -11.7
v 8.6 1.7 -12.2
v 8.6 1.7 -12.5
v 8.6 1.9 -11
v 8.6 1.9 -11.9
v 8.6 1.9 -12
v 8.6 1.9 -12.9
v 8.6 2 -10.9
v 8.6 2 -11.9
v 8.6 2 -12
v 8.6 2 -13
v 8.7 0.1 -10.8
v 8.7 0.1 -10.9
v 8.7 0.1 -11.9
v 8.7 0.1 -12
v 8.7 0.1 -13
v 8.7 0.1 -13.1
v 8.7 0.7 -11.3
v 8.7 0.7 -11.8
v 8.7 0.7 -12.1
v 8.7 0.7 -12.6
v 8.7 0.8 -11.3
v 8.7 0.8 -11.8
v 8.7 0.8 -12.1
v 8.7 0.8 -12.6
v 8.7 2 -10.9
v 8.7 2 -11.9
v 8.7 2 -12
v 8.7 2 -13
v 8.7 2.1 -10.8
v 8.7 2.1 -13.1
v 8.5 0.1 -9.9
v 8.5 0.3 -9.9
v 8.6 0.1 -9.9
v 8.6 0.3 -9.9
v 8.4 0.1 -10.8
v 8.4 2.1 -10.8
v 8.5 0.1 -10.8
v 8.5 0.3 -10.8
v 8.6 0.1 -10.8
v 8.6 0.3 -10.8
v 8.7 0.1 -10.8
v 8.7 2.1 -10.8
v 8.4 0.7 -11.3
v 8.4 0.8 -11.3
v 8.5 0.7 -11.3
v 8.5 0.8 -11.3
v 8.6 0.7 -11.3
v 8.6 0.8 -11.3
v 8.7 0.7 -11.3
v 8.7 0.8 -11.3
v 8.4 0.1 -11.9
v 8.4 2 -11.9
v 8.5 0.1 -11.9
v 8.5 0.2 -11.9
v 8.5 0.5 -11.9
v 8.5 0.6 -11.9
v 8.5 0.9 -11.9
v 8.5 1 -11.9
v 8.5 1.9 -11.9
v 8.5 2 -11.9
v 8.6 0.1 -11.9
v 8.6 0.2 -11.9
v 8.6 0.5 -11.9
v 8.6 0.6 -11.9
v 8.6 0.9 -11.9
v 8.6 1 -11.9
v 8.6 1.9 -11.9
v 8.6 2 -11.9
v 8.7 0.1 -11.9
v 8.7 2 -11.9
v 8.4 0.7 -12.1
v 8.4 0.8 -12.1
v 8.5 0.7 -12.1
v 8.5 0.8 -12.1
v 8.6 0.7 -12.1
v 8.6 0.8 -12.1
v 8.7 0.7 -12.1
v 8.7 0.8 -12.1
v 8.4 0.1 -13
v 8.4 2 -13
v 8.5 0.1 -13
v 8.5 2 -13
v 8.6 0.1 -13
v 8.6 2 -13
v 8.7 0.1 -13
v 8.7 2 -13
v 8.4 0.1 -10.9
v 8.4 2 -10.9
v 8.5 0.1 -10.9
v 8.5 2 -10.9
v 8.6 0.1 -10.9
v 8.6 2 -10.9
v 8.7 0.1 -10.9
v 8.7 2 -10.9
v 8.4 0.7 -11.8
v 8.4 0.8 -11.8
v 8.5 0.7 -11.8
v 8.5 0.8 -11.8
v 8.6 0.7 -11.8
v 8.6 0.8 -11.8
v 8.7 0.7 -11.8
v 8.7 0.8 -11.8
v 8.4 0.1 -12
v 8.4 2 -12
v 8.5 0.1 -12
v 8.5 0.2 -12
v 8.5 0.5 -12
v 8.5 0.6 -12
v 8.5 0.9 -12
v 8.5 1 -12
v 8.5 1.9 -12
v 8.5 2 -12
v 8.6 0.1 -12
v 8.6 0.2 -12
v 8.6 0.5 -12
v 8.6 0.6 -12
v 8.6 0.9 -12
v 8.6 1 -12
v 8.6 1.9 -12
v 8.6 2 -12
v 8.7 0.1 -12
v 8.7 2 -12
v 8.4 0.7 -12.6
v 8.4 0.8 -12.6
v 8.5 0.7 -12.6
v 8.5 0.8 -12.6
v 8.6 0.7 -12.6
v 8.6 0.8 -12.6
v 8.7 0.7 -12.6
v 8.7 0.8 -12.6
v 8.4 0.1 -13.1
v 8.4 2.1 -13.1
v 8.5 0.1 -13.1
v 8.5 0.3 -13.1
v 8.6 0.1 -13.1
v 8.6 0.3 -13.1
v 8.7 0.1 -13.1
v 8.7 2.1 -13.1
v 8.5 0.1 -14
v 8.5 0.3 -14
v 8.6 0.1 -14
v 8.6 0.3 -14
v 8.5 0.1 -9.9
v 8.6 0.1 -9.9
v 8.4 0.1 -10.8
v 8.5 0.1 -10.8
v 8.6 0.1 -10.8
v 8.7 0.1 -10.8
v 8.4 0.1 -10.9
v 8.5 0.1 -10.9
v 8.6 0.1 -10.9
v 8.7 0.1 -10.9
v 8.5 0.1 -11
v 8.6 0.1 -11
v 8.4 0.1 -11.9
v 8.5 0.1 -11.9
v 8.6 0.1 -11.9
v 8.7 0.1 -11.9
v 8.4 0.1 -12
v 8.5 0.1 -12
v 8.6 0.1 -12
v 8.7 0.1 -12
v 8.5 0.1 -12.9
v 8.6 0.1 -12.9
v 8.4 0.1 -13
v 8.5 0.1 -13
v 8.6 0.1 -13
v 8.7 0.1 -13
v 8.4 0.1 -13.1
v 8.5 0.1 -13.1
v 8.6 0.1 -13.1
v 8.7 0.1 -13.1
v 8.5 0.1 -14
v 8.6 0.1 -14
v 8.4 0.7 -11.3
v 8.5 0.7 -11.3
v 8.6 0.7 -11.3
v 8.7 0.7 -11.3
v 8.5 0.7 -11.7
v 8.6 0.7 -11.7
v 8.4 0.7 -11.8
v 8.5 0.7 -11.8
v 8.6 0.7 -11.8
v 8.7 0.7 -11.8
v 8.4 0.7 -12.1
v 8.5 0.7 -12.1
v 8.6 0.7 -12.1
v 8.7 0.7 -12.1
v 8.5 0.7 -12.2
v 8.6 0.7 -12.2
v 8.4 0.7 -12.6
v 8.5 0.7 -12.6
v 8.6 0.7 -12.6
v 8.7 0.7 -12.6
v 8.4 2 -10.9
v 8.5 2 -10.9
v 8.6 2 -10.9
v 8.7 2 -10.9
v 8.4 2 -11.9
v 8.5 2 -11.9
v 8.6 2 -11.9
v 8.7 2 -11.9
v 8.4 2 -12
v 8.5 2 -12
v 8.6 2 -12
v 8.7 2 -12
v 8.4 2 -13
v 8.5 2 -13
v 8.6 2 -13
v 8.7 2 -13
v 8.5 0.3 -9.9
v 8.6 0.3 -9.9
v 8.5 0.3 -10.8
v 8.6 0.3 -10.8
v 8.5 0.3 -13.1
v 8.6 0.3 -13.1
v 8.5 0.3 -14
v 8.6 0.3 -14
v 8.4 0.8 -11.3
v 8.5 0.8 -11.3
v 8.6 0.8 -11.3
v 8.7 0.8 -11.3
v 8.5 0.8 -11.4
v 8.6 0.8 -11.4
v 8.5 0.8 -11.7
v 8.6 0.8 -11.7
v 8.4 0.8 -11.8
v 8.5 0.8 -11.8
v 8.6 0.8 -11.8
v 8.7 0.8 -11.8
v 8.4 0.8 -12.1
v 8.5 0.8 -12.1
v 8.6 0.8 -12.1
v 8.7 0.8 -12.1
v 8.5 0.8 -12.2
v 8.6 0.8 -12.2
v 8.5 0.8 -12.5
v 8.6 0.8 -12.5
v 8.4 0.8 -12.6
v 8.5 0.8 -12.6
v 8.6 0.8 -12.6
v 8.7 0.8 -12.6
v 8.4 2.1 -10.8
v 8.7 2.1 -10.8
v 8.4 2.1 -13.1
v 8.7 2.1 -13.1

# faces
f 11/8/1 8/8/1 7/8/1
f 12/8/1 8/8/1 11/8/1
f 13/8/1 10/8/1 9/8/1
f 14/8/1 10/8/1 13/8/1
f 15/8/1 2/8/1 1/8/1
f 16/8/1 4/8/1 3/8/1
f 17/8/1 4/8/1 16/8/1
f 18/8/1 6/8/1 5/8/1
f 19/8/1 17/8/1 16/8/1
f 19/8/1 18/8/1 17/8/1
f 19/8/1 15/8/1 1/8/1
f 19/8/1 16/8/1 15/8/1
f 20/8/1 6/8/1 18/8/1
f 20/8/1 18/8/1 19/8/1
f 31/3/1 24/3/1 23/3/1
f 31/2/1 25/2/1 24/2/1
f 32/2/1 25/2/1 31/2/1
f 33/2/1 27/2/1 26/2/1
f 34/3/1 28/3/1 27/3/1
f 34/2/1 27/2/1 33/2/1
f 35/8/1 22/8/1 21/8/1
f 36/8/1 22/8/1 35/8/1
f 37/8/1 30/8/1 29/8/1
f 38/8/1 30/8/1 37/8/1
f 39/1/1 32/1/1 31/1/1
f 40/1/1 32/1/1 39/1/1
f 41/1/1 34/1/1 33/1/1
f 42/1/1 34/1/1 41/1/1
f 43/1/1 39/1/1 31/1/1
f 44/3/1 40/3/1 39/3/1
f 44/1/1 39/1/1 43/1/1
f 45/3/1 40/3/1 44/3/1
f 46/3/1 42/3/1 41/3/1
f 47/1/1 34/1/1 42/1/1
f 47/3/1 42/3/1 46/3/1
f 48/1/1 34/1/1 47/1/1
f 49/1/1 43/1/1 31/1/1
f 49/3/1 44/3/1 43/3/1
f 50/8/1 45/8/1 44/8/1
f 50/3/1 44/3/1 49/3/1
f 51/8/1 45/8/1 50/8/1
f 52/8/1 47/8/1 46/8/1
f 53/3/1 48/3/1 47/3/1
f 53/8/1 47/8/1 52/8/1
f 54/1/1 34/1/1 48/1/1
f 54/3/1 48/3/1 53/3/1
f 55/1/1 49/1/1 31/1/1
f 58/8/1 45/8/1 51/8/1
f 59/8/1 52/8/1 46/8/1
f 62/1/1 34/1/1 54/1/1
f 63/5/1 57/5/1 56/5/1
f 63/1/1 56/1/1 55/1/1
f 64/8/1 58/8/1 57/8/1
f 64/5/1 57/5/1 63/5/1
f 65/8/1 45/8/1 58/8/1
f 65/8/1 58/8/1 64/8/1
f 66/8/1 59/8/1 46/8/1
f 66/8/1 60/8/1 59/8/1
f 67/5/1 61/5/1 60/5/1
f 67/8/1 60/8/1 66/8/1
f 68/1/1 62/1/1 61/1/1
f 68/5/1 61/5/1 67/5/1
f 69/4/1 64/4/1 63/4/1
f 69/2/1 65/2/1 64/2/1
f 70/2/1 65/2/1 69/2/1
f 71/2/1 67/2/1 66/2/1
f 72/4/1 68/4/1 67/4/1
f 72/2/1 67/2/1 71/2/1
f 73/4/1 69/4/1 63/4/1
f 74/4/1 69/4/1 73/4/1
f 75/4/1 68/4/1 72/4/1
f 76/4/1 68/4/1 75/4/1
f 77/1/1 63/1/1 55/1/1
f 77/4/1 73/4/1 63/4/1
f 78/7/1 74/7/1 73/7/1
f 78/4/1 73/4/1 77/4/1
f 79/4/1 69/4/1 74/4/1
f 79/7/1 74/7/1 78/7/1
f 80/7/1 76/7/1 75/7/1
f 80/4/1 75/4/1 72/4/1
f 81/4/1 68/4/1 76/4/1
f 81/7/1 76/7/1 80/7/1
f 82/1/1 62/1/1 68/1/1
f 82/4/1 68/4/1 81/4/1
f 83/7/1 78/7/1 77/7/1
f 83/1/1 77/1/1 55/1/1
f 84/4/1 79/4/1 78/4/1
f 84/7/1 78/7/1 83/7/1
f 85/4/1 81/4/1 80/4/1
f 85/7/1 82/7/1 81/7/1
f 86/1/1 62/1/1 82/1/1
f 86/7/1 82/7/1 85/7/1
f 87/4/1 84/4/1 83/4/1
f 87/1/1 83/1/1 55/1/1
f 88/1/1 70/1/1 69/1/1
f 88/4/1 84/4/1 87/4/1
f 88/4/1 79/4/1 84/4/1
f 88/4/1 69/4/1 79/4/1
f 89/4/1 80/4/1 72/4/1
f 89/4/1 86/4/1 85/4/1
f 89/4/1 85/4/1 80/4/1
f 89/1/1 72/1/1 71/1/1
f 90/1/1 62/1/1 86/1/1
f 90/4/1 86/4/1 89/4/1
f 91/1/1 87/1/1 55/1/1
f 91/6/1 88/6/1 87/6/1
f 92/1/1 70/1/1 88/1/1
f 92/6/1 88/6/1 91/6/1
f 93/6/1 90/6/1 89/6/1
f 93/1/1 89/1/1 71/1/1
f 94/1/1 62/1/1 90/1/1
f 94/6/1 90/6/1 93/6/1
f 95/1/1 91/1/1 55/1/1
f 95/5/1 92/5/1 91/5/1
f 96/1/1 70/1/1 92/1/1
f 96/5/1 92/5/1 95/5/1
f 97/1/1 93/1/1 71/1/1
f 97/5/1 94/5/1 93/5/1
f 98/1/1 62/1/1 94/1/1
f 98/5/1 94/5/1 97/5/1
f 99/3/1 31/3/1 23/3/1
f 99/1/1 55/1/1 31/1/1
f 99/1/1 95/1/1 55/1/1
f 99/1/1 96/1/1 95/1/1
f 100/1/1 70/1/1 96/1/1
f 100/1/1 96/1/1 99/1/1
f 101/1/1 97/1/1 71/1/1
f 101/1/1 98/1/1 97/1/1
f 102/3/1 28/3/1 34/3/1
f 102/1/1 98/1/1 101/1/1
f 102/1/1 62/1/1 98/1/1
f 102/1/1 34/1/1 62/1/1
f 103/3/1 99/3/1 23/3/1
f 103/3/1 100/3/1 99/3/1
f 104/3/1 100/3/1 103/3/1
f 105/3/1 102/3/1 101/3/1
f 106/3/1 28/3/1 102/3/1
f 106/3/1 102/3/1 105/3/1
f 109/3/2 110/3/2 117/3/2
f 110/2/2 111/2/2 117/2/2
f 117/2/2 111/2/2 118/2/2
f 112/2/2 113/2/2 119/2/2
f 113/3/2 114/3/2 120/3/2
f 119/2/2 113/2/2 120/2/2
f 107/8/2 108/8/2 121/8/2
f 121/8/2 108/8/2 122/8/2
f 115/8/2 116/8/2 123/8/2
f 123/8/2 116/8/2 124/8/2
f 117/1/2 118/1/2 125/1/2
f 125/1/2 118/1/2 126/1/2
f 119/1/2 120/1/2 127/1/2
f 127/1/2 120/1/2 128/1/2
f 117/1/2 125/1/2 129/1/2
f 125/3/2 126/3/2 130/3/2
f 129/1/2 125/1/2 130/1/2
f 130/3/2 126/3/2 131/3/2
f 127/3/2 128/3/2 132/3/2
f 128/1/2 120/1/2 133/1/2
f 132/3/2 128/3/2 133/3/2
f 133/1/2 120/1/2 134/1/2
f 117/1/2 129/1/2 135/1/2
f 129/3/2 130/3/2 135/3/2
f 130/8/2 131/8/2 136/8/2
f 135/3/2 130/3/2 136/3/2
f 136/8/2 131/8/2 137/8/2
f 132/8/2 133/8/2 138/8/2
f 133/3/2 134/3/2 139/3/2
f 138/8/2 133/8/2 139/8/2
f 134/1/2 120/1/2 140/1/2
f 139/3/2 134/3/2 140/3/2
f 117/1/2 135/1/2 141/1/2
f 137/8/2 131/8/2 144/8/2
f 132/8/2 138/8/2 145/8/2
f 140/1/2 120/1/2 148/1/2
f 142/5/2 143/5/2 149/5/2
f 141/1/2 142/1/2 149/1/2
f 143/8/2 144/8/2 150/8/2
f 149/5/2 143/5/2 150/5/2
f 144/8/2 131/8/2 151/8/2
f 150/8/2 144/8/2 151/8/2
f 132/8/2 145/8/2 152/8/2
f 145/8/2 146/8/2 152/8/2
f 146/5/2 147/5/2 153/5/2
f 152/8/2 146/8/2 153/8/2
f 147/1/2 148/1/2 154/1/2
f 153/5/2 147/5/2 154/5/2
f 149/4/2 150/4/2 155/4/2
f 150/2/2 151/2/2 155/2/2
f 155/2/2 151/2/2 156/2/2
f 152/2/2 153/2/2 157/2/2
f 153/4/2 154/4/2 158/4/2
f 157/2/2 153/2/2 158/2/2
f 149/4/2 155/4/2 159/4/2
f 159/4/2 155/4/2 160/4/2
f 158/4/2 154/4/2 161/4/2
f 161/4/2 154/4/2 162/4/2
f 141/1/2 149/1/2 163/1/2
f 149/4/2 159/4/2 163/4/2
f 159/7/2 160/7/2 164/7/2
f 163/4/2 159/4/2 164/4/2
f 160/4/2 155/4/2 165/4/2
f 164/7/2 160/7/2 165/7/2
f 161/7/2 162/7/2 166/7/2
f 158/4/2 161/4/2 166/4/2
f 162/4/2 154/4/2 167/4/2
f 166/7/2 162/7/2 167/7/2
f 154/1/2 148/1/2 168/1/2
f 167/4/2 154/4/2 168/4/2
f 163/7/2 164/7/2 169/7/2
f 141/1/2 163/1/2 169/1/2
f 164/4/2 165/4/2 170/4/2
f 169/7/2 164/7/2 170/7/2
f 166/4/2 167/4/2 171/4/2
f 167/7/2 168/7/2 171/7/2
f 168/1/2 148/1/2 172/1/2
f 171/7/2 168/7/2 172/7/2
f 169/4/2 170/4/2 173/4/2
f 141/1/2 169/1/2 173/1/2
f 155/1/2 156/1/2 174/1/2
f 173/4/2 170/4/2 174/4/2
f 170/4/2 165/4/2 174/4/2
f 165/4/2 155/4/2 174/4/2
f 158/4/2 166/4/2 175/4/2
f 171/4/2 172/4/2 175/4/2
f 166/4/2 171/4/2 175/4/2
f 157/1/2 158/1/2 175/1/2
f 172/1/2 148/1/2 176/1/2
f 175/4/2 172/4/2 176/4/2
f 141/1/2 173/1/2 177/1/2
f 173/6/2 174/6/2 177/6/2
f 174/1/2 156/1/2 178/1/2
f 177/6/2 174/6/2 178/6/2
f 175/6/2 176/6/2 179/6/2
f 157/1/2 175/1/2 179/1/2
f 176/1/2 148/1/2 180/1/2
f 179/6/2 176/6/2 180/6/2
f 141/1/2 177/1/2 181/1/2
f 177/5/2 178/5/2 181/5/2
f 178/1/2 156/1/2 182/1/2
f 181/5/2 178/5/2 182/5/2
f 157/1/2 179/1/2 183/1/2
f 179/5/2 180/5/2 183/5/2
f 180/1/2 148/1/2 184/1/2
f 183/5/2 180/5/2 184/5/2
f 109/3/2 117/3/2 185/3/2
f 117/1/2 141/1/2 185/1/2
f 141/1/2 181/1/2 185/1/2
f 181/1/2 182/1/2 185/1/2
f 182/1/2 156/1/2 186/1/2
f 185/1/2 182/1/2 186/1/2
f 157/1/2 183/1/2 187/1/2
f 183/1/2 184/1/2 187/1/2
f 120/3/2 114/3/2 188/3/2
f 187/1/2 184/1/2 188/1/2
f 184/1/2 148/1/2 188/1/2
f 148/1/2 120/1/2 188/1/2
f 109/3/2 185/3/2 189/3/2
f 185/3/2 186/3/2 189/3/2
f 189/3/2 186/3/2 190/3/2
f 187/3/2 188/3/2 191/3/2
f 188/3/2 114/3/2 192/3/2
f 191/3/2 188/3/2 192/3/2
f 199/8/2 200/8/2 203/8/2
f 203/8/2 200/8/2 204/8/2
f 201/8/2 202/8/2 205/8/2
f 205/8/2 202/8/2 206/8/2
f 193/8/2 194/8/2 207/8/2
f 195/8/2 196/8/2 208/8/2
f 208/8/2 196/8/2 209/8/2
f 197/8/2 198/8/2 210/8/2
f 208/8/2 209/8/2 211/8/2
f 209/8/2 210/8/2 211/8/2
f 193/8/2 207/8/2 211/8/2
f 207/8/2 208/8/2 211/8/2
f 210/8/2 198/8/2 212/8/2
f 211/8/2 210/8/2 212/8/2
f 215/8/3 214/8/3 213/8/3
f 216/8/3 214/8/3 215/8/3
f 219/8/3 218/8/3 217/8/3
f 220/8/3 218/8/3 219/8/3
f 222/8/3 218/8/3 220/8/3
f 223/8/3 222/8/3 221/8/3
f 224/8/3 218/8/3 222/8/3
f 224/8/3 222/8/3 223/8/3
f 227/8/3 226/8/3 225/8/3
f 228/8/3 226/8/3 227/8/3
f 231/8/3 230/8/3 229/8/3
f 232/8/3 230/8/3 231/8/3
f 235/8/3 234/8/3 233/8/3
f 236/8/3 234/8/3 235/8/3
f 237/8/3 234/8/3 236/8/3
f 238/8/3 234/8/3 237/8/3
f 239/8/3 234/8/3 238/8/3
f 240/8/3 234/8/3 239/8/3
f 241/8/3 234/8/3 240/8/3
f 242/8/3 234/8/3 241/8/3
f 251/8/3 244/8/3 243/8/3
f 251/8/3 250/8/3 249/8/3
f 251/8/3 249/8/3 248/8/3
f 251/8/3 248/8/3 247/8/3
f 251/8/3 247/8/3 246/8/3
f 251/8/3 246/8/3 245/8/3
f 251/8/3 245/8/3 244/8/3
f 252/8/3 250/8/3 251/8/3
f 255/8/3 254/8/3 253/8/3
f 256/8/3 254/8/3 255/8/3
f 259/8/3 258/8/3 257/8/3
f 260/8/3 258/8/3 259/8/3
f 263/8/3 262/8/3 261/8/3
f 264/8/3 262/8/3 263/8/3
f 267/8/3 266/8/3 265/8/3
f 268/8/3 266/8/3 267/8/3
f 269/8/4 270/8/4 271/8/4
f 271/8/4 270/8/4 272/8/4
f 273/8/4 274/8/4 275/8/4
f 275/8/4 274/8/4 276/8/4
f 277/8/4 278/8/4 279/8/4
f 279/8/4 278/8/4 280/8/4
f 281/8/4 282/8/4 283/8/4
f 283/8/4 282/8/4 284/8/4
f 285/8/4 286/8/4 287/8/4
f 287/8/4 286/8/4 288/8/4
f 288/8/4 286/8/4 289/8/4
f 289/8/4 286/8/4 290/8/4
f 290/8/4 286/8/4 291/8/4
f 291/8/4 286/8/4 292/8/4
f 292/8/4 286/8/4 293/8/4
f 293/8/4 286/8/4 294/8/4
f 295/8/4 296/8/4 303/8/4
f 301/8/4 302/8/4 303/8/4
f 300/8/4 301/8/4 303/8/4
f 299/8/4 300/8/4 303/8/4
f 298/8/4 299/8/4 303/8/4
f 297/8/4 298/8/4 303/8/4
f 296/8/4 297/8/4 303/8/4
f 303/8/4 302/8/4 304/8/4
f 305/8/4 306/8/4 307/8/4
f 307/8/4 306/8/4 308/8/4
f 309/8/4 310/8/4 311/8/4
f 311/8/4 310/8/4 312/8/4
f 313/8/4 314/8/4 315/8/4
f 315/8/4 314/8/4 316/8/4
f 316/8/4 314/8/4 318/8/4
f 317/8/4 318/8/4 319/8/4
f 318/8/4 314/8/4 320/8/4
f 319/8/4 318/8/4 320/8/4
f 321/8/4 322/8/4 323/8/4
f 323/8/4 322/8/4 324/8/4
f 328/8/5 326/8/5 325/8/5
f 329/8/5 326/8/5 328/8/5
f 331/8/5 328/8/5 327/8/5
f 331/8/5 330/8/5 329/8/5
f 331/8/5 329/8/5 328/8/5
f 332/8/5 330/8/5 331/8/5
f 333/8/5 330/8/5 332/8/5
f 334/8/5 330/8/5 333/8/5
f 335/3/5 333/3/5 332/3/5
f 336/3/5 333/3/5 335/3/5
f 338/2/5 336/2/5 335/2/5
f 339/2/5 336/2/5 338/2/5
f 341/8/5 339/8/5 338/8/5
f 341/8/5 340/8/5 339/8/5
f 341/8/5 338/8/5 337/8/5
f 342/8/5 340/8/5 341/8/5
f 343/8/5 340/8/5 342/8/5
f 344/8/5 340/8/5 343/8/5
f 345/2/5 343/2/5 342/2/5
f 346/2/5 343/2/5 345/2/5
f 348/3/5 346/3/5 345/3/5
f 349/3/5 346/3/5 348/3/5
f 351/8/5 349/8/5 348/8/5
f 351/8/5 350/8/5 349/8/5
f 351/8/5 348/8/5 347/8/5
f 352/8/5 350/8/5 351/8/5
f 353/8/5 350/8/5 352/8/5
f 354/8/5 350/8/5 353/8/5
f 355/8/5 353/8/5 352/8/5
f 356/8/5 353/8/5 355/8/5
f 361/8/5 358/8/5 357/8/5
f 362/8/5 360/8/5 359/8/5
f 363/8/5 361/8/5 357/8/5
f 364/8/5 361/8/5 363/8/5
f 365/8/5 360/8/5 362/8/5
f 366/8/5 360/8/5 365/8/5
f 371/8/5 368/8/5 367/8/5
f 372/8/5 370/8/5 369/8/5
f 373/8/5 371/8/5 367/8/5
f 374/8/5 371/8/5 373/8/5
f 375/8/5 370/8/5 372/8/5
f 376/8/5 370/8/5 375/8/5
f 381/8/5 378/8/5 377/8/5
f 382/8/5 378/8/5 381/8/5
f 383/8/5 380/8/5 379/8/5
f 384/8/5 380/8/5 383/8/5
f 389/8/5 386/8/5 385/8/5
f 390/8/5 386/8/5 389/8/5
f 391/8/5 388/8/5 387/8/5
f 392/8/5 388/8/5 391/8/5
f 393/8/6 394/8/6 395/8/6
f 395/8/6 394/8/6 396/8/6
f 397/8/6 398/8/6 399/8/6
f 399/8/6 398/8/6 400/8/6
f 401/8/6 402/8/6 405/8/6
f 403/8/6 404/8/6 406/8/6
f 401/8/6 405/8/6 407/8/6
f 406/8/6 404/8/6 408/8/6
f 401/8/6 407/8/6 409/8/6
f 409/8/6 407/8/6 410/8/6
f 408/8/6 404/8/6 411/8/6
f 411/8/6 404/8/6 412/8/6
f 413/8/6 414/8/6 417/8/6
f 415/8/6 416/8/6 418/8/6
f 413/8/6 417/8/6 419/8/6
f 418/8/6 416/8/6 420/8/6
f 413/8/6 419/8/6 421/8/6
f 421/8/6 419/8/6 422/8/6
f 420/8/6 416/8/6 423/8/6
f 423/8/6 416/8/6 424/8/6
f 425/8/6 426/8/6 427/8/6
f 427/8/6 426/8/6 428/8/6
